<?xml version="1.0" encoding="utf-8"?>
<!-- Generator: Adobe Illustrator 23.0.0, SVG Export Plug-In . SVG Version: 6.00 Build 0)  -->
<svg version="1.1" id="Capa_1" xmlns="http://www.w3.org/2000/svg" xmlns:xlink="http://www.w3.org/1999/xlink" x="0px" y="0px"
	 viewBox="0 0 425.2 425.2" style="enable-background:new 0 0 425.2 425.2;" xml:space="preserve">
<style type="text/css">
	.st0{fill:#FFFAD2;}
</style>
<g>
	<path class="st0" d="M371.49,254.67H263.26c-2.76,0-5-2.24-5-5s2.24-5,5-5h108.23c14.91,0,27.43-5.22,33.48-13.96
		c6.4-9.25,6.96-15.25,6.96-41.77V58.83c0-3.2-4.33-5.57-6.24-5.77c-4.66-0.28-125.11-0.13-197.08-0.04
		c-26.02,0.03-47.08,0.06-56.88,0.06H29.05c-0.78,0-1.55-0.01-2.31-0.02c-3.88-0.06-7.22-0.1-8.69,1.35
		c-1.4,1.38-2.17,4.85-2.17,9.78v126.81c0,2.76-2.24,5-5,5s-5-2.24-5-5V64.2c0-8.07,1.64-13.44,5.15-16.9
		c4.45-4.39,10.51-4.3,15.85-4.23c0.72,0.01,1.44,0.02,2.17,0.02h122.68c9.79,0,30.85-0.03,56.86-0.06
		c126.31-0.16,195.29-0.19,198.09,0.08c6.23,0.62,15.24,6.58,15.24,15.72v130.12c0,26.47-0.4,35.41-8.74,47.46
		C405.15,248.01,389.95,254.67,371.49,254.67z"/>
	<path class="st0" d="M263.68,374.05c-0.26,0-0.52-0.02-0.79-0.06c-2.73-0.43-4.59-2.99-4.16-5.72c0.06-0.36,1.45-8.96,5.69-15.56
		c1.52-2.37,3.23-4.26,4.74-5.94c2.6-2.89,4.09-4.65,4.42-7.26c0.47-3.78-3.08-10.63-8.63-16.64c-7.66-8.29-5.68-19.22-4.89-22.37
		c0.98-3.91,4.32-8.07,7.87-12.48c2.01-2.5,4.09-5.09,4.91-6.72c1.37-2.74,0.28-5.73,0.27-5.75c-1.06-2.55,0.14-5.48,2.69-6.54
		c2.55-1.06,5.48,0.14,6.54,2.69c0.3,0.72,2.85,7.27-0.56,14.07c-1.29,2.59-3.61,5.46-6.05,8.51c-2.2,2.73-5.51,6.86-5.96,8.64
		c-0.48,1.92-1.72,8.55,2.54,13.16c2.95,3.2,12.48,14.43,11.2,24.67c-0.73,5.85-4.01,9.5-6.91,12.71c-1.38,1.53-2.67,2.97-3.76,4.65
		c-3.06,4.76-4.21,11.64-4.22,11.71C268.22,372.29,266.1,374.05,263.68,374.05z"/>
	<path class="st0" d="M312.01,374.05c-0.26,0-0.52-0.02-0.79-0.06c-2.73-0.43-4.59-2.99-4.16-5.72c0.06-0.36,1.45-8.96,5.69-15.56
		c1.52-2.37,3.23-4.26,4.74-5.94c2.6-2.89,4.09-4.65,4.42-7.26c0.47-3.78-3.08-10.63-8.63-16.64c-7.66-8.29-5.68-19.22-4.89-22.37
		c0.98-3.91,4.32-8.07,7.87-12.48c2.01-2.5,4.09-5.09,4.91-6.72c1.37-2.74,0.28-5.73,0.27-5.75c-1.06-2.55,0.14-5.48,2.69-6.54
		c2.55-1.06,5.48,0.14,6.54,2.69c0.3,0.72,2.85,7.27-0.56,14.07c-1.29,2.59-3.61,5.46-6.05,8.51c-2.2,2.73-5.51,6.86-5.96,8.64
		c-0.48,1.92-1.72,8.55,2.54,13.16c2.95,3.2,12.48,14.43,11.2,24.67c-0.73,5.85-4.01,9.5-6.91,12.71c-1.38,1.53-2.67,2.97-3.76,4.65
		c-3.06,4.76-4.21,11.64-4.22,11.71C316.55,372.29,314.43,374.05,312.01,374.05z"/>
	<path class="st0" d="M354.14,374.05c-0.26,0-0.52-0.02-0.79-0.06c-2.73-0.43-4.59-2.99-4.16-5.72c0.06-0.36,1.45-8.96,5.69-15.56
		c1.52-2.37,3.23-4.26,4.74-5.94c2.6-2.89,4.09-4.65,4.42-7.26c0.47-3.78-3.08-10.63-8.63-16.64c-7.66-8.29-5.68-19.22-4.89-22.37
		c0.98-3.91,4.32-8.07,7.87-12.48c2.01-2.5,4.09-5.09,4.91-6.72c1.37-2.74,0.28-5.73,0.27-5.75c-1.06-2.55,0.14-5.48,2.69-6.54
		c2.55-1.06,5.48,0.14,6.54,2.69c0.3,0.72,2.85,7.27-0.56,14.07c-1.29,2.59-3.61,5.46-6.05,8.51c-2.2,2.73-5.51,6.86-5.96,8.64
		c-0.48,1.92-1.72,8.55,2.54,13.16c2.95,3.2,12.48,14.43,11.2,24.67c-0.73,5.85-4.01,9.5-6.91,12.71c-1.38,1.53-2.67,2.97-3.76,4.65
		c-3.06,4.76-4.21,11.64-4.22,11.71C358.69,372.29,356.56,374.05,354.14,374.05z"/>
	<path class="st0" d="M347.53,251.36c-2.76,0-5-2.24-5-5c0-0.78,0.02-1.77,0.04-2.91c0.09-5.37,0.31-17.95-1.99-22.53
		c-2.54-5.07-9.04-7.98-17.83-7.98h-79.31c-2.76,0-5-2.24-5-5s2.24-5,5-5h79.31c12.73,0,22.49,4.92,26.78,13.5
		c3.13,6.25,3.21,17.31,3.04,27.17c-0.02,1.08-0.03,2-0.03,2.74C352.53,249.13,350.29,251.36,347.53,251.36z"/>
	<path class="st0" d="M357.44,79.94H72.01c-2.76,0-5-2.24-5-5s2.24-5,5-5h285.44c2.76,0,5,2.24,5,5S360.2,79.94,357.44,79.94z"/>
	<path class="st0" d="M356.62,107.2H73.24c-2.76,0-5-2.24-5-5s2.24-5,5-5h283.37c2.76,0,5,2.24,5,5S359.38,107.2,356.62,107.2z"/>
	<circle class="st0" cx="354.76" cy="180.07" r="7.23"/>
	<circle class="st0" cx="382.85" cy="180.07" r="7.23"/>
	<path class="st0" d="M352.49,135.29H65.4c-5.44,0-23.18-2.09-23.18-28.96c0-17.22,1.23-58.8,1.24-59.22
		c0.08-2.76,2.41-4.95,5.15-4.85c2.76,0.08,4.93,2.39,4.85,5.15c-0.01,0.42-1.24,41.85-1.24,58.92c0,8.65,2.29,18.96,13.18,18.96
		h287.09c22.54,0,24.33-6.43,24.33-14.83V49.33c0-2.76,2.24-5,5-5s5,2.24,5,5v61.14C386.81,132.34,369.46,135.29,352.49,135.29z"/>
	<path class="st0" d="M124.05,274.91c-2.76,0-5-2.24-5-5v-79.72c0-2.76,2.24-5,5-5s5,2.24,5,5v79.72
		C129.05,272.67,126.81,274.91,124.05,274.91z"/>
	<path class="st0" d="M171.15,339.76c-1.54,0-3.05-0.71-4.03-2.04l-47.92-65.27c-1.63-2.23-1.15-5.36,1.07-6.99
		c2.23-1.63,5.36-1.16,6.99,1.07l47.92,65.27c1.63,2.23,1.15,5.36-1.07,6.99C173.21,339.45,172.18,339.76,171.15,339.76z"/>
	<path class="st0" d="M124.47,276.15c-2.09,0-4.03-1.32-4.74-3.41c-0.88-2.62,0.53-5.45,3.14-6.33l78.48-26.44
		c2.62-0.89,5.45,0.53,6.33,3.14c0.88,2.62-0.53,5.45-3.14,6.33l-78.48,26.44C125.53,276.07,124.99,276.15,124.47,276.15z"/>
	<path class="st0" d="M134.79,278.63c-0.5,0-1.01-0.08-1.51-0.23l-91.29-28.92c-2.63-0.83-4.09-3.64-3.26-6.28
		c0.83-2.63,3.64-4.09,6.28-3.26l91.29,28.92c2.63,0.83,4.09,3.64,3.26,6.28C138.89,277.27,136.92,278.63,134.79,278.63z"/>
	<path class="st0" d="M78.2,339.35c-1.02,0-2.05-0.31-2.94-0.96c-2.23-1.63-2.72-4.75-1.1-6.99l45.44-62.38
		c1.63-2.23,4.75-2.72,6.99-1.1c2.23,1.63,2.72,4.75,1.1,6.99L82.24,337.3C81.26,338.64,79.74,339.35,78.2,339.35z"/>
	<path class="st0" d="M83.99,259.63c-1.8,0-3.54-0.97-4.43-2.68L62.21,223.9c-1.28-2.45-0.34-5.47,2.1-6.75
		c2.45-1.29,5.47-0.34,6.75,2.1l17.35,33.05c1.28,2.45,0.34,5.47-2.1,6.75C85.57,259.44,84.77,259.63,83.99,259.63z"/>
	<path class="st0" d="M50.53,281.93c-1.8,0-3.53-0.97-4.43-2.67c-1.29-2.44-0.35-5.47,2.09-6.76l37.59-19.83
		c2.44-1.29,5.47-0.35,6.76,2.09c1.29,2.44,0.35,5.47-2.09,6.76l-37.59,19.83C52.11,281.75,51.32,281.93,50.53,281.93z"/>
	<path class="st0" d="M120.33,232.78c-1.24,0-2.48-0.46-3.45-1.38l-25.61-24.37c-2-1.9-2.08-5.07-0.18-7.07
		c1.9-2,5.07-2.08,7.07-0.18l25.61,24.37c2,1.9,2.08,5.07,0.18,7.07C122.97,232.26,121.66,232.78,120.33,232.78z"/>
	<path class="st0" d="M126.53,232.78c-1.33,0-2.66-0.53-3.65-1.58c-1.89-2.01-1.79-5.18,0.23-7.07l26.44-24.78
		c2.01-1.89,5.18-1.79,7.07,0.23c1.89,2.01,1.79,5.18-0.23,7.07l-26.44,24.78C128.99,232.33,127.76,232.78,126.53,232.78z"/>
	<path class="st0" d="M162.88,261.69c-0.74,0-1.48-0.16-2.19-0.51c-2.48-1.21-3.51-4.21-2.3-6.69l16.94-34.7
		c1.21-2.48,4.2-3.51,6.69-2.3c2.48,1.21,3.51,4.21,2.3,6.69l-16.94,34.7C166.51,260.66,164.73,261.69,162.88,261.69z"/>
	<path class="st0" d="M198.4,282.35c-0.75,0-1.51-0.17-2.23-0.53l-33.05-16.52c-2.47-1.23-3.47-4.24-2.24-6.71
		c1.23-2.47,4.24-3.47,6.71-2.24l33.05,16.52c2.47,1.23,3.47,4.24,2.24,6.71C202,281.33,200.24,282.35,198.4,282.35z"/>
	<path class="st0" d="M141.41,347.61c-0.27,0-0.54-0.02-0.81-0.07c-2.73-0.44-4.58-3.01-4.13-5.74l5.78-35.53
		c0.44-2.72,3.02-4.58,5.74-4.13c2.73,0.44,4.58,3.01,4.13,5.74l-5.78,35.53C145.94,345.87,143.82,347.61,141.41,347.61z"/>
	<path class="st0" d="M188.91,314.15c-0.22,0-0.45-0.02-0.67-0.05l-36.76-4.96c-2.74-0.37-4.66-2.89-4.29-5.62
		c0.37-2.74,2.89-4.65,5.62-4.29l36.76,4.96c2.74,0.37,4.66,2.89,4.29,5.62C193.52,312.33,191.38,314.15,188.91,314.15z"/>
	<path class="st0" d="M57.54,314.15c-2.48,0-4.64-1.85-4.96-4.38c-0.34-2.74,1.6-5.24,4.34-5.58l42.96-5.37
		c2.74-0.35,5.24,1.6,5.58,4.34c0.34,2.74-1.6,5.24-4.34,5.58l-42.96,5.37C57.96,314.14,57.75,314.15,57.54,314.15z"/>
	<path class="st0" d="M107.94,348.85c-2.33,0-4.41-1.63-4.89-4l-7.85-38.42c-0.55-2.71,1.19-5.35,3.9-5.9
		c2.71-0.55,5.35,1.19,5.9,3.9l7.85,38.42c0.55,2.71-1.19,5.35-3.9,5.9C108.61,348.82,108.27,348.85,107.94,348.85z"/>
	<path class="st0" d="M124.47,385.62c-64.26,0-116.53-52.83-116.53-117.77c0-64.94,52.28-117.77,116.53-117.77
		S241,202.91,241,267.84C241,332.78,188.72,385.62,124.47,385.62z M124.47,160.07c-58.74,0-106.53,48.35-106.53,107.77
		s47.79,107.77,106.53,107.77c58.74,0,106.53-48.35,106.53-107.77S183.21,160.07,124.47,160.07z"/>
</g>
</svg>
