<?xml version="1.0" encoding="utf-8"?>
<!-- Generator: Adobe Illustrator 23.0.0, SVG Export Plug-In . SVG Version: 6.00 Build 0)  -->
<svg version="1.1" id="Capa_1" xmlns="http://www.w3.org/2000/svg" xmlns:xlink="http://www.w3.org/1999/xlink" x="0px" y="0px"
	 viewBox="0 0 425.2 425.2" style="enable-background:new 0 0 425.2 425.2;" xml:space="preserve">
<style type="text/css">
	.st0{fill:none;stroke:#FFFAD2;stroke-width:10;stroke-miterlimit:10;}
</style>
<g>
	<path class="st0" d="M8.49,337.28h412c0,0-0.72,13.83-9.11,20.64c-9.22,7.49-14.42,7.49-31.35,7.49c-26.38,0-296.2,0-311.85,0
		s-38.23,3-50.47-7.49C9.27,350.69,8.49,337.28,8.49,337.28z"/>
	<line class="st0" x1="207.33" y1="196.79" x2="135.91" y2="267.37"/>
	<line class="st0" x1="129.54" y1="217.1" x2="157.37" y2="189.46"/>
	<line class="st0" x1="179.17" y1="280.02" x2="207.33" y2="253.05"/>
	<path class="st0" d="M37.32,336.61V196.79c0,0-28.17-3.99-28.17-32.29c0-25.41,12.07-39.62,34.54-39.62c21.8,0,178.39,0,190.46,0
		s34.54-0.67,41.24,8.99c6.71,9.65,10.4,14.98,10.06,28.3c-0.29,11.39-5.7,24.64-15.76,29.63c-8.82,4.38-12.07,4.66-12.07,4.66
		v26.63"/>
	<path class="st0" d="M86.28,335.95V196.46c0,0-27.83-2.33-27.83-33.96c0-24.64,15.09-33.62,26.16-36.62"/>
	<path class="st0" d="M235.33,224.75l142.68-1.33c0,0,1.68,60.92-2.68,74.91c-3.28,10.53-13.08,24.64-25.15,31.29
		c-12.07,6.66-65.05,6.66-73.1,4.99s-25.29-8.92-34.54-26.63c-9.39-17.98-7.04-39.28-7.04-55.93
		C235.5,233.08,235.33,224.75,235.33,224.75z"/>
	<path class="st0" d="M378.35,238.07c0,0,12.07,0,21.8,0s18.78,6.99,19.78,18.98s1.01,35.95-16.43,37.62
		c-13.12,1.25-27.16,0-27.16,0"/>
	<path class="st0" d="M324.03,151.18c0,0-0.67,4.99-2.68,9.32c-2.01,4.33-4.36,8.99-1.34,13.32s3.69,7.99,1.68,13.65
		c-2.01,5.66-3.02,8.99-3.02,8.99"/>
	<path class="st0" d="M366.61,151.18c0,0-0.67,4.99-2.68,9.32c-2.01,4.33-4.36,8.99-1.34,13.32s3.69,7.99,1.68,13.65
		c-2.01,5.66-3.02,8.99-3.02,8.99"/>
</g>
</svg>
