<?xml version="1.0" encoding="utf-8"?>
<!-- Generator: Adobe Illustrator 23.0.0, SVG Export Plug-In . SVG Version: 6.00 Build 0)  -->
<svg version="1.1" id="Capa_1" xmlns="http://www.w3.org/2000/svg" xmlns:xlink="http://www.w3.org/1999/xlink" x="0px" y="0px"
	 viewBox="0 0 425.2 425.2" style="enable-background:new 0 0 425.2 425.2;" xml:space="preserve">
<style type="text/css">
	.st0{fill:#FFFAD2;}
</style>
<g>
	<path class="st0" d="M124.27,410.61c-13.26,0-29.14-0.08-48.2-0.26c-6.89-0.06-12.34-0.11-15.26-0.11H28.64
		c-9.45,0-19.56-5.58-19.56-21.24V37.43c0-16.31,8.88-27.42,23.76-29.73c10.62-1.65,55.64-1.04,97-0.34
		c9.46,0.16,16.94,0.29,20.2,0.29c1.99,0,4-0.03,6-0.05c13.4-0.19,26.06-0.36,33.02,7.04l0.61,0.64c7.28,7.68,9.37,11.75,9.37,53.62
		v286.83l0.01,6.83c0.04,27.62,0.05,39.06-6.41,44.3C190,409.01,182.67,410.61,124.27,410.61z M66.81,16.76
		c-15.26,0-27.87,0.24-32.41,0.94c-12.56,1.95-15.2,11.8-15.2,19.73v351.56c0,7.59,3,11.13,9.44,11.13H60.8
		c2.97,0,8.43,0.05,15.35,0.11c25.07,0.23,100.42,0.93,110.46-1.6c2.36-3.18,2.35-17.78,2.32-36.06l-0.01-6.85V68.9
		c0-39.7-1.8-41.6-6.6-46.66l-0.63-0.67c-3.91-4.15-14.89-4-25.51-3.86c-2.05,0.03-4.1,0.06-6.14,0.06
		c-3.35,0-10.86-0.13-20.37-0.29C112.71,17.19,87.35,16.76,66.81,16.76z M187.12,398.48L187.12,398.48L187.12,398.48z"/>
	<path class="st0" d="M156.57,244.79H15.47c-2.79,0-5.06-2.26-5.06-5.06c0-2.79,2.27-5.06,5.06-5.06h141.1
		c2.79,0,5.06,2.26,5.06,5.06C161.63,242.53,159.36,244.79,156.57,244.79z"/>
	<path class="st0" d="M193.54,244.79h-13.33c-2.79,0-5.06-2.26-5.06-5.06c0-2.79,2.27-5.06,5.06-5.06h13.33
		c2.79,0,5.06,2.26,5.06,5.06C198.6,242.53,196.33,244.79,193.54,244.79z"/>
	<path class="st0" d="M16.57,327.85c-2.76,0-5.02-2.22-5.06-4.98c-0.04-2.79,2.19-5.09,4.98-5.13c0.57-0.01,13.08-0.19,18.32-0.22
		c0.23-1.49,0.23-4.16,0.23-6.23v-0.42c0-3.48,0.07-12.03,0.13-20.29c0.06-7.38,0.11-14.41,0.11-16.97c0-2.2-0.52-2.73-2.67-2.73
		H14.75c-2.79,0-5.06-2.26-5.06-5.06s2.27-5.06,5.06-5.06h17.88c7.77,0,12.79,5.04,12.79,12.85c0,2.57-0.06,9.63-0.11,17.05
		c-0.06,8.25-0.13,16.77-0.13,20.21v0.42c0,3.57,0,6.65-0.67,9.3c-1.63,6.36-6.51,7.05-8.53,7.05c-4.16,0-19.17,0.22-19.32,0.22
		C16.62,327.85,16.59,327.85,16.57,327.85z"/>
	<path class="st0" d="M14.67,219.73c-2.7,0-4.95-2.14-5.05-4.86c-0.11-2.79,2.07-5.14,4.86-5.25c0.25-0.01,6.03-0.23,9.03-0.11
		c4.05,0.16,8.64-0.03,10.86-0.4c0.49-2.23,0.92-7.11,0.92-12.86c0-0.86,0.02-2.54,0.04-4.74c0.07-5.99,0.26-23.06-0.13-28.42
		c-1.07-0.29-3.45-0.67-8.49-0.67c-7.65,0-12.43-0.22-12.62-0.23c-2.79-0.13-4.95-2.5-4.82-5.29c0.13-2.79,2.5-4.93,5.29-4.82
		c0.05,0,4.76,0.22,12.15,0.22c7.29,0,15.27,0.46,17.79,6c0.81,1.77,1.29,4.33,0.95,33.33c-0.02,2.14-0.04,3.79-0.04,4.62
		c0,17.17-2.71,19.54-4.01,20.67c-0.93,0.81-3.75,3.28-18.3,2.7c-2.17-0.09-6.69,0.05-8.24,0.11
		C14.8,219.73,14.74,219.73,14.67,219.73z M35.41,208.84L35.41,208.84L35.41,208.84z M35.99,163.37H36H35.99z M35.06,161.81
		C35.06,161.81,35.06,161.81,35.06,161.81C35.06,161.81,35.06,161.81,35.06,161.81L35.06,161.81z M35.06,161.81L35.06,161.81
		L35.06,161.81z"/>
	<path class="st0" d="M231.04,302.04h-36.89c-2.79,0-5.06-2.26-5.06-5.06c0-2.79,2.27-5.06,5.06-5.06h36.89
		c2.79,0,5.06,2.26,5.06,5.06C236.1,299.77,233.83,302.04,231.04,302.04z"/>
	<path class="st0" d="M246.11,410.68c-5.77,0-13.36-2.18-16.75-12.58c-1.95-6-1.95-13.18-1.95-18.95V211.11
		c0-8.25,0.31-16.04,4.02-20.58c4.89-5.99,10.88-6.95,23.31-6.95h127.12c1.76,0,2.69-0.02,3.81-0.05c1.78-0.04,4-0.1,10.28-0.1
		c22.33,0,22.33,18.01,22.33,29.94c0,5.52,0.03,31.84,0.06,61.93c0.04,40.13,0.09,86.96,0.09,100.07c0,1.2,0.01,2.41,0.02,3.61
		c0.07,8.03,0.13,15.62-2.47,21.16c-2.16,4.61-7.18,10.11-18.83,10.11H285.36c-7.38,0-14.83,0.13-22.03,0.25
		C257.08,410.58,251.19,410.68,246.11,410.68z M254.75,193.69c-12.83,0-13.88,1.29-15.47,3.24c-1.74,2.13-1.74,10.89-1.74,14.18
		v168.05c0,5.06,0,11.35,1.45,15.82c1.31,4.02,3.31,5.59,7.12,5.59c4.99,0,10.84-0.1,17.04-0.2c7.24-0.12,14.74-0.25,22.2-0.25
		h111.82c7.66,0,9.17-3.22,9.66-4.28c1.62-3.46,1.57-10.24,1.51-16.79c-0.01-1.23-0.02-2.47-0.02-3.69
		c0-13.1-0.05-59.93-0.09-100.06c-0.03-30.09-0.06-56.41-0.06-61.94c0-14.68-1-19.82-12.21-19.82c-6.16,0-8.31,0.05-10.03,0.1
		c-1.2,0.03-2.19,0.05-4.06,0.05H254.75z"/>
	<path class="st0" d="M410.13,245.02H233.99c-2.79,0-5.06-2.26-5.06-5.06c0-2.79,2.26-5.06,5.06-5.06h176.14
		c2.79,0,5.06,2.26,5.06,5.06C415.19,242.75,412.93,245.02,410.13,245.02z"/>
	<path class="st0" d="M388.09,219.84H367.4c-2.79,0-5.06-2.26-5.06-5.06s2.26-5.06,5.06-5.06h20.68c2.79,0,5.06,2.26,5.06,5.06
		S390.88,219.84,388.09,219.84z"/>
	<path class="st0" d="M258.08,244.57c-2.79,0-5.06-2.26-5.06-5.06v-23.75c0-1.44,0.57-2.8,1.61-3.82c2.31-2.29,5.88-2.36,17.94-2.24
		c1.78,0.02,3.57,0.03,5.29,0.03h15.68c8.92,0,8.92,8.74,8.92,12.03v16.41c0,2.79-2.26,5.06-5.06,5.06c-2.79,0-5.06-2.26-5.06-5.06
		v-16.41c0-0.82-0.03-1.44-0.06-1.91h-14.42c-1.75,0-3.58-0.02-5.39-0.03c-2.84-0.03-6.65-0.06-9.33,0.03v19.68
		C263.14,242.3,260.88,244.57,258.08,244.57z"/>
	<path class="st0" d="M322.97,378.76c-31.42,0-56.99-25.31-56.99-56.42s25.57-56.42,56.99-56.42s56.99,25.31,56.99,56.42
		S354.4,378.76,322.97,378.76z M322.97,276.04c-25.85,0-46.87,20.77-46.87,46.3c0,25.53,21.03,46.3,46.87,46.3
		c25.85,0,46.87-20.77,46.87-46.3C369.84,296.81,348.82,276.04,322.97,276.04z"/>
	<path class="st0" d="M335.81,243.67c-9.56,0-17.33-7.71-17.33-17.2c0-9.48,7.78-17.2,17.33-17.2c9.56,0,17.33,7.71,17.33,17.2
		C353.14,235.95,345.37,243.67,335.81,243.67z M335.81,219.39c-3.98,0-7.21,3.18-7.21,7.08c0,3.9,3.24,7.08,7.21,7.08
		s7.21-3.18,7.21-7.08C343.03,222.57,339.79,219.39,335.81,219.39z"/>
	<path class="st0" d="M323.2,352.91c-16.89,0-30.63-13.61-30.63-30.35s13.74-30.35,30.63-30.35c2.79,0,5.06,2.26,5.06,5.06
		c0,2.79-2.26,5.06-5.06,5.06c-11.31,0-20.51,9.07-20.51,20.23s9.2,20.23,20.51,20.23c11.31,0,20.51-9.07,20.51-20.23
		c0-2.79,2.26-5.06,5.06-5.06c2.79,0,5.06,2.26,5.06,5.06C353.83,339.3,340.09,352.91,323.2,352.91z"/>
	<path class="st0" d="M378.91,119.23c-0.54,0-1.05,0-1.53-0.01l-1.11-0.01H265.36c-16.63,0-25.06-8.46-25.06-25.14V26.64
		c0-14.57,8.93-19.75,16.58-19.75h130c5.03,0,9.06,1.49,11.99,4.43c5.54,5.55,5.52,14.35,5.5,22.87l0,1.44v60.24
		c0,7.38-2.05,13.15-6.08,17.15C392.47,118.78,384.41,119.23,378.91,119.23z M256.87,17.01c-5.34,0-6.46,5.23-6.46,9.63v67.44
		c0,11.09,3.91,15.02,14.94,15.02l112.11,0.01c4.1,0.03,10.31,0.09,13.69-3.26c2.05-2.03,3.09-5.38,3.09-9.97l0-61.71
		c0.01-6.15,0.03-13.12-2.54-15.7c-0.36-0.36-1.45-1.45-4.83-1.45H256.87z"/>
	<path class="st0" d="M361.72,116.21c-2.79,0-5.06-2.27-5.06-5.06V12.25c0-2.79,2.26-5.06,5.06-5.06c2.79,0,5.06,2.27,5.06,5.06
		v98.91C366.78,113.95,364.52,116.21,361.72,116.21z"/>
	<path class="st0" d="M398.39,55.07h-35.76c-2.79,0-5.06-2.27-5.06-5.06c0-2.79,2.26-5.06,5.06-5.06h35.76
		c2.79,0,5.06,2.27,5.06,5.06C403.45,52.81,401.18,55.07,398.39,55.07z"/>
	<path class="st0" d="M335.05,91.34h-63.94c-2.79,0-5.06-2.27-5.06-5.06c0,0,0-12.3,0.04-24.59c0.02-6.16,0.05-12.31,0.09-16.93
		c0.02-2.33,0.05-4.27,0.08-5.63c0.02-0.73,0.03-1.3,0.05-1.68c0.25-5.32,4.91-5.38,5.11-5.38h63.64c2.79,0,5.06,2.27,5.06,5.06
		v49.15C340.11,89.07,337.85,91.34,335.05,91.34z M276.18,81.22H330V42.19h-53.67C276.23,50.33,276.19,67.69,276.18,81.22z"/>
	<path class="st0" d="M322.18,190.84c-2.79,0-5.06-2.27-5.06-5.06v-70.13c0-2.79,2.26-5.06,5.06-5.06c2.79,0,5.06,2.27,5.06,5.06
		v70.13C327.23,188.58,324.97,190.84,322.18,190.84z"/>
	<path class="st0" d="M244.45,66.46h-48.79c-2.79,0-5.06-2.27-5.06-5.06c0-2.79,2.27-5.06,5.06-5.06h48.79
		c2.79,0,5.06,2.27,5.06,5.06C249.51,64.2,247.24,66.46,244.45,66.46z"/>
</g>
</svg>
