<?xml version="1.0" encoding="utf-8"?>
<!-- Generator: Adobe Illustrator 23.0.0, SVG Export Plug-In . SVG Version: 6.00 Build 0)  -->
<svg version="1.1" id="Capa_1" xmlns="http://www.w3.org/2000/svg" xmlns:xlink="http://www.w3.org/1999/xlink" x="0px" y="0px"
	 viewBox="0 0 255.12 255.12" style="enable-background:new 0 0 255.12 255.12;" xml:space="preserve">
<style type="text/css">
	.st0{fill:#4E4D4D;}
	.st1{fill-rule:evenodd;clip-rule:evenodd;fill:#FDF1EC;}
</style>
<rect x="-0.13" y="-0.7" class="st0" width="255.69" height="255.78"/>
<path class="st1" d="M53.23,202.91c7.07-5.85,14.31-11.99,21.6-18l2.29-11.55c-0.57-8.77-0.88-15.61-2.71-24.29
	c-0.05-0.22-0.09-0.43-0.13-0.63l0.07-0.21l0.31-2.13c1.78,4.36,3.22,10.19,4.05,13.77c2.72,11.74,2.92,12.18,2.34,19.95
	c3.85-3.1,7.71-6.14,11.55-9.04c5.48-4.13,2.17-1.14,8.66-7.81c4.88-5.01,9.73-9.83,14.7-14.78c0.81-1.12,1.86-2.61,3-4.21
	c0.41-2.73,2.62-11.67,2.85-12.67l1.82-15.19l-0.68-8.11c0.36-0.58,0.74-1.1,1.14-1.39l0.83-1.05l0.28,0.14
	c0.3,3.56,0.51,7.08,0.58,10.36c0.01,0.29-2.02,15.27-2.09,15.6l-2.12,8.67c1.47-2.01,2.9-3.87,3.99-5.05
	c3.1-3.37,5.53-6.29,8.17-10c-1.35,2.18-2.52,3.99-4.05,6.07c-3.37,4.61-3.81,4.89-6.16,8.49c10.13-8.77,17.9-13.13,32.21-18.39
	l7.63-3.05l1.33,0.42l-0.02,0.05l-8.52,3.54c-25.55,9.81-28.47,15.38-43.23,32.12l-4.51,5.12l0.02-0.02
	c-2.55,2.99-7.72,9.54-10.5,11.92c-3.66,3.12-7.29,6.35-10.9,9.63c5.37-2.1,10.99-4.22,12.89-4.61c6.91-1.39,13.24-2.69,20.1-4.41
	c1.99-0.5,6.46-0.07,9.13-0.34c0.24-0.02,0.47-0.05,0.68-0.07c0.09-0.07,0.19-0.12,0.3-0.15c6.34-1.95,9.61-6.06,12.83-11.37
	c0.17-0.28,0.35-0.67,0.54-1.13c-1.67-1.44-1.86-3.72-1.87-5.2c1.18-0.74,1.27-5.07,2.78-4.64c2.61,0.68,3.23,3.15,2.98,5.48
	c-0.22,2.11-1.09,4.11-3.36,4.61c-0.16,0.47-0.31,0.87-0.47,1.17c-1.89,3.66-3.92,6.78-6.78,9.2c1.54-0.39,3.09-0.64,5.2-0.79
	c3.73-0.27,9.52-4.65,14.04-9.07c-2.82-3.98,2.59-9.99,7.12-7.53c2.5,1.36-0.71,4.45-1.46,5.15c-1.08,1.02-2.85,2.46-5.03,2.43
	c-4.48,4.86-10.46,9.77-14.73,10.28c-1.67,0.2-3.02,0.48-4.32,0.86c8.79,0.41,17.98,0.74,26.78-0.78c5.31-0.91,6.95-1.06,9.16-2.02
	c1.68-0.85,1.69-2.39,1.58-3.16c0.53,0.58,1.04,1.03,1.48,1.26c0.05,0.25,0.2,0.89,0.5,1.72c-1.05-0.31-1.98-0.11-2.6,0.13
	l0.05-0.02c-0.3,0.16-0.58,0.31-0.86,0.44l0,0l0,0h0l0,0h0l-0.15-0.37l0.15,0.37c-2.19,1.04-3.89,1.28-9.15,2.38
	c-5.3,1.12-9.66,1.57-14.13,1.7c5.55,1.17,10.89,2.89,16.21,5.07l0,0l0.01,0l0,0c0.17,0.07,0.35,0.14,0.52,0.22l-0.01,0l0.01,0
	c1.12,0.37,1.92,0.03,2.39-0.34c-0.29,0.76-0.45,1.31-0.48,1.44c-0.06,0.11-0.34,0.68-0.62,1.53c-0.57-1.73-2.02-2.49-2.1-2.53
	c-7.2-2.71-14.39-4.58-22.08-5.39c-0.66-0.01-1.33-0.03-2.02-0.04c1,0.47,1.97,1.05,2.91,1.8c4.14,3.27,8.15,5.09,12.87,7.74
	c2.23-0.93,4.58,0.07,6.03,0.81c0.06,0.79,1.44,1.85,2.35,2.81l0.05,0.02l-0.05-0.02c0.64,0.68,1.04,1.3,0.57,1.74
	c-3.52,3.48-10.21-0.51-9.16-4.94c-1.26-0.54-6.48-3.31-7.7-3.84c-7.47-3.19-5.23-5.09-14.8-6.3c-0.14-0.02-0.27-0.07-0.39-0.14
	c-1.72,0.17-3.76,0.69-5.59,0.93c-1.46,0.19-7.92,0.21-8.75,0.53c-4.6,1.73-14.81,3.8-20.1,5.02c-2.64,0.61-13.49,5.31-19.49,7.91
	c-7.5,7-15.09,14.32-22.62,21.42c-1.53,1.36-3.93,1.27-5.35-0.19C51.61,206.55,51.7,204.27,53.23,202.91L53.23,202.91z
	 M190.84,152.24c0.44,0.11,0.7-0.09,0.85-0.23c-0.13-0.23,0.27-0.65-0.02-0.81c-0.05-0.03-0.1-0.05-0.15-0.08l0.1-0.17
	c0.54,0.1,1.08,0.17,1.59,0.2l-1.48-1.86c2.45-0.19,5.68,1.41,10.16,0.5c-0.06-0.05-0.78-0.4-0.81-0.43l-0.77-0.75
	c2.1-2.18,3.91,1.09,9.11-2c1.56-0.93,6.45-3.94,7.34-5.1c-0.3-0.35-0.71-0.18-0.45-0.67c0.73-1.39,6.28-2.6,6.91-4.66
	c0.17-0.57-0.14-0.48-0.37-0.98c1.61-0.95,6.25-4.24,7.46-5.99c-1.08-0.08-0.64,0.1-1.97-0.05c0.82-1.4,3.28-5.14,3.75-6.44
	c0.26-0.73,0.16-0.98,0.68-1.9c-1.96,0.13-2.69,0.12-0.01-3.29c0.99-1.26,2.97-2.56,3.3-3.7l-7.75-6.47
	c-1.57-1.44-1.37-2.36-4.24-2.76l-5.36-0.42c-1.48,0-3.77-0.06-5.29-0.25c-2.52-0.32-13.15-0.2-14.99,1.34
	c0.5,1.13,1.7,2.31,3.07,3.31c4.52,3.32,3.6,3.41,6.55,3.24c0.69-0.04,1.77,0.02,2.5-0.01c1.24-0.05,3.21-0.72,4.47-0.47
	c-1.88,0.91-4.53,1.44-7.54,1.35c1.48,1.67,10.74,4.48,13.86,4.92c1.16,0.16,2.48-0.04,3.54,0.45l0.37,0.26
	c0.07-0.04,0.13,0.1,0.17,0.15c-1.65,1.15-6.39-0.48-8.2-0.9c-7.34-1.71-9.54-3.28-15.33-7.34c-1.11-0.78-2.06-1.57-2.83-2.43
	c-0.8-0.89-1.15-1.73-1.95-2.43c-2.63,0.78-4.34,0.92-7.77,2.07c-0.64,0.22-0.7,0.18-1.42,0.39c-1.32,0.39-2.58,0.62-2.28,0.99
	c0.44,0.48,6.9,4.31,8.01,4.84c1.5,0.72,6.21,0.23,8.87,1.06c-0.9,0.29-2.21,0.24-3.22,0.15c-1.41-0.13-1.92,0.23-2.64,0.18
	c4.26,2.61,12.28,5.19,17.33,6.11c2.2,0.4,9.71,1.65,11.39,1.25c1.49-0.35,2.13-0.8,3.09,0.43c-1.09,0.15-1.29,0.47-2.66,0.53
	c-1.22,0.05-1.87,0.1-2.95-0.05c-1.39-0.2-3.72-0.32-5.75-0.63c-4.89-0.74-8.55-2.29-13.12-3.2c1.5,1.47,5.1,3.78,7.4,4.87
	c-2.4,0.42-5.47-1.69-7.5-2.99c-2.4-1.54-2.59-3.14-5.35-4.4c-4.67-2.14-13.52-7.32-14.13-7.58c-1.14-0.48-5.39,1.14-5.32,2.06
	c0.04,0.53,1.22,1.92,1.82,2.47c0.85,0.78,1.86,1.33,2.88,1.97c2.81,1.75,3.26,2.86,6.83,3.12l7.16,0.86
	c-2.17,0.35-4.6,0.1-6.91,0.18c1.79,1.95,10.48,5.63,13.9,6.61c2.49,0.71,0.83,0.63,3.79,1c6.32,0.78,2.2,0.7,9.59,0.62
	c1.44-0.02,0.51,0.12,1.53,0.3c0.59,0.1,0.98-0.02,1.78,0.07c-2.81,1.71-11.75,0.5-14.86-0.55c-1.03-0.35-3.57-0.59-4.65-1.11
	c0.14,0.13,0.83,0.68,0.86,0.71c0.82,0.89,0.39-0.01,0.55,0.99c-2.96-0.49-4.14-2.66-6.4-4.15c-5.15-3.39-13.43-6.32-17.49-10.58
	c-0.81-0.85-1.33-1.89-1.91-2.35c-1.92,1.06-3.81,2.38-5.83,3.61c-1.06,0.65-2.09,1.34-2.97,1.89c-1.02,0.64-2.24,0.92-1.87,2.15
	c0.48,1.63,1.84,4.01,2.83,5.45c0.62,0.91,1.14,1.84,1.81,2.71c3.44,4.45,7.96,8.53,14.13,11.38c3.88,1.79,8.85,4,13.24,4.51
	c1.2,0.14,3.24-0.51,3.29,0.7c0.07,1.57-5.62-0.24-6.36-0.44c-10.51-2.84-11.04-4.69-19.47-9.48c-0.27,1.51,0.81,3.16,1.55,4.18
	c1.45,2,0.9,1.98,4.04,3.28c-1.97,0.24-4.13-1.3-5.47-3.22c-1.4-2.02-2.55-2.7-1.05-5.2c-3.3-3.96-4.03-2.99-7.6-9.58l-1.64-3.09
	c-0.89,1.03-1.33,3.8-1.46,5.14l-0.05,4.9c-0.01,1,1.31,3.13,1.73,4.45c0.43,1.36,1.4,2.83,2.31,4.05c0.59-0.2,0.83-0.61,1.23-1.03
	c2.06,1.07,2.94,8.13,9.74,10.58c-0.34-1.28-0.84-0.74-0.76-1.92c1.32-0.26,2.48,0.6,3.82,1.19c2.58,1.13,5.91,2.58,8.89,3.12
	l-0.11,0.16c-0.84-0.35-1.36,0.37-0.75,1.06c-1.57,2.14-3.25,4-5.09,5.69c0.01-0.02,0.02-0.04,0.03-0.06
	c0.81-1.92,1.23-2.95,1.43-3.46c0.13,0.04,0.3,0.04,0.5-0.01c0.74-0.74,0.09-1.57-0.87-1.03c-0.29,0.16,0.1,0.58-0.02,0.81
	c0.06,0.06,0.14,0.13,0.25,0.18c-0.26,0.45-0.15,0.26,0.01,0c0.01,0.01,0.03,0.01,0.05,0.02c-0.22,0.47-0.12,0.26,0.01,0
	c0.01,0,0.02,0.01,0.03,0.01c-0.25,0.51-0.78,1.5-1.76,3.33c-0.44,0.82-1.21,1.56-2.14,2.21c-0.39,1.39-0.82,1.98-1.69,2.76
	c0.22-0.18,0.44-0.37,0.66-0.55c4.09-1.73,9.31-3.89,10.89-5.86c0.44-0.54,0.42-1.09,0.15-1.6c0.08-0.05,0.15-0.11,0.2-0.16
	c-0.13-0.23,0.27-0.65-0.02-0.81c-0.96-0.54-1.6,0.29-0.87,1.03c0.28,0.08,0.49,0.04,0.65-0.04c0.35,0.74,0.02,1.29-0.86,2.01
	c-1.39,1.13-4.75,2.41-8.04,3.56C186.73,157.85,188.91,155.3,190.84,152.24L190.84,152.24z M196.19,168.75
	c0.47-0.13,0.74,0.07,0.89,0.22c-0.13,0.23,0.27,0.65-0.02,0.81c-0.75,0.43-1.31,0.01-1.16-0.55c-5.25-0.86,0.15-0.14-6.4-0.4
	c-1.68-0.07-3.51-0.32-5.34-0.63c0.12-0.03,0.24-0.06,0.36-0.1c0.48-0.13,0.88-0.29,1.22-0.48c1.3,0.3,2.58,0.54,3.77,0.68
	c6.59,0.76,1.15-0.38,6.41,0.89C195.95,169.05,196.04,168.9,196.19,168.75L196.19,168.75z M190.56,161.14
	c-0.11-0.11-0.19-0.22-0.24-0.33l-2.27,1.12c-1.22,0.67-2.13,1.3-3.03,1.8c-0.36-0.15-0.78-0.29-1.24-0.4
	c1.29-0.38,2.46-1.09,4.07-1.74l2.43-0.87c-0.21-0.59,0.37-1.05,1.14-0.61c0.29,0.16-0.1,0.58,0.02,0.81
	C191.3,161.06,191.03,161.27,190.56,161.14L190.56,161.14z M196.31,160.37c-0.34,0.1-0.58,0.01-0.74-0.1
	c-1.15,1.37-1.37,1.89-3.26,2.65c-1.95,0.78-3.73,1.6-5.53,2.2c-0.08-0.15-0.19-0.3-0.33-0.45c-0.08-0.09-0.18-0.18-0.28-0.26
	c2-0.45,3.96-1.2,6-1.84c1.88-0.59,2.13-1.09,3.35-2.33c-0.04-0.03-0.08-0.06-0.11-0.09c0.13-0.23-0.27-0.65,0.02-0.81
	C196.4,158.8,197.04,159.63,196.31,160.37L196.31,160.37z M183.4,193.42c0.71-0.72,0.13-1.51-0.77-1.08
	c-2.91-3.35,0.38,0.23-4.31-3.94c-1.21-1.07-2.42-2.39-3.59-3.76c-0.45-0.12-0.8-0.24-1.1-0.37c0.3,0.49,0.57,0.96,0.79,1.4
	c1.17,1.15,2.38,2.25,3.57,3.15c4.95,3.76,1.48,0.52,4.57,3.56l-0.02,0.01c-0.29,0.16,0.1,0.58-0.02,0.81
	C182.67,193.34,182.94,193.55,183.4,193.42L183.4,193.42z M190.61,176.34c0.74-0.74,0.09-1.57-0.87-1.03
	c-0.22,0.12-0.06,0.38-0.01,0.6c-2.75,0.94-5.4,1.54-8.08,1.89c0.02-0.01,0.04-0.02,0.06-0.04c1.7-1.01,2.66-1.59,3.17-1.92
	c0.16,0.14,0.42,0.3,0.84,0.18c0.4-0.41,0.39-0.84,0.14-1.06c3.2,0.35,2.38-1.8,2.43-2.89c0.06-1.29-3.09-4.16-11.42-5.85
	c0,0,1.17,6.66,6.84,8.28c0.55,0.16,1.04,0.27,1.46,0.35c-0.1,0.03-0.21,0.07-0.32,0.14c-0.24,0.13-0.01,0.44,0,0.67
	c-0.38,0.17-0.23,0.1,0,0.01c0,0.02,0,0.05,0,0.07c-0.29,0.16-0.19,0.11,0,0.01c0,0.01-0.01,0.03-0.01,0.04
	c-0.55,0.28-1.57,0.79-3.35,1.64c-1.39,0.67-3.32,0.69-5.25,0.45c-0.61,0.32-1.26,0.61-1.94,0.85c0.49,0.12,0.98,0.29,1.46,0.53
	c0.15-0.01,0.29-0.03,0.44-0.04c4.37,0.9,9.93,2.08,12.42,1.37c0.7-0.2,1.03-0.67,1.11-1.25c0.27-0.01,0.45-0.15,0.56-0.26
	c-0.13-0.23,0.27-0.65-0.02-0.81c-0.96-0.54-1.6,0.29-0.87,1.03c0.1,0.03,0.19,0.04,0.28,0.04c-0.16,0.82-0.77,1.09-1.94,1.18
	c-1.82,0.14-5.32-0.72-8.7-1.63c3.63-0.52,7.1-1.41,10.7-2.9c0,0.05,0,0.09-0.03,0.13C189.87,176.26,190.14,176.47,190.61,176.34
	L190.61,176.34z M184.71,183.48c-0.47,0.13-0.74-0.07-0.89-0.22c0.07-0.12-0.01-0.29-0.06-0.45l-2.68-0.38
	c-0.86-0.09-1.62-0.12-2.32-0.16c-0.1-0.23-0.22-0.47-0.39-0.72c0.84,0.15,1.74,0.27,2.76,0.49l2.61,0.69
	c-0.02-0.12-0.01-0.22,0.1-0.28C184.8,181.91,185.45,182.74,184.71,183.48L184.71,183.48z M188.18,184.49
	c0.47-0.13,0.74,0.07,0.89,0.22c-0.13,0.23,0.27,0.65-0.02,0.81c-0.55,0.31-1,0.17-1.14-0.15c-1.56,0.42-2.11,0.66-3.99,0.24
	c-1.92-0.43-3.74-0.75-5.45-1.22c0.15-0.14,0.27-0.3,0.35-0.48c0.03-0.07,0.06-0.14,0.08-0.21c1.65,0.58,3.39,1.02,5.12,1.56
	c1.78,0.55,2.33,0.35,3.86,0.05C187.82,185.08,187.9,184.78,188.18,184.49L188.18,184.49z M176.94,166.24
	c2.91-1.07,2.2-11.2-3.11-11.19C168.52,155.06,174.37,165.26,176.94,166.24L176.94,166.24z M178.64,164.32l-0.14,0.43l0,0l0,0l0,0
	l0,0l0,0.01l0,0l0,0l0,0l0,0l0,0l0,0l0,0l0,0l0,0l0,0l0,0l0,0l0,0l0,0l-0.01,0.02l0,0l0,0l0,0l0,0l0,0l0,0.01l0,0l-0.01,0.02l0,0
	l0,0c-0.2,0.52-0.47,0.95-0.81,1.25l0.07,0.02l0.03,0.01l0.03,0.01l0.12,0.03l0,0l0.15,0.03l0.01,0l0.03,0.01l0.12,0.03l0,0
	l0.12,0.03l0.03,0.01l0.1,0.02l0.06,0.01l0.02,0.01c0.09,0.02,0.18,0.04,0.27,0.06l0.02,0l0,0l0.12,0.03l0.03,0.01l0.09,0.02
	l0.06,0.01l0.02,0.01l0.1,0.03l0.02,0.01l0.03,0.01l0.11,0.03l0,0l0.12,0.03l0.02,0.01l0.09,0.02l0.01,0l0.08,0.02l0.02,0.01
	l0.08,0.02l0.03,0.01l0.11,0.03l0,0l0.11,0.03l0.02,0.01l0.09,0.03l0.05,0.01l0.02,0.01l0.08,0.02l0.07,0.02l0,0l0.1,0.03l0.01,0
	l0.11,0.03l0.02,0.01l0.09,0.03l0.01,0l0.08,0.02l0.04,0.01l0.08,0.02l0,0l0.1,0.03l0.01,0l0.1,0.03l0.02,0.01l0.04,0.01l0.08,0.03
	l0.01,0l0.06,0.02l0.03,0.01l0.07,0.02l0,0l0.09,0.03l0.01,0l0.1,0.03l0.02,0.01l0.08,0.03l0.01,0l0.19,0.07l0.09,0.03l0.01,0
	l0.1,0.03l0.02,0.01l0.08,0.03l0.01,0l0.18,0.06l0,0l0.08,0.03l0.01,0l0.09,0.03l0.02,0.01l0.08,0.03l0.04,0.01l0.05,0.02l0.01,0.01
	c0.17,0.07,0.34,0.13,0.51,0.2l0.08,0.03l0.01,0l0.08,0.04c0.08,0.03,0.17,0.07,0.25,0.1c0.21-0.05,0.43-0.11,0.65-0.17
	c3.44-0.94,2.91-3.56-1.1-4.34C181.43,163.14,179.82,163.67,178.64,164.32L178.64,164.32z M178.52,164.7l0.12-0.38
	C178.61,164.45,178.57,164.58,178.52,164.7L178.52,164.7z M178.21,158.29c2.85-3.32,5.69-2.91,4.89,0.65
	c-0.58,2.59-1.08,2.88-2.95,4.46l-0.02,0.01c-0.04,0.01-0.08,0.02-0.12,0.04l-0.02,0.01c-0.45,0.14-0.87,0.32-1.25,0.52l0,0l0,0
	l0-0.01l0,0l0,0l0-0.01l0,0l0,0l0,0l0,0l0,0l0,0l0,0l0,0l0,0l0,0l0,0l0,0l0,0l0-0.01l0,0l0,0l0,0l0,0l0,0l0,0l0,0l0,0l0,0l0,0l0,0
	l0,0l0,0l0,0l0,0l0,0l0,0l0,0l0,0l0,0l0,0l0,0l0,0l0,0l0,0l0,0l0,0l0,0l0,0l0,0l0,0l0-0.01l0,0l0,0l0,0l0,0l0,0l0,0l0,0l0,0l0,0
	c0.19-1.07,0.18-2.34-0.04-3.58l-0.01-0.06l0,0l-0.01-0.03l0-0.03l0,0L178.7,160l0-0.02l0-0.01l-0.01-0.03l0-0.02l0-0.01l-0.01-0.03
	l0-0.02l0-0.01l-0.01-0.03l0-0.02l0-0.01l-0.01-0.03l0-0.02l0-0.01l-0.01-0.03l0-0.02l0-0.01l-0.01-0.03l0-0.01l0-0.02l-0.01-0.03
	l0-0.01l0-0.02l-0.01-0.03l0-0.01l0-0.02l-0.01-0.03l0-0.01l-0.01-0.02l-0.01-0.03l0-0.01l-0.01-0.05l0,0l0-0.01l-0.01-0.02
	l-0.01-0.03l0,0l-0.01-0.03l-0.01-0.03l0,0l-0.01-0.03l-0.01-0.03v0l-0.01-0.03l-0.01-0.03l0,0l-0.01-0.03l-0.01-0.03l0,0
	l-0.01-0.03l-0.01-0.02l0-0.01l-0.01-0.03l-0.01-0.02l0-0.01l-0.01-0.03l-0.01-0.02l0-0.01l-0.02-0.05l0-0.01l-0.01-0.03l-0.01-0.02
	l0-0.01l-0.01-0.03l-0.01-0.01l0-0.01l-0.01-0.04l-0.01-0.02l-0.01-0.03l0-0.01l-0.01-0.02l-0.01-0.04l-0.01-0.02l-0.01-0.03l0-0.01
	l-0.01-0.02l-0.01-0.03l0-0.01l-0.01-0.02l-0.01-0.03l0,0l-0.01-0.02l-0.01-0.03l0,0L178.21,158.29L178.21,158.29z M178.52,164.72
	L178.52,164.72L178.52,164.72l0-0.01l0,0l0,0L178.52,164.72L178.52,164.72z M169.33,179.24c0,0-3.17,6.04,0.42,10.53
	c3.59,4.5,4.36,1.61,5.21,0.6C175.8,189.38,175.03,185.28,169.33,179.24c0,0,2.46-9.33,8.3-7.25
	C183.47,174.08,174.89,179.78,169.33,179.24L169.33,179.24z M173.8,178.91c-0.97,0.31-1.98,0.53-2.95,0.61l-0.04,0
	c-0.26,0.02-0.51,0.03-0.76,0.03l0,0l-0.07,0l0,0l0,0l0.05,0.05c1.4,1.53,2.48,2.94,3.3,4.19c0.48,0.3,1.12,0.51,2.19,0.75
	c3.49,0.79,4.36-1.74,1.27-4.29C175.86,179.48,174.81,179.09,173.8,178.91L173.8,178.91z M113.01,53.77
	c0.51-0.63,1.41-1.32,1.88-1.84c0.46-0.52,0.66-0.82,0.94-1.24l0.06-0.1c-0.48-0.63-0.47-2.02-0.68-2.97
	c-0.35-1.55-0.81-3.78-0.56-5.22c0.78,1.21,0.66,1.72,0.97,3.25c0.14,0.71,0.2,1.02,0.46,1.68c0.34,0.87,0.49,1.54,0.53,2.08
	c1.45-2.56,3.27-6.41,3.92-6.89c0.12,0.16,0.64-0.48,0.16,0.96l-2.72,4.94c-0.8,1.73-2.58,6.06-4.6,6.27
	c1.2,3.13,2.48,6.33,3.67,9.54c0.68-0.2,1.48-0.26,2.08-0.75c0.84-0.68,2.81-4.3,2.7-5.31c-0.02-0.15-2.56-3.66,0.12-8.37
	c0.86,0.99-1.42,5.03,0.56,7.16c1.45-2.25,3-7,4.22-8.71c0.45,0.9-0.15,1.41-0.64,2.28c-1.01,1.77-1.93,5.24-3.22,8.34
	c2.01-1.68,5.39-3.42,6.91-4.46c-0.81,1.72-1.83,1.87-3.14,3.08c-1.57,1.46-3.35,2.95-4.74,3.47c-1.16,2.21-2.61,3.91-4.56,4.08
	c1.51,4.17,2.78,8.25,3.36,11.97c1.48-0.29,2.76-1.08,3.61-1.88c0.43-0.4,1.88-2.09,1.73-2.98c-0.4-2.29-1.94-1.06-0.7-8l0.11,0.44
	c0.2,1.22-0.2,1.9,0.06,3.56c0.2,1.22,0.78,2.25,1.24,3.11c1.82-1.22,3.16-5.24,4.29-7.71c0.61-1.34,3.03-7.41,3.88-7.85
	c0.3,0.84-0.9,2.58-1.4,3.79c-0.57,1.38-1.1,2.47-1.53,4.01c2.25-0.59,3.32-2.14,4.56-3.48c-0.48,1.53-2.74,3.79-4.22,4.26
	c-1.38,0.43-1.22,0.29-1.86,2.25c-0.38,1.18-0.85,1.7-1.36,2.71c-0.97,1.9-1.83,3.69-2.99,5.15c0.85-0.05,1.89,0.06,2.89-0.44
	c1.19-0.6,1.19-1.15,2.22-1.6c-0.75,1.12-2,3.14-3.95,3.03c-0.97-0.05-1.5-0.08-1.87-0.17c-1.11,1.13-2.49,1.98-4.41,2.42
	c0.23,3.35,1.26,7.94,1.98,11.19c1.26-1.18,4.5-3.13,6.26-5.21c-0.08-0.7-1.57-6.24,1.81-7.7c-0.84,2.42-2.14,3.94-0.96,6.66
	c3.82-2.02,10.08-19.96,11.55-20.68c0.66,1.14-0.23,2.16-0.89,3.43l-4.82,10.35c1.45-0.84,3.45-2.9,4.54-4.16l3.9-4.67
	c-0.28,1.87-4.36,5.77-5.51,7.41c-0.45,0.64-0.6,1.12-1.14,1.61c-1.57,1.42-2.04,0.26-3.27,2.23c-1.49,2.39-4.78,7.33-7.17,9.01
	c-0.62,0.44-2.93,2.01-4.16,2.46c0.4,2.07,0.68,4.89,0.91,7.5c2.18-1.12,4.12-0.02,9.85-5.31l-0.12-0.26
	c-0.41-1.12,0.38-2.54,1.15-4.09c0.79-1.57,1.49-3.01,2.41-4.04c-0.54,2.26-2.27,4.79-2.8,7.59c1.48-0.75,4.06-4.44,5.1-5.77
	c0.69-0.89,1.15-1.11,1.85-1.99c1.92-2.42,3.76-5.32,4.45-8.32c0.37-1.6-0.23-0.86,0.81-1.16c0.77,1.3-2.1,5.98-2.86,7.21
	c-1.49,2.4-3.36,4.05-4.49,6.21c2.63-0.47,4.21-1.97,5.52-3.36c1.06-1.13,2.86-3.51,3.69-4.9c-0.32,2.11-4.4,7.26-6.6,8.56
	c-1.64,0.97-2.9,0.46-4.04,1.23c-1.48,0.99-7.98,9.64-13.85,9.01c0.21,2.43,0.38,4.61,0.58,5.76c1.63-0.22,5.54,0.99,9.73-2.02
	c1.85-1.54,3.78-3.7,5.35-5.1c0.89-0.8,1.82-1.29,2.8-2.15l5.54-4.93c1.71-1.44,1.84-2.13,2.97-2.48c-0.32,1.63-3.32,3.84-5.17,5.48
	l-5.86,4.87c-1.6,1.51-9.16,10.36-15.25,6.83l0.01,0.03c0.71,2.48,9.43,4.3,12.48,3.96c3.89-0.43,1.52-0.45,4.68-1.52
	c-0.06-0.04-0.16-0.07-0.2-0.09l-1.15-0.7l0.93-0.39c0.33-0.19,0.69-0.48,1.12-0.78c1.56-1.08,5.87-3.21,6.49-4.62
	c-2.71,0.45-1.89-0.82-0.89-1.83c1.12-1.13,1.6-1.05,2.63-2.35c1.35-1.71,2.96-3.84,3.95-6.13l-3.16,0.36
	c0.52-0.94,0.82-0.93,1.28-1.91c0.92-1.96,2.25-4.86,2.24-6.86c-1.22,0.44-1.49,1.08-2.82,1.15l1.55-9.37
	c-1.06-0.81-1.06-0.1-1.41-1.81l-1.58-8.12c-0.54,0.5-0.98,1.26-1.7,1.64c-0.34-0.64-0.45-2.02-0.77-2.79
	c-1.7-4.15-2.79-4.87-3.72-6.92c-0.75,0.51-0.4,0.43-1.14,1.12l-0.37-0.76c-0.02-0.04-0.2-0.55-0.22-0.61
	c-0.19-0.5-0.3-0.75-0.63-1.27c-0.54-0.83-1.1-1.47-1.72-2.1c-1.19-1.22-2.2-3.04-4.1-3.65l-0.23,0.31
	c-0.03,0.05-0.08,0.12-0.11,0.17l-0.51,1.06c-0.82-0.58-0.2-0.29-1.19-0.91c-2.63-1.63-5.17-4.86-7.53-5.12
	c-0.32,0.54-0.63,1.14-0.86,1.66c-3.83-3.24-3.92-2.44-7.58-4.69c-1.13,0.52,0.07,0.17-1.13,0.62c-0.93-1.37-0.17-0.77-1.98-1.38
	c-1.47-0.49-2.53-1.46-3.74-2.32c-0.81-0.57-1.07-0.73-1.56-1.5l-1.16,0.88c-0.77-0.83-0.58-0.75-1.42-1.34
	c-0.59-0.42-1.06-0.58-1.23-1.22c-0.35,2.83,1.17,2.97,2.09,6.05l0.19,0.63c0.15,0.48,0.32,0.92,0.49,1.41
	c0.34,0.97,0.55,1.76,0.81,2.7C110.66,47.39,111.85,50.7,113.01,53.77L113.01,53.77z M78.91,72.32c-0.26,1.47,0.84,3.97,0.25,4.85
	c-1.42-0.82-1.2-3.18-1.86-4.82l-0.45,1.06c-0.46,7.83,0.2,4.05,0.83,8.86c-1.66-0.68-0.53-1.96-2.44-2.37
	c-1.05,2.34,0.05,6.26,0.97,7.34c0.96,1.13,0.83-0.18,1.12,1.75l0.07,0.36c0.23,1.01,0.34-0.35,0.27,1.08
	c-0.84-0.86-2.49-2.78-2.92-3.69c-0.68,0.94-0.07,2.6,0.35,3.67c1.33,3.42,5.68,6.91,6.07,7.61c-1.8-0.17-2.84-1.92-4.53-2.35
	c-1.38,4.11,4.21,7.19,6.29,9.03l3.01,2.32c-1.77,0.43-2.42-0.23-4.02-0.65c3.11,5.65,11.46,4.74,14.16,6.65
	c-0.52,1.29-0.07,0.33-1.37,0.99c-0.72,0.36-0.6,0.18-0.82,0.98c2.26,1.91,12.06,0.31,15.12,0.18c-0.4,0.88-0.59,0.85-0.65,1.96
	c1.74,0,2.49-0.32,4.31-1.22l0.54-0.36c3.25-2.32,3.88-2.52,6.55-5.58c2.76-3.18,4.66-4.07,3.96-6.89
	c-0.04-0.18-0.08-0.36-0.12-0.55c-0.85,0.84-2.46,1.36-3.67,1.67c-3.65,0.94-6.18,2.86-13.18,2.82c-2.73-0.02-6.65-0.62-9.14-1.54
	c-2.87-1.06-7.37-1.79-6.99-3.46c0.6-0.04,3.66,1.45,5.01,1.84c2.13,0.62,3.87,1.3,6.26,1.73l-0.73-1.14
	c-0.02-0.02-0.63-0.62-0.67-0.66c-1.17-1.09-3.53-3.01-3.73-4.5c0.45,0.92,3.7,3.67,4.65,4.43c2.66,2.15,1.75,2.85,7.02,2.57
	c2.46-0.13,5.68-1.02,7.92-1.76l7.19-2.4c-0.32-1.88-0.28-3.86-0.5-5.79c-2.44,0.66-9.71,0.3-11.5,0.22
	c-9.93-0.42-10.29-0.91-19.27-2.12c-2.12-0.29-4.26-0.87-4.96-2.8l-0.07-1.71c0.01-0.11,0.06-0.14,0.11-0.2
	c0.74,0.37,0.21-0.09,0.66,0.76c0.52,0.99,0.17,1.57,1.76,2.33c1.11,0.53,3.14,0.84,4.38,1.18c2.82,0.78,6.86,1.38,9.91,1.5
	c-1-1.55-5.12-2.14-6.22-3.87c0.85-0.5,2.87,1.07,4.17,1.6c2.88,1.18,3.02,1.1,3.56,2.49l10.05-0.05c-1.18-5.11-5.38-1.78-5.62-4.04
	c1.9-0.89,3.05,0.3,3.97,0.72c-0.11-0.95-0.67-1.17-0.16-2.33c1.47,0.64,0.21,1.73,3.67,5.8c2.07,0.2,4.22-0.4,5.49-0.15
	c-0.49-3.9-0.98-6.41-1.75-9.8c-1.59,0.53-4.67,0.44-6.82,0.49c-2.04,0.05-4.22-0.02-6.24,0.03c-2.64,0.07-0.2,0.45-3.04,0.81
	l-7.02,1.19c0.06-0.92,0.17-0.92,1.19-1.24c3.08-0.95,4.87-0.11,6.51-0.76c-1.18-0.87-2.42-0.75-4.21-1.09
	c-1.31-0.25-2.94-0.86-4.31-1.26c-10.1-2.98-3.8-0.17-8.51-1.56c0.2-1.22-0.23-0.32,0.9-0.99c-3.62-0.75-4.05-1.53-6.1-2.35
	c-1.21-0.48-1.4-0.04-1.45-1.19c1.04-0.51,8.42,4.05,13.28,4.67c-0.93-2.5-5.11-5.79-5.64-6.43c1.74,0.03,4.87,3.46,6,5.02
	c1.06,1.48,0.83,1.91,3.01,2.48c1.52,0.4,3.13,0.85,4.71,1.04l-2.45-5.86c-0.72-1.04-0.83-0.21-0.88-1.33
	c2.7,1.44,3.23,5.11,4.86,7.47c1.46,0.98,12.2-0.3,16.01-0.09c-0.09-0.39-0.18-0.8-0.28-1.22c-0.47-2.04-0.61-4.14-1.04-6.26
	c-0.06-0.29-0.12-0.58-0.18-0.86c-2.44,0.44-8.73-0.87-11.02,2.46c-0.34,0.49-1.48,1.92-1.62,2.27c0.04-2.34,2.84-4.08,4.18-5.2
	c-3.73-0.61-10.48-1.47-13.89-2.4c-1.33-0.36-1.77-1.13-2.66-0.76c-2.78,1.17-2.49,0.12-7.62-1.52c-0.34-0.11-0.57-0.19-0.79-0.33
	c-0.47-0.28-0.18-0.07-0.48-0.44c1.99-0.18,4.97,1.45,7.52,1.72c-0.23-0.2-0.22-0.21-0.55-0.44c-0.17-0.12-0.37-0.24-0.54-0.34
	c-1.62-0.99-5.28-3.09-4.56-5.57c1.23,0.6,0.52,0.71,1.33,1.95c2.22,3.39,10.74,5.81,14.73,6.28c-2.23-3.36-3.2-4.08-5.12-6.51
	c1.68,0.25,4.16,4.26,5.95,5.49c0.66,0.45,0.82,0.38,1.29,0.66c1.07,0.65,0.02-0.09,0.83,0.95c1.78,0.22,6.22,0.94,7.75,0.56
	c0.48-1.66-1.49-3.19,0.41-3.85c0.51,0.93,0.25,2.89,0.86,3.94c0.86,0.48,0.89,0.16,1.97,0.21c0.73,0.03,1.35-0.06,1.82-0.01
	c-0.6-2.62-1.35-5.11-2.16-7.53c-2.15,0.18-5.42-0.92-6.68-0.84c-0.92,0.06-1.84,1.09-3.89,1.43c0.08-1.59,1.32-0.61,2.19-2.13
	c-1.33-0.5-3.64-1.3-5.21-1.72c-1.8-0.48-1.33-0.63-2.41-1.16c-1.91-0.95-3.28-0.82-6.64-3.61c-0.69-0.57-2.86-2.97-2.68-3.68
	c0.62-0.04,2.74,2.66,4.45,3.87c1.86,1.32,3.29,1.96,5.79,2.99c-0.45-1.52-1.27-2.46-2.26-3.67c-2.03-2.48-2.49-1.77-2.84-2.9
	c1.14-0.49,3.5,2.18,4.12,3.02c0.54,0.73,1.11,1.46,1.54,2.29c0.46,0.87,0.44,1.57,1.43,2.11c0.98,0.54,4.93,1.58,6.08,1.59
	c2.22,0.02,0.08,0.45,2.52,0.93c0.88,0.17,2.87,0.13,4.15,0.48c-1.06-3.05-2.21-6.01-3.33-9.01c-2.6,0.25-9.41-1.07-10.42-3.3
	c2.11,0.16,3.23,1.81,5.2,1.72c-1.38-0.15-4.25-2.28-5.14-3.05l-3.74-2.61c-0.96-0.71-0.66-0.26-0.83-1.13
	c1.26,0.21,4.98,3.11,6.25,4.01c2.43,1.71,6.32,2.31,8.23,3.15c-0.24-0.66-0.48-1.32-0.72-1.99c-0.55-1.57-1.08-3.17-1.58-4.78
	c-1.41-0.29-4.48-2.25-6.1-3.73l-3.01-2.98c1.65,0.39,1.49,0.75,2.43,1.38c0,0,0.7,0.37,0.71,0.38c-0.01-0.44-0.03-0.9-0.08-1.28
	c-0.04-0.3-0.16-0.73-0.22-1.15c-0.12-0.95-0.07-1.89-0.04-2.85c0.28,0.3,0.2,0.08,0.45,0.6c0.23,0.46,0.09,0.08,0.2,0.68
	c0.44,2.41-0.58,0.07,0.63,3.64c0.83,2.46,3.24,3.01,4.56,3.85c-0.53-1.71-1.04-3.42-1.55-5.1c-0.24-0.8-0.51-2.17-0.69-2.71
	c-0.12-0.35-0.01-0.09-0.32-0.61l-0.99-1.74c-0.84-1.83-1.35-3.51-2.03-5.36c-2.23,5.15-0.98,4.87-3.43,4.31
	c-0.53,0.97-1.26,1.49-1.55,2.33c-0.47,1.37,0.61,2.03-0.2,2.74c-1.45,0.68-0.67-0.11-2.03-1.04c-1.62,0.43-4.86,6.82-5.34,8.91
	l-0.57-2.01l-1.69,1.85c-0.42,0.69-0.87,1.44-1.24,2.31c-1.97,4.64-1.52,3.81-0.63,5.19c-1.61-0.09-1.59-0.72-2.5-1.46
	c-0.84,1.01-1.55,2.45-1.76,3.95c-0.17,1.25-0.21,4.3-0.5,4.96l-0.1-0.7c-0.08-1.66-1.05-1.86-1.68-2.92
	c-0.97-0.09-1.44,0.89-1.7,1.59c-0.34,0.94-0.2,1.98-0.35,3.06l-0.17,0.4l-0.05,3.39l-0.33,0.83L78.91,72.32L78.91,72.32z
	 M236.75,112.77c-2.63-1.16-8.17-5.47-8.38-7.23c4.26,0.8,10.47,1.82,14.61,3.26C238.2,110.3,242.39,110.52,236.75,112.77
	L236.75,112.77z M237.21,100.39c-0.01,0.05-0.04,0.07-0.07,0.12l-0.66,0.51c-0.9,0.4-0.38,0.11-1.22,0.34l-2.54,0.9
	c-5.54,2.07-2.67,2.14-10.75,1.12c-2.62-0.33-4.85-0.2-6.01-0.43c0.94-0.57,1.57-0.74,2.32-1.2c1.67-1.03,3.53-2.9,6.96-3.5
	c1.78-0.31,0.91-0.29,2.38-0.73C229.82,96.86,235.31,99.39,237.21,100.39L237.21,100.39z M230.09,105.05
	c1.45-2.12,7.45-3.42,7.45-3.42s5.91,3.21,5.63,4.19c-0.28,0.98,1.17,2.34,1.17,2.34S232.95,105.43,230.09,105.05L230.09,105.05z
	 M190.12,106.06c0.31-0.93-0.23-1.35-0.14-2.32c0.29-3.21,8.26-14.91,8.7-16.87c0.44-1.93,0.17-0.84,1.39-2.36
	c-2.13-0.28-7.75,0.43-9.89,0.87c-1.58,0.33-1.22,0.53-3.27,0.31l-0.2-1.49c-1.12,0.02-0.55,0.06-1.46,0.3
	c-5.81,1.53-4.37,2.93-7.96,5.46c-1.13-0.87-0.77-1.16-0.54-2.31c-0.45,0.16-0.72,0.34-1.29,0.55c-0.82,0.3-0.58,0.13-1.35,0.49
	c-3.74,1.75-4.37,5.32-5.95,6.61c-1.08-0.64-0.69-1.58-1.23-2.56c-1.19,1.18-2.39,2.61-3.2,4.17c-0.55,1.07-0.81,3.79-1.78,4.11
	c-1.08,0.25-1.15-0.68-2.03-1.5c-0.87,1.12-2.02,3.62-2.22,4.95c-0.08,0.53-0.32,1.72-0.31,2.17c0.03,1.58,0.69,0.52,0.62,1.91
	c-1.29,0.26-0.82-0.24-1.93,0.05c-0.23,1.91,1,3.86,2.22,5.53c1.23,1.68,5.28,3.43,7.15,4.08c4.99-2.96,3.94-3.23,4.39-3.56
	l1.82-0.92c0.65-0.38,1.63-0.9,2.2-1.28c-2.43-4.28,0.83-16.3,3.85-21.36c0.53,1.79-2.71,5.8-2.04,7.8
	c3.26-0.79,4.11-3.12,6.49-4.52l-3.02,3.78c-4.67,3.58-4.04-0.39-4.42,5.04c-0.07,0.96-0.43,1.92-0.48,2.96
	c-0.09,2.01,0.33,4.01,0.09,5.84l0.61-0.09c0.91-0.22,1.03-0.45,1.75-0.88c4.05-2.45,1.89-0.89,5.66-2.43L190.12,106.06
	L190.12,106.06z M210.02,88.53c1.86,0.95,5.29,0,10,2.48c-1.1,0.59-1.4,0.97-1.9,2.24c1.38-0.15,0.72-0.67,2-0.6
	c0.89,0.05,7.13,1.84,8.77,3.02c-0.63,0.55-2.28,0.94-3.31,1.37c-1.12,0.46-2.33,0.77-3.48,1.28l-1.6,0.99
	c-0.59,0.38-1.02,0.61-1.56,0.97c-1.11,0.75-2.14,1.55-3.34,2.08c-2.55,1.12-6.09-0.3-12.06,0.69l-2.54,0.32
	c-0.06,0.01-0.14,0.03-0.21,0.04c-1.41,0.25-0.13,0.27-1.64,0.2c4.38-8.42,4.64-3.4,12.14-9.84c-0.88,0.47-2.28,0.97-3.43,1.54
	c-0.73,0.36-0.98,0.54-1.65,0.87l-1.92,0.82c1.07-1.72,6.26-6.17,6.35-7.31c-1.64,0.73-11.52,11.13-12.66,13.21l0.53,1.06
	c-1.84-0.06-4.64,1.18-6.59,1.68c-1.32-1.52,1.07-8,2.78-9.49c0.41-0.36,2.97-1.18,6.38-3.77c0.88-0.67,1.62-1.11,1.47-2.05
	c-1.15,0.59-2.21,1.65-3.33,2.41c-0.97,0.66-2.54,1.4-3.21,1.93c0.55-1.4,1.36-2.7,2.03-4.05c1.48-3.02-0.68-4.68,6.69-4.98
	c2.08-0.08,4.23,0.15,6.23,1.29C210.73,87.96,210.49,87.33,210.02,88.53L210.02,88.53z M17.28,111.43c2.73-0.11,9.32-2.18,10.3-3.83
	c-3.93-0.88-9.59-2.31-13.71-2.51C17.19,108.44,13.57,107.02,17.28,111.43L17.28,111.43z M22.52,99.09
	c2.05-0.24,7.79-0.58,9.33,0.94c1.03,1.01,0.31,0.65,1.66,1.65c2.6,1.93,3.3,4.49,4.23,6.16c0.42,0.75,0.87,1.15,1.4,2.09
	c-1.08-0.23-2.88-1.23-5.22-1.93c-7.22-2.16-4.79-1.1-8.48-5.31l-1.71-1.87c-0.6-0.56-0.29-0.07-0.87-0.81l-0.32-0.76
	C22.52,99.17,22.51,99.14,22.52,99.09L22.52,99.09z M26.36,106.45c-2.57-0.74-13.33-2.52-13.33-2.52s1.83-0.77,2.04-1.85
	c0.21-1.07,6.61-1.91,6.61-1.91S26.11,103.8,26.36,106.45L26.36,106.45z M59.32,123.09l5.32,5.52c2.46,3,1.35,0.61,3.63,4.61
	c0.4,0.71,0.4,0.98,1.06,1.55l0.47,0.33c0.63-1.89,1.9-3.7,2.73-5.7c0.43-1.04,0.56-2.13,0.94-3.1c2.15-5.49,0.87-1.34-1.41-6.68
	l-0.8-4.89c1.36,2.31,1.01,4.93,3.38,6.98c1.48-1.71,0.59-6.92,1.85-8.47c0.22,6.16-2.52,19.25-6.49,22.5
	c0.31,0.6,0.89,1.49,1.26,2.12l1.1,1.62c0.23,0.51-0.77,0.35,2.05,5.22c1.86,0.09,6.04-0.04,7.83-1.21c1.78-1.17,3.69-2.6,4.37-4.57
	c-0.8-0.72-0.63-0.04-1.59-0.81c0.57-1.4,0.65-0.1,1.39-1.64c0.21-0.45,0.56-1.71,0.73-2.26c0.44-1.39,0.61-4.3,0.39-5.74
	c-1.11,0.46-1.59,1.34-2.38,0.68c-0.66-0.69,0.36-3.47,0.38-4.74c0.03-1.85-0.32-3.72-0.78-5.35c-0.9,0.76-1,1.83-2.2,2.04
	c-0.73-1.89,0.36-5.64-1.97-8.82c-0.48-0.66-0.36-0.39-0.91-1.01c-0.38-0.43-0.52-0.71-0.83-1.04c-0.33,1.22-0.16,1.65-1.5,2.05
	c-1.86-3.9-0.01-4.7-4.17-8.49c-0.65-0.6-0.16-0.41-1.09-0.87l-0.84,1.38c-1.81-0.59-1.42-0.65-2.59-1.59
	c-1.58-1.27-5.96-4.17-7.87-4.72c0.33,1.97,0.6,0.79,0.09,2.86c-0.52,2.09,0.82,16.72-0.39,19.98
	C60.13,121.85,59.49,122.05,59.32,123.09L59.32,123.09z M50.65,98.08c-1.98,0.2-4.43-2.07-9.49-1.48c0.65,1.01,0.74,1.5,0.57,2.95
	c-1.09-0.69-0.3-0.94-1.4-1.37c-0.77-0.3-6.8-0.98-8.7-0.47c0.28,0.78,1.48,1.82,2.14,2.64c0.72,0.89,1.6,1.67,2.33,2.61l0.89,1.6
	c0.32,0.6,0.58,0.99,0.86,1.57c0.59,1.18,1.08,2.36,1.85,3.35c1.62,2.1,5.23,2.09,9.77,5.4l1.97,1.31c0.05,0.03,0.1,0.09,0.15,0.12
	c1.07,0.8-0.01,0.31,1.28,0.84c0.16-9.99-2.33-5.16-5.68-14.42c0.52,0.81,1.46,1.85,2.17,2.86c0.45,0.64,0.57,0.92,0.98,1.5
	l1.24,1.56c-0.11-2.11-2.43-8.51-1.98-9.67c1.04,1.36,4.57,15.45,4.58,17.94l-0.93,0.83c1.57,0.66,3.35,2.97,4.75,4.23
	c1.8-0.98,2.75-8.28,1.99-10.41c-0.18-0.51-1.95-2.32-3.62-6.2c-0.43-1-0.85-1.72-0.29-2.59c0.69,1.03,1.1,2.49,1.69,3.68
	c0.51,1.03,1.48,2.37,1.81,3.15c0.18-1.59,0.09-3.18,0.15-4.78c0.14-3.55,2.7-4.33-3.33-7.51c-1.7-0.9-3.61-1.51-5.8-1.17
	C50.32,97.23,50.81,96.71,50.65,98.08L50.65,98.08z M17.39,112.75c-0.25,1.25,0.82,3.3,1.07,4.93c0.69,4.4,0.08,4.13-1.51,3.23
	c0.01,1.11-0.19,1.31-0.3,2.13c-0.2,1.46,0.16,6.1,0.2,7.8c-1.18-0.38-0.74-0.38-1.67-0.72c0.22,2.2,2.6,7.25,3.52,8.81
	c-0.43,0.4-0.65,0.2-0.76,0.82c-0.41,2.27,3.67,5.64,3.66,7.29c-0.01,0.58-0.27,0.26-0.68,0.48c0.22,1.49,2.93,6.36,3.82,7.89
	c2.94,5.08,5.94,2.57,6.71,5.53l-0.98,0.44c-0.04,0.01-0.8,0.08-0.88,0.1c3.33,2.65,6.77,2.34,8.73,3.49l-2.08,1.25
	c2.88,1.1,7.12,0.96,10.28,0.84c1.39-0.05,2.75-0.45,3.74,0.33c-0.46,1.19-0.64,0.47-1.5,1.59c6.81,0.25,10.75-6.34,12.96-6.59
	c0.15,0.57,0.16,1.07,0.56,1.49c1.31-0.84,2.79-1.9,3.77-3.07c0.95-1.14,3.03-2.71,3.47-3.7l2.19-4.84c0.5-1.37,1.39-4.26,1.12-5.63
	l-2.78,2.39c-5.98,5.08-6.15,3.84-10.71,6.44c0.12,3.04-1.15,3.26-3.24,4.7c-1.99,1.37-4.49,2.04-6.04,1.03
	c3.22-0.06,2.75-0.25,4.87-1.65c1.08-0.71,2.74-1.91,3.2-3.51c-9.23,1.41-10.51,3.02-20.59,1.7c-0.71-0.09-6.29-0.53-5.52-2.06
	c0.59-1.16,2.01,0.27,3.07,0.6c3.9,1.22,9.06,0.99,13.12,0.75c6.45-0.38,12.1-2.63,16.99-5.65c0.96-0.59,1.81-1.3,2.75-1.95
	c1.48-1.03,3.7-2.84,4.84-4.25c0.87-1.07-0.02-1.82-0.59-2.85c-0.48-0.88-1.03-1.98-1.62-3.02c-1.13-2.01-2.11-4.05-3.24-5.83
	c-0.69,0.22-1.6,1.04-2.67,1.56c-5.33,2.6-13.59,2.24-19.44,3.56c-2.57,0.58-4.55,2.25-7.24,1.57c0.6-0.93-0.17-0.21,0.91-0.76
	c0.04-0.02,0.86-0.29,1.04-0.36c-1.14,0.09-3.37-0.67-4.39-0.73c-3.09-0.19-11.11-2.49-12.68-5.27c0.7,0.23,0.97,0.5,1.52,0.63
	c0.93,0.22,0.22-0.27,1.42,0.31c6.14,2.97,2.66,1.44,8.3,3.14c2.64,0.8,1.21,0.22,3.62,0.5c3.31,0.38,12.25,0.16,14.63-1.05
	c-1.9-0.98-4.04-1.69-5.7-2.88l6.38,1.95c3.11,1.14,3.99,0.23,7.14-0.4c1.15-0.23,2.24-0.37,3.31-0.81
	c0.75-0.31,2.37-1.21,2.64-1.72c0.47-0.87-2.34-4.13-3.51-4.1c-0.63,0.01-10.38,1.64-15.27,1.92c-2.87,0.16-3.77,1.66-6.47,2.24
	c-2.28,0.49-5.81,1.36-7.63,0.01c2.42-0.17,6.48-1.04,8.4-1.89c-4.23-0.9-8-0.81-12.42-1.99c-1.85-0.49-3.85-1.29-5.1-1.63
	c-0.97-0.27-1.49-0.58-2.49-1.1c-1.12-0.59-1.14-0.99-1.99-1.56c1.36-0.83,1.7-0.14,2.78,0.79c1.22,1.05,8.07,2.77,10.09,3.23
	c4.64,1.07,12.52,1.66,17.27,0.77c-0.63-0.24-0.89-0.79-2.13-1.21c-0.89-0.31-2.01-0.77-2.63-1.41c2.61,0.23,6.32,2.55,7.9,2.43
	c1.17-0.09,8.31-1.33,8.9-1.63c0.42-0.25-0.53-0.97-1.46-1.87c-0.5-0.49-0.56-0.48-1-0.94c-2.34-2.47-3.71-3.27-5.55-5.07
	c-0.99,0.37-1.66,1.05-2.74,1.62c-1.04,0.55-2.2,0.95-3.48,1.28c-6.69,1.72-9.24,2.41-16.15,1.21c-1.71-0.3-6.42-0.55-7.27-2.32
	c0.07-0.04,0.18-0.15,0.22-0.08l0.43-0.11c1.11-0.07,2.12,0.65,3.16,0.95c2.82,0.79,11.83,1.66,13.83,0.59
	c-2.56-1.09-4.53-2.65-5.69-4.28c1.16,0.24,2.51,1.67,3.52,2.21c0.59,0.32,1.52,0.68,2.08,0.99c2.4,1.31,1.67,0.87,6.96-0.62
	c1.59-0.45,3.14-1.14,4.07-2.05c-0.84-2.23-9.68-6.51-11.93-7.18c-1.36-0.4-3.3-1.25-4.54-1.82l-4.67-1.69
	c-2.59-0.73-2.84,0.25-4.81,1.05L17.39,112.75L17.39,112.75z"/>
</svg>
