<?xml version="1.0" encoding="utf-8"?>
<!-- Generator: Adobe Illustrator 23.0.0, SVG Export Plug-In . SVG Version: 6.00 Build 0)  -->
<svg version="1.1" id="Capa_1" xmlns="http://www.w3.org/2000/svg" xmlns:xlink="http://www.w3.org/1999/xlink" x="0px" y="0px"
	 viewBox="0 0 425.2 425.2" style="enable-background:new 0 0 425.2 425.2;" xml:space="preserve">
<style type="text/css">
	.st0{fill:none;stroke:#FFFAD2;stroke-width:10;stroke-linecap:round;stroke-linejoin:round;stroke-miterlimit:10;}
</style>
<g>
	<path class="st0" d="M15.33,138.19c0,0,147.26-103.46,164.63-113.28s40.02-15.1,65.7,0.76S411.8,138.95,411.8,138.95"/>
	<path class="st0" d="M55.74,283.37l22.28-22.84c0,0,33.61-72.5,38.89-82.31c5.29-9.82,10.95-18.12,46.44-18.12s104.21,0,117.05,0
		c12.84,0,24.92,9.44,33.98,28.32s33.23,70.61,33.23,70.61s23.79,21.33,26.81,26.62c0,0,0.38,36.06-0.38,53.43
		c-0.43,9.81-10.57,19.63-27.19,21.14c-16.61,1.51-242.41,0-255.25,0s-36.03-2.28-36.63-21.14
		C54.23,315.28,55.74,282.81,55.74,283.37z"/>
	<line class="st0" x1="81.03" y1="261.28" x2="347.61" y2="261.28"/>
	<line class="st0" x1="14.2" y1="407.79" x2="411.42" y2="407.79"/>
	<line class="st0" x1="47.81" y1="231.08" x2="76.5" y2="259.77"/>
	<line class="st0" x1="374.79" y1="233.34" x2="347.61" y2="260.53"/>
	<line class="st0" x1="78.39" y1="360.97" x2="78.39" y2="401.75"/>
	<line class="st0" x1="150.89" y1="364.37" x2="150.89" y2="406.28"/>
	<line class="st0" x1="275.49" y1="364.37" x2="275.49" y2="406.28"/>
	<line class="st0" x1="349.12" y1="362.1" x2="349.12" y2="405.14"/>
	<line class="st0" x1="101.61" y1="309.43" x2="127.67" y2="309.43"/>
	<line class="st0" x1="298.71" y1="309.43" x2="324.76" y2="309.43"/>
</g>
</svg>
