<?xml version="1.0" encoding="utf-8"?>
<!-- Generator: Adobe Illustrator 23.0.0, SVG Export Plug-In . SVG Version: 6.00 Build 0)  -->
<svg version="1.1" id="Capa_1" xmlns="http://www.w3.org/2000/svg" xmlns:xlink="http://www.w3.org/1999/xlink" x="0px" y="0px"
	 viewBox="0 0 255.12 255.12" style="enable-background:new 0 0 255.12 255.12;" xml:space="preserve">
<style type="text/css">
	.st0{fill:#FFFAD2;}
	.st1{fill:#4E4D4D;}
</style>
<g>
	
		<ellipse transform="matrix(0.292 -0.9564 0.9564 0.292 -31.2195 211.7671)" class="st0" cx="127.43" cy="126.97" rx="125.86" ry="125.86"/>
	<g>
		<g>
			<path class="st1" d="M158.28,198.59h-61.7c-22.48,0-40.77-18.29-40.77-40.77v-61.7c0-22.48,18.29-40.77,40.77-40.77h61.7
				c22.48,0,40.77,18.29,40.77,40.77v61.7C199.04,180.3,180.75,198.59,158.28,198.59z M96.57,67.63
				c-15.71,0-28.49,12.78-28.49,28.49v61.7c0,15.71,12.78,28.49,28.49,28.49h61.7c15.71,0,28.49-12.78,28.49-28.49v-61.7
				c0-15.71-12.78-28.49-28.49-28.49H96.57z"/>
		</g>
		<g>
			<path class="st1" d="M127.43,163.65c-20.22,0-36.68-16.45-36.68-36.68c0-20.22,16.45-36.68,36.68-36.68
				c20.22,0,36.68,16.45,36.68,36.68C164.1,147.19,147.65,163.65,127.43,163.65z M127.43,102.57c-13.45,0-24.4,10.94-24.4,24.4
				c0,13.45,10.94,24.4,24.4,24.4c13.45,0,24.4-10.94,24.4-24.4C151.82,113.52,140.88,102.57,127.43,102.57z"/>
		</g>
		<g>
			<path class="st1" d="M174.49,88.2c0,4.87-3.95,8.81-8.81,8.81c-4.87,0-8.82-3.95-8.82-8.81c0-4.87,3.95-8.82,8.82-8.82
				C170.54,79.38,174.49,83.33,174.49,88.2z"/>
		</g>
	</g>
</g>
</svg>
