<?xml version="1.0" encoding="utf-8"?>
<!-- Generator: Adobe Illustrator 23.0.0, SVG Export Plug-In . SVG Version: 6.00 Build 0)  -->
<svg version="1.1" id="Capa_1" xmlns="http://www.w3.org/2000/svg" xmlns:xlink="http://www.w3.org/1999/xlink" x="0px" y="0px"
	 viewBox="0 0 425.2 425.2" style="enable-background:new 0 0 425.2 425.2;" xml:space="preserve">
<style type="text/css">
	.st0{fill:#FFFAD2;}
</style>
<path class="st0" d="M370.5,301.6c-12.47-3.18-30.05-4.5-42.01,1.34c-12.23,5.97-12.89,6.13-23.57,5.68
	c-4.76-0.2-8.29-1.78-12.37-3.62c-3.83-1.72-8.05-3.62-13.73-4.65l12.38-109.69h15.32c1.24,0,5.01,0,7.54-2.64
	c2.33-2.43,2.19-5.51,2.11-7.35c-0.01-0.31-0.03-0.63-0.03-0.95v-17.48c0-3.53-0.2-6.9-2.61-9.27c-2.49-2.46-5.68-2.41-9.71-2.35
	c-0.77,0.01-1.63,0.02-2.57,0.02c-1.42,0-9.72,0.01-22.7,0.02v-23.05c0-1.37-0.56-2.68-1.55-3.62L243.93,92.5l0.49-26.12
	c0.01-0.36-0.03-0.72-0.1-1.07l12.29-10.46l19.91,38.94c0.88,1.73,2.64,2.72,4.46,2.72c0.77,0,1.54-0.18,2.27-0.55
	c2.46-1.26,3.43-4.27,2.18-6.73l-20.99-41.05l9.47-8.07h28.83c2.76,0,5-2.24,5-5V8.41c0-2.73-2.2-4.96-4.93-5
	c-0.36,0-35.98-0.5-64.87-0.5c-33.72,0-47.58,13.4-57.54,27.89c-11.68,16.98-11.29,33.93-11.27,34.65c0.08,2.7,2.3,4.84,5,4.84
	h17.01v20.38l-20.55,20.55c-0.94,0.94-1.46,2.21-1.46,3.54v36.05c-1.44,0-2.89,0-4.33,0.01c-4.62,0.01-9.24,0.01-13.86,0.02V92.5
	c0-1.15-0.39-2.26-1.12-3.15l-28.56-35.23V9.65c0-2.76-2.24-5-5-5H76.92c-2.76,0-5,2.24-5,5V54.1L43.39,88.57
	c-0.74,0.9-1.15,2.02-1.15,3.19v59.2c-12.45,0.01-20.48,0.02-21.96,0.02c-10.95,0-15.22,3.53-15.22,12.58v13.19
	c0,5.16,1.22,8.86,3.72,11.31c0.54,0.53,1.11,0.96,1.69,1.33c0.08,0.06,0.17,0.11,0.26,0.17c0.01,0.01,0.03,0.01,0.04,0.02
	c0.21,0.13,0.43,0.26,0.67,0.36c2.75,1.33,5.75,1.27,8.1,1.23c0.42-0.01,0.83-0.02,1.24-0.02c2.63,0,6.46,0.1,9.4,0.19
	c3.26,27.16,21.06,175.17,23.74,194.84c1.02,7.5,2.81,18.33,2.82,18.44c0.39,2.39,2.44,4.15,4.87,4.19
	c0.51,0.01,12.53,0.17,17.05,0.17h146.09c1.57,0,2.97-0.72,3.89-1.86c2.57,2.92,5.66,5.73,9.27,8.44
	c5.75,4.31,15.55,7.58,27.14,7.58c6.41,0,13.36-1,20.48-3.37c5.18-1.73,9.18-3.25,12.39-4.48c8.1-3.09,10.41-3.85,15.12-2.81
	c2.77,0.62,6.24,2.03,9.92,3.53c7.24,2.95,16.25,6.62,26.36,6.97c17.75,0.61,31.75-4.26,39.42-13.72
	c10.05-12.4,10.05-18.44,10.02-38.46l0-3.28c0-3.17,0.14-6.53,0.29-10.08C399.9,337.17,401.08,309.39,370.5,301.6z M288.45,314.12
	c4.6,2.07,9.36,4.21,16.05,4.49c13.01,0.54,15.19-0.26,28.37-6.69c7.85-3.83,21.65-4.08,35.16-0.64
	c17.71,4.52,21.22,16.64,21.29,34.66c-0.28,0.36-0.52,0.74-0.7,1.18c-0.06,0.15-6.3,15.44-16.36,20.37
	c-11.25,5.52-30.76,3.03-43.4-2.12c-12.37-5.04-23.03-6.92-37.93-0.73c-15.37,6.38-26.05,6.35-39.31,4.14
	c-17.26-2.88-22.29-22.19-23.02-25.48c0.1-3.19,0.94-13.1,7.25-22.12c4.81-6.88,17.44-12.21,25.09-12.21
	c4.34,0,8.04,0.22,10.68,0.45c0.43,0.15,0.88,0.25,1.35,0.28C279.62,310.15,283.91,312.08,288.45,314.12z M303.97,160.63
	c0.72-0.01,1.5-0.02,2.14-0.02c0.02,0.41,0.03,0.95,0.03,1.64v17.48c0,0.31,0.01,0.63,0.02,0.94h-16.03
	c-0.54-0.2-1.13-0.33-1.74-0.33h-88.05l-0.23-19.56c53.48-0.06,97.68-0.12,101.15-0.12C302.25,160.66,303.15,160.64,303.97,160.63z
	 M234.32,71.29l-0.31,16.46h-32.88V71.29H234.32z M297.73,30.12h-18.69V13.15c7.84,0.07,14.47,0.15,18.69,0.2V30.12z M188.63,36.47
	c10-14.54,21.73-23.55,49.3-23.55c10.14,0,21.12,0.06,31.11,0.14v18.1c-0.07,0.05-0.15,0.1-0.22,0.16l-35.15,29.92L198,60.3
	c-0.04,0-0.09,0-0.13,0h-18.38C180.2,54.87,182.34,45.63,188.63,36.47z M179.12,116.84l19.08-19.08h36.74l33.61,32.02v20.92
	c-22.79,0.03-55.09,0.07-89.43,0.11V116.84z M164.8,160.82c3.07,0,6.12-0.01,9.17-0.01c0.05,0,0.1,0.02,0.15,0.02
	c0.05,0,0.1-0.01,0.16-0.02c5.32-0.01,10.61-0.01,15.82-0.02l0.62,52.64c0.02,1.89,1.11,3.61,2.81,4.44
	c0.4,0.19,39.88,19.45,44.69,22.01c2.21,1.18,4.8,9.71,2.42,14.95c-1.16,2.55-3.2,3.76-4.7,4.32c-2.67,1-5.87,0.8-8.78-0.53
	c-7.72-3.54-29.91-14.96-30.13-15.07c-1.55-0.8-3.4-0.73-4.89,0.18c-1.49,0.91-2.4,2.53-2.4,4.27v67.27
	c0,14.35-7.73,18.29-17.21,19.18v-64.85c0-2.76-2.24-5-5-5s-5,2.24-5,5v65.08c-4.16,0.01-9.96,0.03-16.47,0.05
	c-0.62,0-1.26,0-1.89,0.01v-65.14c0-2.76-2.24-5-5-5s-5,2.24-5,5v65.18c-6.03,0.02-12.19,0.04-17.87,0.05v-64.9c0-2.76-2.24-5-5-5
	s-5,2.24-5,5v64.91c-0.6,0-1.19,0-1.76,0c-15.28,0-16.93-17.84-16.93-25.5V160.91C111,160.88,138.08,160.85,164.8,160.82z
	 M111.25,14.65v37.24H81.92V14.65H111.25z M78.45,61.89h36.21l21.97,27.1H56.03L78.45,61.89z M52.24,98.99h88.68v51.86
	c-33.66,0.04-65.95,0.08-88.68,0.11V98.99z M15.06,163.57c0-1.18,0.06-1.77,0.12-2.08c0.48-0.18,1.82-0.51,5.1-0.51
	c2.61,0,25.62-0.03,57.33-0.06v19.41H15.49c-0.2-0.58-0.43-1.66-0.43-3.57V163.57z M78.65,398.97c-2.79,0-8.68-0.06-12.72-0.11
	c-0.61-3.81-1.5-9.54-2.11-14.03c-2.67-19.55-20.38-166.89-23.69-194.5h37.48v118.99c0,17.16,7.07,35.5,26.93,35.5
	c11.14,0,28-0.06,41.55-0.11c9.39-0.03,17.31-0.06,20.94-0.06c6.1,0,13.19-0.46,19.56-3.9c5.99-3.23,13.14-10.28,13.14-25.51v-59.1
	c7.3,3.72,18.14,9.2,23.26,11.54c5.31,2.43,11.3,2.73,16.44,0.81c4.64-1.73,8.3-5.12,10.31-9.55c4.23-9.32,0.67-23.93-6.82-27.92
	c-4.25-2.27-33.03-16.33-42.24-20.82l-0.23-19.89h80.73L268.89,299.2c-2.3-0.13-4.99-0.23-7.96-0.23c-10.5,0-26.38,6.62-33.28,16.48
	c-9.17,13.1-9.1,27.55-9.07,29.14c-0.01,1.99-0.11,29.24,0.25,38.96c0.2,5.48,1.56,10.61,4.11,15.43H78.65z M380.96,402.97
	c-5.65,6.97-16.76,10.53-31.31,10.02c-8.33-0.29-16.09-3.45-22.93-6.24c-4.08-1.66-7.93-3.24-11.53-4.03
	c-7.83-1.74-12.46,0.02-20.85,3.22c-3.13,1.19-7.01,2.67-11.99,4.33c-15.66,5.22-31.5,2.5-38.45-2.72
	c-9.94-7.46-14.73-15.2-15.07-24.38c-0.14-3.79-0.21-10.5-0.24-17.27c4.74,5.88,11.59,11.11,21.38,12.74
	c14.67,2.45,27.28,2.5,44.79-4.77c11.92-4.95,19.57-3.63,30.33,0.75c8.58,3.5,19.87,6.01,30.7,6.01c7.54,0,14.85-1.22,20.88-4.17
	c4.83-2.37,8.88-6.22,12.1-10.22c0,0.43-0.01,0.86-0.01,1.28l0,3.29C388.78,389.89,388.78,393.33,380.96,402.97z"/>
</svg>
