<?xml version="1.0" encoding="utf-8"?>
<!-- Generator: Adobe Illustrator 23.0.0, SVG Export Plug-In . SVG Version: 6.00 Build 0)  -->
<svg version="1.1" id="Capa_1" xmlns="http://www.w3.org/2000/svg" xmlns:xlink="http://www.w3.org/1999/xlink" x="0px" y="0px"
	 viewBox="0 0 255.12 255.12" style="enable-background:new 0 0 255.12 255.12;" xml:space="preserve">
<style type="text/css">
	.st0{fill:#FFFAD2;}
	.st1{fill:#4E4D4D;}
</style>
<g>
	<ellipse class="st0" cx="127.9" cy="127.99" rx="126.52" ry="125.86"/>
	<g>
		<path class="st1" d="M186.75,193.53H62.74c-28.21,0-28.21-18.23-28.21-35.86V99.1c0-35.24,11.34-36.65,39.29-36.65h106.64
			c28.97,0,40.77,3.39,40.77,37.43l0.01,57.31c0.04,10.82,0.09,21.04-7.13,28.24C208.6,190.96,199.9,193.53,186.75,193.53z
			 M73.83,74.85c-25.82,0-26.83,0-26.83,24.25v58.56c0,20.84,1.76,23.47,15.75,23.47h124.01c9.35,0,15.59-1.49,18.54-4.44
			c3.56-3.56,3.53-10.57,3.5-19.45l-0.01-57.36c0-25.04-3.22-25.04-28.31-25.04H73.83z"/>
		<path class="st1" d="M130.34,155.27c-1.33,0-2.66-0.42-3.78-1.27l-68.38-51.92c-2.73-2.08-3.26-5.97-1.17-8.69
			c2.08-2.72,6-3.24,8.73-1.17l64.43,48.92l58.28-48.27c2.65-2.19,6.58-1.83,8.77,0.79c2.2,2.63,1.85,6.54-0.8,8.73l-62.1,51.43
			C133.18,154.79,131.76,155.27,130.34,155.27z"/>
		<path class="st1" d="M57.94,176.65c-1.59,0-3.19-0.61-4.4-1.82c-2.43-2.42-2.43-6.34,0-8.76l25.51-25.38
			c2.43-2.42,6.38-2.42,8.81,0c2.43,2.42,2.43,6.34,0,8.76l-25.51,25.38C61.12,176.04,59.53,176.65,57.94,176.65z"/>
		<path class="st1" d="M197.71,175.18c-1.59,0-3.18-0.6-4.4-1.81l-24.4-24.2c-2.43-2.42-2.44-6.34-0.01-8.77s6.38-2.43,8.81-0.01
			l24.4,24.2c2.43,2.42,2.44,6.34,0.01,8.77C200.9,174.58,199.31,175.18,197.71,175.18z"/>
	</g>
</g>
</svg>
