<?xml version="1.0" encoding="utf-8"?>
<!-- Generator: Adobe Illustrator 23.0.0, SVG Export Plug-In . SVG Version: 6.00 Build 0)  -->
<svg version="1.1" id="Capa_1" xmlns="http://www.w3.org/2000/svg" xmlns:xlink="http://www.w3.org/1999/xlink" x="0px" y="0px"
	 viewBox="0 0 425.2 425.2" style="enable-background:new 0 0 425.2 425.2;" xml:space="preserve">
<style type="text/css">
	.st0{fill:#FFFAD2;}
</style>
<g>
	<path class="st0" d="M97.99,199.2c-1.16,0-2.33-0.41-3.28-1.23c-0.31-0.28-7.81-6.94-16.32-23.34
		c-11.83-22.82-9.68-37.77-6.45-51.13c3.11-12.9,10.77-26.39,20.48-36.11c2.08-2.08,10.13-9.96,20.32-19.94
		c15.81-15.48,37.47-36.68,46.1-45.31c14.99-14.99,50.47-21.08,70.99-16.31c25.49,5.92,42.91,32.84,43.64,33.98
		c1.25,1.97,0.98,4.54-0.66,6.2L123.74,197.13c-1.94,1.97-5.11,1.99-7.07,0.05c-1.97-1.94-1.99-5.1-0.05-7.07L262.76,41.97
		c-5.13-6.84-18.45-22.51-35.18-26.4c-17.65-4.1-49.09,1.07-61.66,13.64c-8.67,8.67-29.46,29.03-46.17,45.39
		c-10.17,9.96-18.2,17.82-20.25,19.87c-8.47,8.47-15.13,20.2-17.83,31.38c-2.9,12-4.65,24.4,5.61,44.18
		c7.53,14.52,13.98,20.38,14.04,20.44c2.05,1.83,2.24,4.99,0.42,7.05C100.75,198.63,99.38,199.2,97.99,199.2z"/>
	<path class="st0" d="M108.22,197.71c4.35,0,7.88,3.53,7.88,7.88s-3.53,7.88-7.88,7.88s-7.88-3.53-7.88-7.88
		S103.87,197.71,108.22,197.71 M108.22,187.71c-9.86,0-17.88,8.02-17.88,17.88s8.02,17.88,17.88,17.88s17.88-8.02,17.88-17.88
		S118.08,187.71,108.22,187.71L108.22,187.71z"/>
	<path class="st0" d="M107.93,82.8c-1.28,0-2.56-0.49-3.54-1.46L95.06,72c-2.27-2.27-3.44-5.23-3.4-8.56
		c0.06-4.83,2.75-10.03,7.57-14.64c2.8-2.67,5.48-5.46,8.07-8.15c3.24-3.37,6.6-6.85,10.11-10.03c4.69-4.24,9.56-6.32,14.1-6.02
		c3.27,0.22,6.12,1.66,8.24,4.16c3,3.55,9.49,9.77,9.56,9.83c2,1.91,2.07,5.07,0.16,7.07c-1.91,2-5.07,2.07-7.07,0.16
		c-0.28-0.27-6.94-6.65-10.28-10.59c-0.36-0.42-0.72-0.61-1.27-0.64c-0.64-0.05-3,0.08-6.73,3.46c-3.26,2.95-6.35,6.15-9.62,9.55
		c-2.67,2.77-5.42,5.63-8.37,8.45c-4.12,3.93-4.47,6.75-4.48,7.52c-0.01,0.79,0.25,1.15,0.47,1.37l9.34,9.34
		c1.95,1.95,1.95,5.12,0,7.07C110.49,82.31,109.21,82.8,107.93,82.8z"/>
	<path class="st0" d="M87.26,262.8c-7.39,0-13.99-0.79-18.27-4.94c-2.65-2.56-3.99-6.02-3.99-10.27c0-19,15.06-19,28.34-19h13.8
		c2.76,0,5,2.24,5,5s-2.24,5-5,5h-13.8c-17.56,0-18.34,2.01-18.34,9c0,2.17,0.69,2.84,0.95,3.09c2.53,2.46,10.67,2.2,17.85,1.98
		c2.33-0.07,4.75-0.15,7.13-0.15h230.48c2.76,0,5,2.24,5,5c0,2.76-2.24,5-5,5H100.93c-2.23,0-4.56,0.07-6.82,0.14
		C91.78,262.73,89.48,262.8,87.26,262.8z"/>
	<path class="st0" d="M237.78,298.95c-12.33,0-24.33-0.09-34.34-0.16c-7.01-0.05-12.99-0.1-17.33-0.1c-13.73,0-34.47,0-50.56-14.07
		c-16.59-14.52-35.72-36.69-32.59-59.86c0.37-2.74,2.89-4.65,5.62-4.29c2.74,0.37,4.66,2.89,4.29,5.63
		c-2.67,19.76,17.19,40.43,29.26,51c12.24,10.71,27.79,11.6,43.97,11.6c4.36,0,10.36,0.04,17.4,0.1c18.52,0.14,43.88,0.33,65.36-0.1
		c27.05-0.53,40.91-7.64,54.9-28.16c9.38-13.76,10.36-38.46,10.33-48.78H123.68c-2.76,0-5-2.24-5-5s2.24-5,5-5h215.31
		c2.66,0,4.85,2.08,4.99,4.73c0.09,1.59,1.97,39.27-11.95,59.69c-15.76,23.12-32.83,31.93-62.97,32.52
		C259.11,298.88,248.32,298.95,237.78,298.95z"/>
	<path class="st0" d="M229.88,162.15c-1.62,0-3.2-0.78-4.17-2.23c-1.53-2.3-0.91-5.4,1.39-6.93c0.55-0.38,5.67-4.14,4.08-9.99
		c-0.57-2.08-1.22-2.97-2.31-4.43c-1.03-1.39-2.31-3.12-3.56-5.94c-3.25-7.32,1.9-16.13,2.96-17.82c1.47-2.34,4.56-3.04,6.9-1.57
		c2.33,1.47,3.04,4.55,1.57,6.88c-1.44,2.32-3.09,6.66-2.29,8.45c0.81,1.81,1.57,2.85,2.46,4.05c1.34,1.81,2.86,3.86,3.92,7.75
		c2.82,10.34-3.81,18.03-8.18,20.94C231.8,161.88,230.84,162.15,229.88,162.15z"/>
	<path class="st0" d="M290.57,161.28c-1.62,0-3.2-0.78-4.17-2.23c-1.53-2.3-0.91-5.4,1.39-6.93c0.55-0.38,5.67-4.14,4.08-9.99
		c-0.57-2.08-1.22-2.97-2.31-4.43c-1.03-1.39-2.31-3.12-3.56-5.94c-3.25-7.32,1.9-16.13,2.96-17.82c1.47-2.34,4.56-3.04,6.9-1.57
		c2.33,1.47,3.04,4.55,1.57,6.89c-1.44,2.32-3.08,6.66-2.29,8.44c0.81,1.81,1.57,2.85,2.46,4.05c1.34,1.81,2.86,3.86,3.92,7.75
		c2.82,10.34-3.81,18.03-8.18,20.94C292.48,161.01,291.52,161.28,290.57,161.28z"/>
	<path class="st0" d="M260.22,161.42c-1.62,0-3.2-0.78-4.17-2.23c-1.53-2.3-0.91-5.4,1.39-6.93c0.55-0.38,5.67-4.14,4.08-9.99
		c-0.57-2.08-1.22-2.97-2.31-4.43c-1.03-1.39-2.31-3.12-3.56-5.94c-3.25-7.32,1.9-16.13,2.96-17.82c1.47-2.34,4.56-3.04,6.9-1.57
		c2.33,1.47,3.04,4.55,1.57,6.89c-1.44,2.32-3.08,6.66-2.29,8.44c0.81,1.81,1.57,2.85,2.46,4.05c1.34,1.81,2.86,3.86,3.92,7.75
		c2.82,10.34-3.81,18.03-8.18,20.94C262.13,161.15,261.17,161.42,260.22,161.42z"/>
	<path class="st0" d="M147.03,376.88c-0.41,0-0.82-0.05-1.23-0.15c-2.68-0.68-4.3-3.4-3.62-6.08l19.26-75.85
		c0.68-2.68,3.4-4.29,6.08-3.62c2.68,0.68,4.3,3.4,3.62,6.08l-19.26,75.85C151.29,375.37,149.26,376.88,147.03,376.88z"/>
	<path class="st0" d="M296.4,422.39c-13.38,0-24.26-10.88-24.26-24.26c0-13.37,10.88-24.25,24.26-24.25
		c13.37,0,24.25,10.88,24.25,24.25C320.65,411.51,309.77,422.39,296.4,422.39z M296.4,383.88c-7.86,0-14.26,6.39-14.26,14.25
		s6.4,14.26,14.26,14.26s14.25-6.4,14.25-14.26S304.26,383.88,296.4,383.88z"/>
	<path class="st0" d="M264.89,347.7h-81.11c-2.76,0-5-2.24-5-5s2.24-5,5-5h81.11c2.76,0,5,2.24,5,5S267.65,347.7,264.89,347.7z"/>
	<path class="st0" d="M274.52,372.79h-96.28c-2.76,0-5-2.24-5-5s2.24-5,5-5h96.28c2.76,0,5,2.24,5,5S277.28,372.79,274.52,372.79z"
		/>
	<path class="st0" d="M152.27,421.22c-5.69,0-11.1-2.49-14.46-6.67c-2.58-3.21-5.25-8.94-3.26-18.06c0.66-3.03,1.08-4.96,1.34-6.14
		l0.27-1.25c0.85-3.82,4.06-4.58,6.02-4.16c1.69,0.36,4.29,1.64,3.76,6.06l0.04,0.01c-0.02,0.07-0.05,0.23-0.12,0.52
		c-0.03,0.19-0.07,0.38-0.11,0.57l-0.26,1.24c-0.04,0.17-0.08,0.33-0.13,0.48c-0.25,1.15-0.59,2.7-1.04,4.78
		c-0.63,2.9-0.92,6.94,1.28,9.66c1.75,2.17,4.6,2.95,6.68,2.95c3.45,0,6.44,0,10.3-16.56c4.05-17.37,24.82-96.55,25.71-99.91
		c0.7-2.67,3.44-4.27,6.11-3.57c2.67,0.7,4.27,3.43,3.57,6.11c-0.22,0.82-21.62,82.41-25.64,99.64
		C168.64,412.69,164.36,421.22,152.27,421.22z"/>
	<path class="st0" d="M280.64,392.05c-2.16,0-4.16-1.41-4.8-3.59l-25.67-87.52c-0.78-2.65,0.74-5.43,3.39-6.21
		c2.65-0.78,5.43,0.74,6.21,3.39l25.67,87.52c0.78,2.65-0.74,5.43-3.39,6.21C281.58,391.99,281.11,392.05,280.64,392.05z"/>
	<path class="st0" d="M303.98,384.46c-2.24,0-4.28-1.52-4.85-3.79l-21.01-84.02c-0.67-2.68,0.96-5.39,3.64-6.06
		c2.68-0.67,5.39,0.96,6.06,3.64l21.01,84.02c0.67,2.68-0.96,5.39-3.64,6.06C304.79,384.42,304.38,384.46,303.98,384.46z"/>
	<path class="st0" d="M188.16,208.25c-2.76,0-5-2.24-5-5l0-15.62c-0.03-4.61-0.05-9.39,4.56-12.47c2.14-1.43,6.05-2.88,18.82-2.88
		h67.1c2.76,0,5,2.24,5,5s-2.24,5-5,5h-67.1c-9.84,0-12.63,0.93-13.21,1.18c-0.19,0.69-0.18,2.58-0.17,4.11l0.01,1.38v14.3
		C193.16,206.01,190.92,208.25,188.16,208.25z"/>
	<path class="st0" d="M319.15,209.42c-2.76,0-5-2.24-5-5v-14.3c0-2.77-0.36-5.11-0.73-6.38h-15.86c-2.76,0-5-2.24-5-5s2.24-5,5-5
		h17.5c3.39,0,9.08,2.13,9.08,16.38v14.3C324.15,207.18,321.91,209.42,319.15,209.42z M315.07,183.74L315.07,183.74L315.07,183.74z"
		/>
</g>
</svg>
