<?xml version="1.0" encoding="utf-8"?>
<!-- Generator: Adobe Illustrator 23.0.0, SVG Export Plug-In . SVG Version: 6.00 Build 0)  -->
<svg version="1.1" id="Capa_1" xmlns="http://www.w3.org/2000/svg" xmlns:xlink="http://www.w3.org/1999/xlink" x="0px" y="0px"
	 viewBox="0 0 255.12 255.12" style="enable-background:new 0 0 255.12 255.12;" xml:space="preserve">
<style type="text/css">
	.st0{fill:#FFFAD2;}
	.st1{fill:#4E4D4D;}
</style>
<g>
	
		<ellipse transform="matrix(0.292 -0.9564 0.9564 0.292 -32.0597 211.5973)" class="st0" cx="126.89" cy="127.45" rx="125.32" ry="125.32"/>
	<path class="st1" d="M188.06,152.73c-0.7-1.12-5.53-3.44-5.53-3.44c-1.91-0.95-15.93-7.81-18.56-8.76
		c-2.26-0.81-4.81-1.73-7.1,1.68c-1.75,2.58-6.84,8.53-8.5,10.4c-1.16,1.32-2.23,1.76-4.81,0.47c-0.43-0.21-12.92-5.55-21.54-13.17
		c-7.64-6.75-12.94-15.09-14.86-18.36c-1.18-2-0.41-2.93,1.05-4.39c0.9-0.88,4.85-5.66,5.17-6.12c0.63-0.96,1.76-3.26,1.76-3.26
		c1.14-2.25,0.43-4.21-0.21-5.5c-0.46-0.89-7.65-18.21-8.33-19.83c-2.05-4.89-4.24-5.15-6.33-5.03c-1.02,0.07-10.53,0.15-13.57,3.44
		l-0.53,0.57c-2.98,3.15-9.17,9.7-9.17,22.37c0,2.91,0.47,5.98,1.43,9.38c1.77,6.11,5.22,12.79,9.79,18.9
		c0.1,0.13,7.06,9.8,10.54,13.8c11.01,12.68,23.45,22.04,35.99,26.94c16.03,6.26,22.87,7.7,26.76,7.7c1.7,0,5.28-0.86,6.05-0.94
		c4.9-0.44,16.54-6.5,18.98-13.32C188.88,159.81,188.93,154.18,188.06,152.73z"/>
</g>
</svg>
