<?xml version="1.0" encoding="utf-8"?>
<!-- Generator: Adobe Illustrator 23.0.0, SVG Export Plug-In . SVG Version: 6.00 Build 0)  -->
<svg version="1.1" id="Capa_1" xmlns="http://www.w3.org/2000/svg" xmlns:xlink="http://www.w3.org/1999/xlink" x="0px" y="0px"
	 viewBox="0 0 425.2 425.2" style="enable-background:new 0 0 425.2 425.2;" xml:space="preserve">
<style type="text/css">
	.st0{fill:none;stroke:#FFFAD2;stroke-width:10;stroke-linecap:round;stroke-linejoin:round;stroke-miterlimit:10;}
</style>
<g>
	<path class="st0" d="M29.39,235.97c0,0,14.26,8.93,14.45,9.03c6.42,3.41,9.02,4.95,20.48,4.62c17.26-0.5,30.11-18.67,49.83-18.52
		c18.47,0.14,27.75,18.62,49.13,18.62c12.84,0,19.88-6.09,28.71-11.34c5.8-3.45,12.27-6.83,21.98-6.83
		c22.58,0,27.4,17.97,50.19,17.97c21.78,0,30.79-18.27,50.69-18.27c17.97,0,33.64,17.73,46.47,18.47c10.44,0.6,17.16-0.8,23.48-4.43
		c0.18-0.1,14.16-8.92,14.16-8.92"/>
	<path class="st0" d="M29.39,320.28c0,0,14.26,8.93,14.45,9.03c6.42,3.41,9.02,4.95,20.48,4.62c17.26-0.5,30.11-18.67,49.83-18.52
		c18.47,0.14,27.75,18.62,49.13,18.62c12.84,0,19.88-6.09,28.71-11.34c5.8-3.45,12.27-6.83,21.98-6.83
		c22.58,0,27.4,17.97,50.19,17.97c21.78,0,30.79-18.27,50.69-18.27c17.97,0,33.64,17.73,46.47,18.47c10.44,0.6,17.16-0.8,23.48-4.43
		c0.18-0.1,14.16-8.92,14.16-8.92"/>
	<path class="st0" d="M29.39,403.39c0,0,14.26,8.93,14.45,9.03c6.42,3.41,9.02,4.95,20.48,4.62c17.26-0.5,30.11-18.67,49.83-18.52
		c18.47,0.14,27.75,18.62,49.13,18.62c12.84,0,19.88-6.09,28.71-11.34c5.8-3.45,12.27-6.83,21.98-6.83
		c22.58,0,27.4,17.97,50.19,17.97c21.78,0,30.79-18.27,50.69-18.27c17.97,0,33.64,17.73,46.47,18.47c10.44,0.6,17.16-0.8,23.48-4.43
		c0.18-0.1,14.16-8.92,14.16-8.92"/>
	<line class="st0" x1="89.31" y1="161.6" x2="220.6" y2="161.6"/>
	<path class="st0" d="M87.5,232.66c0,0,0-146.94,0-172.23s4.82-52.39,40.35-52.39c23.89,0,35.33,12.81,39.14,33.12
		c1.86,9.89,1.35,21.27,1.35,35.08"/>
	<path class="st0" d="M222.1,232.66c0,0,0-146.94,0-172.23s4.82-52.39,40.35-52.39c23.89,0,35.33,12.81,39.14,33.12
		c1.86,9.89,1.36,21.27,1.36,35.08"/>
</g>
</svg>
