<?xml version="1.0" encoding="utf-8"?>
<!-- Generator: Adobe Illustrator 23.0.0, SVG Export Plug-In . SVG Version: 6.00 Build 0)  -->
<svg version="1.1" id="Capa_1" xmlns="http://www.w3.org/2000/svg" xmlns:xlink="http://www.w3.org/1999/xlink" x="0px" y="0px"
	 viewBox="0 0 425.2 425.2" style="enable-background:new 0 0 425.2 425.2;" xml:space="preserve">
<style type="text/css">
	.st0{fill:#FFFAD2;}
</style>
<g>
	<path class="st0" d="M30.81,125.06c-15.26,0-27.68-12.5-27.68-27.87s12.42-27.87,27.68-27.87s27.68,12.5,27.68,27.87
		S46.07,125.06,30.81,125.06z M30.81,79.78c-9.49,0-17.22,7.81-17.22,17.41s7.72,17.41,17.22,17.41s17.22-7.81,17.22-17.41
		S40.3,79.78,30.81,79.78z"/>
	<path class="st0" d="M395.28,125.06c-15.26,0-27.68-12.5-27.68-27.87s12.42-27.87,27.68-27.87c15.26,0,27.68,12.5,27.68,27.87
		S410.54,125.06,395.28,125.06z M395.28,79.78c-9.49,0-17.22,7.81-17.22,17.41s7.72,17.41,17.22,17.41s17.21-7.81,17.21-17.41
		S404.77,79.78,395.28,79.78z"/>
	<path class="st0" d="M83.38,117.31H49.71c-2.89,0-5.23-2.34-5.23-5.23s2.34-5.23,5.23-5.23h33.67c2.89,0,5.23,2.34,5.23,5.23
		S86.27,117.31,83.38,117.31z"/>
	<path class="st0" d="M76.88,88.12H52.07c-2.89,0-5.23-2.34-5.23-5.23s2.34-5.23,5.23-5.23h24.81c2.89,0,5.23,2.34,5.23,5.23
		S79.77,88.12,76.88,88.12z"/>
	<path class="st0" d="M135.36,355.01c-0.22,0-0.44-0.01-0.65-0.04c-4.31-0.54-5.25-3.96-5.14-5.69c0.05-0.86,0.26-1.58,0.56-2.17
		v-27.25H83.97c-2.89,0-5.23-2.34-5.23-5.23V78.12c0-12.13,8.35-31.48,18.09-36.77c9.3-5.05,21.89-6.59,53.89-6.59h151.81
		c14.99,0,27.93,0,38.95,13.89c10.74,13.54,12.36,20.04,12.36,49.72v250.8c0,2.89-2.34,5.23-5.23,5.23H148.36
		c-6.13,0-9.27,0.07-10.86,0.14C136.83,354.85,136.1,355.01,135.36,355.01z M140.59,319.86V344c2.09-0.04,4.68-0.05,7.76-0.05
		h195.02V98.38c0-29.47-1.76-32.72-10.09-43.22c-7.88-9.93-16.49-9.93-30.75-9.93H150.72c-33.05,0-42.4,1.79-48.9,5.32
		C96.16,53.63,89.2,68.83,89.2,78.12V309.4h181.81c0.26-18.28-0.68-87.52-1.47-134.68c-0.05-2.89,2.25-5.27,5.14-5.32
		c2.86-0.08,5.27,2.25,5.32,5.14c0.01,0.35,0.59,35.29,1.03,69.84c0.26,20.3,0.41,36.5,0.47,48.15c0.03,6.93,0.03,12.32-0.02,16.01
		c-0.08,7.29-0.11,9.5-3.47,10.91c-0.73,0.31-1.51,0.43-2.26,0.41H140.59z"/>
	<path class="st0" d="M274.18,260.88H83.97c-2.89,0-5.23-2.34-5.23-5.23s2.34-5.23,5.23-5.23h190.21c2.89,0,5.23,2.34,5.23,5.23
		S277.07,260.88,274.18,260.88z"/>
	<path class="st0" d="M275.95,290.67H83.97c-2.89,0-5.23-2.34-5.23-5.23s2.34-5.23,5.23-5.23h191.98c2.89,0,5.23,2.34,5.23,5.23
		S278.84,290.67,275.95,290.67z"/>
	<path class="st0" d="M376.38,87.52h-99.83c-2.89,0-5.23-2.34-5.23-5.23s2.34-5.23,5.23-5.23h99.83c2.89,0,5.23,2.34,5.23,5.23
		S379.27,87.52,376.38,87.52z"/>
	<path class="st0" d="M376.38,117.31h-99.83c-2.89,0-5.23-2.34-5.23-5.23s2.34-5.23,5.23-5.23h99.83c2.89,0,5.23,2.34,5.23,5.23
		S379.27,117.31,376.38,117.31z"/>
	<path class="st0" d="M376.38,117.31h-99.83c-2.89,0-5.23-2.34-5.23-5.23s2.34-5.23,5.23-5.23h99.83c2.89,0,5.23,2.34,5.23,5.23
		S379.27,117.31,376.38,117.31z"/>
	<path class="st0" d="M274.18,157.22c-2.89,0-5.23-2.34-5.23-5.23V75.14c0-14.08,12.1-40.38,41.27-40.38c2.89,0,5.23,2.34,5.23,5.23
		c0,2.89-2.34,5.23-5.23,5.23c-21.5,0-30.8,19.81-30.8,29.92v76.85C279.41,154.88,277.07,157.22,274.18,157.22z"/>
</g>
</svg>
