<?xml version="1.0" encoding="utf-8"?>
<!-- Generator: Adobe Illustrator 23.0.0, SVG Export Plug-In . SVG Version: 6.00 Build 0)  -->
<svg version="1.1" id="Capa_1" xmlns="http://www.w3.org/2000/svg" xmlns:xlink="http://www.w3.org/1999/xlink" x="0px" y="0px"
	 viewBox="0 0 255.12 255.12" style="enable-background:new 0 0 255.12 255.12;" xml:space="preserve">
<style type="text/css">
	.st0{fill:#70569F;}
	.st1{fill:#FFF9D1;}
</style>
<g>
	<circle class="st0" cx="127.43" cy="129.38" r="123.02"/>
	<g>
		<path class="st1" d="M197.97,167.66C197.97,167.66,197.97,167.66,197.97,167.66l-0.06-0.07c-0.05-0.06-0.11-0.11-0.17-0.17
			L173,142.68c4.89-9.09,7.66-19.48,7.66-30.52c0-35.65-28.9-64.56-64.56-64.56s-64.56,28.9-64.56,64.56
			c0,35.65,28.9,64.56,64.56,64.56c11,0,21.35-2.76,30.41-7.61c5.54,5.54,19.04,19.04,23.58,23.58c3.43,4.27,8.66,7,14.53,7
			c10.32,0,18.69-8.44,18.69-18.85C203.31,175.71,201.27,171.06,197.97,167.66z"/>
		<circle class="st0" cx="116.04" cy="111.82" r="48.11"/>
		<g>
			<path class="st1" d="M150.81,120.71c-2.52,0-4.57-2.04-4.57-4.57c0-19.04-15.49-34.52-34.52-34.52c-2.52,0-4.57-2.04-4.57-4.57
				c0-2.52,2.04-4.57,4.57-4.57c24.07,0,43.65,19.58,43.65,43.65C155.38,118.66,153.33,120.71,150.81,120.71z"/>
		</g>
		<circle class="st1" cx="146.17" cy="130.55" r="4.21"/>
	</g>
</g>
</svg>
