<?xml version="1.0" encoding="utf-8"?>
<!-- Generator: Adobe Illustrator 23.0.0, SVG Export Plug-In . SVG Version: 6.00 Build 0)  -->
<svg version="1.1" id="Capa_1" xmlns="http://www.w3.org/2000/svg" xmlns:xlink="http://www.w3.org/1999/xlink" x="0px" y="0px"
	 viewBox="0 0 425.2 425.2" style="enable-background:new 0 0 425.2 425.2;" xml:space="preserve">
<style type="text/css">
	.st0{fill:#FFFAD2;}
</style>
<g>
	<path class="st0" d="M75.19,148.44c-0.03,0-0.06,0-0.09,0c-2.78-0.05-4.99-2.34-4.94-5.12l0.59-34.62
		c0.03-2.06,1.32-3.89,3.25-4.62l49.42-18.64c2.6-0.98,5.5,0.33,6.48,2.93c0.98,2.6-0.33,5.5-2.93,6.48l-46.22,17.44l-0.53,31.21
		C80.17,146.24,77.93,148.44,75.19,148.44z"/>
	<path class="st0" d="M151.23,79.49"/>
	<path class="st0" d="M213.96,422.74c-0.29,0-0.58-0.02-0.86-0.07c-1.09-0.19-26.84-4.82-48.83-20.7c-5.11-3.69-9.62-6.82-13.6-9.58
		c-10.15-7.04-18.16-12.6-28.58-22.16c-13.55-12.44-33.85-34.28-50.17-58.28c-29.89-43.95-37.86-110.25-37.86-142.49
		c0-28.69,0.59-87.93,0.59-88.53c0.02-2.23,1.51-4.18,3.65-4.79c0.48-0.14,48.61-13.89,84.71-28.53
		c42.9-17.39,86.73-43.76,87.17-44.03c1.55-0.94,3.49-0.97,5.07-0.08c0.28,0.16,28.69,16.1,64.2,32.98
		c35.39,16.82,107.56,40.36,108.29,40.59c2.15,0.7,3.57,2.75,3.47,5.01c-0.01,0.13-0.58,14.3,0,84.66
		c0.59,71.46-20.55,131.63-62.83,178.87c-52.56,58.72-110.56,76.21-113,76.93C214.92,422.67,214.44,422.74,213.96,422.74z
		 M44.67,84.76c-0.13,13.51-0.56,60.23-0.56,84.69c0,31.1,7.61,94.91,36.12,136.84c15.84,23.29,35.52,44.47,48.66,56.53
		c9.92,9.1,17.3,14.22,27.51,21.31c4.01,2.78,8.56,5.94,13.75,9.69c17.56,12.68,38.42,17.65,43.52,18.72
		c8.27-2.73,60.58-21.53,107.21-73.62c40.56-45.31,60.83-103.2,60.27-172.07c-0.43-52.57-0.24-73.71-0.09-81.35
		c-15.22-5.02-74.09-24.77-105.93-39.9c-29.69-14.11-54.47-27.59-62.26-31.88c-10.03,5.9-48.36,27.96-86.08,43.25
		C95.97,69.42,56.65,81.25,44.67,84.76z"/>
	<path class="st0" d="M181.72,292.87c-0.31,0-0.61-0.01-0.91-0.02c-9.78-0.42-16.11-7.44-20.73-12.56c-0.9-0.99-1.74-1.93-2.5-2.69
		l-42.46-42.46c-0.04-0.04-0.08-0.08-0.12-0.13c-12.53-13.45-12.18-27.53,1.01-40.72c5.61-5.61,13.42-6.75,21.99-3.22
		c7.38,3.04,13.78,8.79,16.93,11.95l29.74,29.74c16.17-16.06,82.19-81.69,90.12-90.14c12.31-13.11,26.58-15.26,37.23-5.61
		c4.65,4.21,7.19,9.77,7.34,16.08c0.21,8.46-3.97,17.6-11.45,25.09c-2.4,2.4-7.95,8.02-14.96,15.13
		c-24.91,25.25-71.27,72.25-88.58,88.4C196.35,289.21,188.93,292.87,181.72,292.87z M122.3,228.1l42.4,42.4
		c0.94,0.94,1.87,1.97,2.85,3.06c3.81,4.22,8.12,9.01,13.69,9.25c4.59,0.22,10.06-2.64,16.27-8.43
		c17.15-16.01,63.42-62.91,88.28-88.11c7.3-7.41,12.58-12.76,15.01-15.18c5.47-5.47,8.65-12.09,8.51-17.73
		c-0.09-3.54-1.45-6.52-4.04-8.87c-8.65-7.84-18.21-0.2-23.14,5.04c-9.13,9.72-90.47,90.49-93.92,93.93
		c-1.96,1.95-5.14,1.95-7.1-0.01l-33.29-33.29c-4.47-4.47-9.45-8.03-13.65-9.76c-6.35-2.62-9.34-0.66-11.04,1.03
		C113.83,210.71,113.58,218.7,122.3,228.1z"/>
	<path class="st0" d="M258.94,362.08c-1.48,0-2.94-0.65-3.93-1.89c-1.74-2.17-1.38-5.33,0.78-7.07c0.09-0.07,8.88-7.14,22.41-20.38
		c13.51-13.23,35.15-40.67,35.37-40.94c1.72-2.18,4.88-2.56,7.06-0.84c2.18,1.72,2.56,4.88,0.84,7.06
		c-0.9,1.15-22.26,28.23-36.24,41.91c-13.93,13.63-22.79,20.75-23.16,21.05C261.16,361.72,260.05,362.08,258.94,362.08z"/>
	<circle class="st0" cx="239.56" cy="368.74" r="8.14"/>
	<circle class="st0" cx="150.49" cy="79.35" r="8.14"/>
</g>
</svg>
