<?xml version="1.0" encoding="utf-8"?>
<!-- Generator: Adobe Illustrator 23.0.0, SVG Export Plug-In . SVG Version: 6.00 Build 0)  -->
<svg version="1.1" id="Capa_1" xmlns="http://www.w3.org/2000/svg" xmlns:xlink="http://www.w3.org/1999/xlink" x="0px" y="0px"
	 viewBox="0 0 425.2 425.2" style="enable-background:new 0 0 425.2 425.2;" xml:space="preserve">
<style type="text/css">
	.st0{fill:#FFFAD2;}
</style>
<g>
	<g>
		<path class="st0" d="M36.69,377.86c-11.24,0-17.21-0.56-20.09-2.49c-6-4-5.31-14.64-4.63-24.92c0.17-2.51,0.32-4.88,0.32-6.64
			c0-23.28-0.36-37.36-0.62-47.63c-0.15-6.06-0.28-10.85-0.28-15.52v-0.59c0-6.86,0-11.81,3.7-15.5c3.72-3.7,9.6-4.4,19.17-4.4
			c8.28,0,90.62,0.3,170.25,0.59c81.75,0.3,166.28,0.6,174.98,0.6c3.38,0,6.6-0.22,9.44-0.42c7.63-0.53,14.21-0.98,18.85,3.35
			c3.22,3,4.71,7.64,4.71,14.58v90.55c0,6.93-9,7.62-13.84,7.99c-5.8,0.44-13.44,0.45-21.55,0.44h-1.93
			c-16.46,0-172.23-0.44-174.41-0.45c-2.08,0-136.6,0.3-149.53,0.3c-1.27,0-2.99,0.03-4.97,0.06
			C42.72,377.82,39.53,377.86,36.69,377.86z M22.28,367.03c3.79,1.07,18.24,0.83,23.82,0.73c2.05-0.03,3.83-0.06,5.14-0.06
			c12.95,0,148.16-0.29,149.52-0.3c0.01,0,0.02,0,0.02,0c1.58,0,157.91,0.45,174.39,0.45h1.93c8.93,0.01,20.75,0.01,25.39-0.93
			v-88.04c0-5.08-0.96-6.74-1.54-7.27c-1.46-1.36-6.25-1.03-11.34-0.68c-3,0.21-6.4,0.44-10.13,0.44c-8.72,0-93.26-0.31-175.02-0.6
			c-79.62-0.29-161.96-0.59-170.22-0.59c-8.78,0-11.43,0.81-12.12,1.49c-0.76,0.75-0.76,4.82-0.76,8.4v0.6
			c0,4.54,0.12,9.27,0.27,15.26c0.26,10.33,0.62,24.48,0.62,47.89c0,2.09-0.17,4.62-0.34,7.29
			C21.66,355.51,21.07,364.49,22.28,367.03z"/>
		<path class="st0" d="M137.93,375.61c-2.76,0-5-2.24-5-5V268.15c0-2.76,2.24-5,5-5s5,2.24,5,5v102.47
			C142.93,373.38,140.69,375.61,137.93,375.61z"/>
		<path class="st0" d="M286.56,376.21c-2.76,0-5-2.24-5-5V268.15c0-2.76,2.24-5,5-5s5,2.24,5,5v103.06
			C291.56,373.97,289.33,376.21,286.56,376.21z"/>
		<path class="st0" d="M286.56,323.78H137.63c-2.76,0-5-2.24-5-5s2.24-5,5-5h148.94c2.76,0,5,2.24,5,5S289.33,323.78,286.56,323.78z
			"/>
		<path class="st0" d="M99.2,297.57H57.8c-2.76,0-5-2.24-5-5s2.24-5,5-5h41.4c2.76,0,5,2.24,5,5S101.96,297.57,99.2,297.57z"/>
		<path class="st0" d="M366.99,297.57h-42.6c-2.76,0-5-2.24-5-5s2.24-5,5-5h42.6c2.76,0,5,2.24,5,5S369.75,297.57,366.99,297.57z"/>
		<path class="st0" d="M35.15,413.74c-0.87,0-1.75-0.23-2.56-0.71c-2.37-1.41-3.15-4.48-1.73-6.86l20.26-33.96
			c1.41-2.37,4.48-3.15,6.86-1.73c2.37,1.41,3.15,4.48,1.73,6.86L39.45,411.3C38.52,412.87,36.86,413.74,35.15,413.74z"/>
		<path class="st0" d="M388.14,414.04c-1.7,0-3.36-0.87-4.3-2.44l-20.25-33.96c-1.42-2.37-0.64-5.44,1.73-6.86
			c2.37-1.42,5.44-0.64,6.86,1.73l20.25,33.96c1.42,2.37,0.64,5.44-1.73,6.86C389.9,413.81,389.01,414.04,388.14,414.04z"/>
		<path class="st0" d="M153.11,267.79c-0.89,0-1.79-0.24-2.61-0.74c-2.35-1.44-3.1-4.52-1.65-6.88l17.87-29.19
			c1.44-2.36,4.52-3.09,6.88-1.65c2.35,1.44,3.1,4.52,1.65,6.88l-17.87,29.19C156.44,266.94,154.8,267.79,153.11,267.79z"/>
		<path class="st0" d="M273.46,269.57c-1.59,0-3.16-0.76-4.13-2.17l-22.04-32.17c-1.56-2.28-0.98-5.39,1.3-6.95
			c2.28-1.56,5.39-0.98,6.95,1.3l22.04,32.17c1.56,2.28,0.98,5.39-1.3,6.95C275.42,269.29,274.44,269.57,273.46,269.57z"/>
		<path class="st0" d="M40.12,237.27c-4.54,0-9.14-0.76-12.25-4.21c-4.06-4.51-3.63-11.91-3.25-18.44c0.09-1.58,0.18-3.06,0.18-4.27
			V44.15c0-0.91-0.06-2.24-0.12-3.77c-0.44-10.3-0.5-19.96,3.64-25.01c3.14-3.84,10.68-4.29,33.3-3.77c3.25,0.08,6.32,0.15,8.7,0.15
			h303.23c1.11,0,2.2-0.01,3.24-0.02c8.32-0.07,15.5-0.13,19.27,5.06c2.26,3.11,2.66,10.6,2.03,38.18
			c-0.1,4.23-0.18,7.89-0.18,10.34c0,8.52,0.13,35.27,0.26,63.59c0.16,34.02,0.33,69.19,0.33,82.66c0,2.43,0.09,4.65,0.16,6.6
			c0.26,6.75,0.49,12.59-4.4,15.98c-3.81,2.64-13.09,2.9-32.43,2.47c-2.4-0.05-4.44-0.1-5.86-0.1c-5.55,0-62.6,0.06-126.06,0.12
			c-79.31,0.08-169.21,0.17-180.15,0.17c-1.14,0-2.55,0.1-4.04,0.21C43.94,237.14,42.03,237.27,40.12,237.27z M35.71,22.24
			c-1.66,3.32-1.22,13.66-1.04,17.71c0.07,1.65,0.13,3.07,0.13,4.2v166.21c0,1.5-0.09,3.12-0.19,4.85
			c-0.18,3.17-0.57,9.76,0.7,11.17c1.14,1.27,6.71,0.88,9.71,0.66c1.67-0.12,3.25-0.23,4.75-0.23c10.93,0,100.83-0.09,180.14-0.17
			c63.47-0.07,120.52-0.12,126.07-0.12c1.47,0,3.59,0.04,6.08,0.1c6.26,0.14,22.57,0.49,26.47-0.75c0.39-1.12,0.26-4.54,0.15-7.32
			c-0.08-2.05-0.17-4.37-0.17-6.99c0-13.45-0.18-50.19-0.33-82.61c-0.14-28.33-0.26-55.09-0.26-63.64c0-2.56,0.08-6.27,0.18-10.57
			c0.21-9.14,0.63-27.77-0.36-32.24c-1.5-0.84-7.09-0.79-10.86-0.76c-1.07,0.01-2.18,0.02-3.32,0.02H70.31
			c-2.5,0-5.62-0.07-8.93-0.15C54.21,21.43,39.66,21.09,35.71,22.24z M35.2,22.42L35.2,22.42L35.2,22.42z M387.6,22L387.6,22
			C387.6,22,387.6,22,387.6,22z"/>
		<path class="st0" d="M54.42,97.6c-1.29,0-2.57-0.49-3.55-1.48c-1.95-1.96-1.93-5.13,0.03-7.07l52.82-52.43
			c1.96-1.95,5.13-1.93,7.07,0.03s1.93,5.13-0.03,7.07L57.94,96.15C56.97,97.12,55.7,97.6,54.42,97.6z"/>
		<path class="st0" d="M54.82,57.88c-1.19,0-2.39-0.42-3.34-1.28c-2.05-1.85-2.22-5.01-0.37-7.06l10.72-11.92
			c1.85-2.05,5.01-2.22,7.06-0.37c2.05,1.85,2.22,5.01,0.37,7.06L58.54,56.23C57.55,57.32,56.19,57.88,54.82,57.88z"/>
	</g>
	<g>
		<path class="st0" d="M216.66,208.27c-46.37,0-84.09-38.13-84.09-85.01s37.72-85.01,84.09-85.01c46.37,0,84.09,38.13,84.09,85.01
			S263.02,208.27,216.66,208.27z M216.66,48.26c-40.86,0-74.09,33.65-74.09,75.01s33.24,75.01,74.09,75.01
			c40.86,0,74.09-33.65,74.09-75.01S257.51,48.26,216.66,48.26z"/>
		<polygon class="st0" points="153.35,140.68 153.35,106.75 158.38,106.75 165.37,125.5 165.53,106.83 170.89,106.58 171.05,138.41 
			165.04,139.22 158.71,121.68 158.71,140.19 		"/>
		<path class="st0" d="M175.76,106.83v31.09l15.1-0.97v-5.03l-9.74,0.49v-7.79l7.31,0.16v-5.52l-7.31,0.16v-7.14h9.58v-5.52
			C190.7,106.75,175.84,106.91,175.76,106.83z"/>
		<polygon class="st0" points="199.55,136.38 199.63,111.94 194.02,112.19 193.94,106.66 210.34,106.66 210.51,112.27 
			204.98,112.02 205.23,136.46 		"/>
		<polygon class="st0" points="213.91,106.75 214,136.38 219.52,136.46 219.44,124.04 226.66,124.28 226.58,119.09 219.27,118.92 
			219.27,111.94 229.1,112.19 229.02,106.75 		"/>
		<polygon class="st0" points="232.26,136.54 232.18,106.83 237.78,106.75 237.54,131.35 246.79,131.75 246.71,137.52 		"/>
		<polygon class="st0" points="251.02,106.5 251.1,137.68 256.46,138 256.37,106.75 		"/>
		<polygon class="st0" points="260.84,106.75 267.17,122.58 260.27,138.57 265.87,138.9 269.93,129.72 273.67,140.11 280.08,140.76 
			272.69,122.66 279.92,106.91 273.75,106.91 270.18,115.6 266.69,106.99 		"/>
	</g>
</g>
</svg>
