<?xml version="1.0" encoding="utf-8"?>
<!-- Generator: Adobe Illustrator 23.0.0, SVG Export Plug-In . SVG Version: 6.00 Build 0)  -->
<svg version="1.1" id="Capa_1" xmlns="http://www.w3.org/2000/svg" xmlns:xlink="http://www.w3.org/1999/xlink" x="0px" y="0px"
	 viewBox="0 0 425.2 425.2" style="enable-background:new 0 0 425.2 425.2;" xml:space="preserve">
<style type="text/css">
	.st0{fill:none;stroke:#FFFAD2;stroke-width:10;stroke-linecap:round;stroke-linejoin:round;stroke-miterlimit:10;}
</style>
<g>
	<path class="st0" d="M95.6,372.87"/>
	<path class="st0" d="M305.5,372.87l-172.75,0.18c0,0-29.8,1.34-35.63-1.9c-5.83-3.24-5.28-3.56-11.13-11.79
		c-18.34-25.79-57.18-80.46-64.88-91.64c-9.07-13.17-4.44-19.81,0.86-23.54c13.82-9.72,20.23,2.07,41.03,31.96
		c22.24,31.96,48.8,67.59,48.8,67.59s220.91,0,244.23,0c9.28,0,17.37-0.85,22.89,0.65c6.04,1.64,9.07,5.84,9.07,10.58
		c0,6.69,3.24,17.49-22.46,17.49C337.01,372.44,305.5,372.87,305.5,372.87z"/>
	<line class="st0" x1="83.19" y1="299.99" x2="184.79" y2="299.02"/>
	<line class="st0" x1="96.09" y1="373.04" x2="88.48" y2="416.93"/>
	<line class="st0" x1="220.63" y1="416.6" x2="219.34" y2="155.21"/>
	<line class="st0" x1="156.71" y1="300.64" x2="185.43" y2="341.13"/>
	<line class="st0" x1="366.39" y1="372.66" x2="374.38" y2="416.49"/>
	<path class="st0" d="M45.51,168.16c0,0-0.86-53.98,41.89-94.58c44.58-42.33,88.53-50.96,133.45-52.26s101.49,19.43,135.61,55.71
		c32.03,34.05,32.82,53.98,36.28,69.1c3.46,15.12,3.02,21.59,3.02,21.59s-25.91-20.3-57.01-18.14
		c-22.84,1.59-45.78,8.21-53.12,13.82c-7.34,5.61-7.34,5.61-7.34,5.61s-16.41-17.71-56.14-18.14c-40.17-0.44-59.6,16.84-59.6,16.84
		s-26.78-18.57-62.62-17.71C67.97,150.8,45.51,168.16,45.51,168.16z"/>
	<line class="st0" x1="219.98" y1="7.07" x2="219.98" y2="22.19"/>
	<path class="st0" d="M210.91,22.62c0,0-18.14,6.48-33.69,47.51c-14.3,37.72-14.25,94.15-14.25,94.15"/>
	<path class="st0" d="M230.32,22.62c0,0,18.14,6.48,33.69,47.51c14.3,37.72,14.25,94.15,14.25,94.15"/>
</g>
</svg>
