<svg id="Capa_1" data-name="Capa 1" xmlns="http://www.w3.org/2000/svg" viewBox="0 0 49.89 42.37"><defs><style>.cls-1{fill:#656454;}.cls-2{fill:#7f7a4c;}.cls-3{fill:none;stroke:#1d1d1b;stroke-miterlimit:10;stroke-width:0.15px;}</style></defs><title>ZZZZZ</title><path class="cls-1" d="M6,15.61h.35v1.57H6l-.75-1v1H4.86V15.61h.33l.78,1Z" transform="translate(-1.13 -1.01)"/><path class="cls-1" d="M7.11,16.78a.32.32,0,0,0,.48,0,.56.56,0,0,0,.08-.3v-.87H8v.88a.7.7,0,0,1-.19.53.65.65,0,0,1-.48.18A.66.66,0,0,1,6.86,17a.7.7,0,0,1-.19-.52v-.88H7v.87A.48.48,0,0,0,7.11,16.78Z" transform="translate(-1.13 -1.01)"/><path class="cls-1" d="M9.51,15.61v.31H8.73v.33h.71v.3H8.73v.32h.81v.31H8.38V15.61Z" transform="translate(-1.13 -1.01)"/><path class="cls-1" d="M10.21,15.92a.16.16,0,0,0-.05.11.11.11,0,0,0,.06.11,1.11,1.11,0,0,0,.29.1.81.81,0,0,1,.35.16.45.45,0,0,1,.12.33.41.41,0,0,1-.16.34.6.6,0,0,1-.42.13.94.94,0,0,1-.67-.28l.21-.25a.74.74,0,0,0,.47.22.22.22,0,0,0,.15,0,.14.14,0,0,0,.06-.11.14.14,0,0,0-.06-.12l-.23-.08a1,1,0,0,1-.41-.17A.42.42,0,0,1,9.8,16a.41.41,0,0,1,.16-.35.65.65,0,0,1,.4-.12.91.91,0,0,1,.32.06.72.72,0,0,1,.27.15l-.18.26a.65.65,0,0,0-.42-.16A.2.2,0,0,0,10.21,15.92Z" transform="translate(-1.13 -1.01)"/><path class="cls-1" d="M11.92,15.91v1.27h-.35V15.91h-.45v-.3h1.25v.3Z" transform="translate(-1.13 -1.01)"/><path class="cls-1" d="M13.89,16.13a.46.46,0,0,1-.3.49l.4.56h-.43l-.35-.5H13v.5h-.35V15.61h.59a.9.9,0,0,1,.53.12A.49.49,0,0,1,13.89,16.13Zm-.42.19a.26.26,0,0,0,.07-.19.21.21,0,0,0-.07-.17.48.48,0,0,0-.24-.05H13v.47h.25A.38.38,0,0,0,13.47,16.32Z" transform="translate(-1.13 -1.01)"/><path class="cls-1" d="M15.55,17a.86.86,0,0,1-1.17,0,.83.83,0,0,1,0-1.17.86.86,0,0,1,1.17,0,.83.83,0,0,1,0,1.17Zm-.12-.58A.52.52,0,0,0,15.3,16a.43.43,0,0,0-.33-.15.43.43,0,0,0-.34.15.56.56,0,0,0,0,.72.46.46,0,0,0,.34.14.45.45,0,0,0,.33-.14A.52.52,0,0,0,15.43,16.39Z" transform="translate(-1.13 -1.01)"/><path class="cls-1" d="M16.43,15.92a.16.16,0,0,0-.05.11.11.11,0,0,0,.07.11,1,1,0,0,0,.28.1.76.76,0,0,1,.35.16.45.45,0,0,1,.12.33.43.43,0,0,1-.15.34.64.64,0,0,1-.42.13,1,1,0,0,1-.68-.28l.21-.25a.74.74,0,0,0,.47.22.25.25,0,0,0,.16,0,.16.16,0,0,0,.05-.11.14.14,0,0,0-.06-.12,1.11,1.11,0,0,0-.23-.08.94.94,0,0,1-.4-.17A.39.39,0,0,1,16,16a.41.41,0,0,1,.16-.35.65.65,0,0,1,.4-.12.91.91,0,0,1,.32.06.59.59,0,0,1,.27.15L17,16a.68.68,0,0,0-.43-.16A.21.21,0,0,0,16.43,15.92Z" transform="translate(-1.13 -1.01)"/><path class="cls-1" d="M19.16,15.75a.54.54,0,0,1,.17.43.52.52,0,0,1-.17.43.85.85,0,0,1-.52.13h-.21v.44h-.35V15.61h.55A.77.77,0,0,1,19.16,15.75Zm-.26.62a.28.28,0,0,0,.07-.21.23.23,0,0,0-.08-.19.45.45,0,0,0-.26-.06h-.2v.53h.24A.29.29,0,0,0,18.9,16.37Z" transform="translate(-1.13 -1.01)"/><path class="cls-1" d="M20.57,15.61h.35v1.57h-.35v-.62h-.63v.62h-.35V15.61h.35v.66h.63Z" transform="translate(-1.13 -1.01)"/><path class="cls-1" d="M23,15.61v.31h-.78v.33h.7v.3h-.7v.32H23v.31H21.88V15.61Z" transform="translate(-1.13 -1.01)"/><path class="cls-1" d="M23.72,15.92a.14.14,0,0,0-.06.11.12.12,0,0,0,.07.11,1,1,0,0,0,.28.1.76.76,0,0,1,.35.16.45.45,0,0,1,.13.33.44.44,0,0,1-.16.34.64.64,0,0,1-.42.13,1,1,0,0,1-.68-.28l.21-.25a.74.74,0,0,0,.48.22.24.24,0,0,0,.15,0,.16.16,0,0,0,.05-.11.14.14,0,0,0-.06-.12,1.11,1.11,0,0,0-.23-.08.94.94,0,0,1-.4-.17A.39.39,0,0,1,23.3,16a.43.43,0,0,1,.16-.35.66.66,0,0,1,.41-.12.85.85,0,0,1,.31.06.69.69,0,0,1,.28.15l-.18.26a.68.68,0,0,0-.43-.16A.18.18,0,0,0,23.72,15.92Z" transform="translate(-1.13 -1.01)"/><path class="cls-1" d="M25.43,15.91v1.27h-.35V15.91h-.45v-.3h1.24v.3Z" transform="translate(-1.13 -1.01)"/><path class="cls-1" d="M27.13,17.18,27,16.84h-.66l-.15.34H25.8l.68-1.57h.34l.68,1.57Zm-.48-1.1-.2.45h.4Z" transform="translate(-1.13 -1.01)"/><path class="cls-1" d="M28.78,15.61h.35v1.57h-.35l-.75-1v1h-.36V15.61H28l.78,1Z" transform="translate(-1.13 -1.01)"/><path class="cls-1" d="M31.18,15.75a.53.53,0,0,1,.16.43.52.52,0,0,1-.17.43.83.83,0,0,1-.52.13h-.21v.44h-.35V15.61h.56A.8.8,0,0,1,31.18,15.75Zm-.26.62a.33.33,0,0,0,.06-.21A.23.23,0,0,0,30.9,16a.45.45,0,0,0-.26-.06h-.2v.53h.24A.31.31,0,0,0,30.92,16.37Z" transform="translate(-1.13 -1.01)"/><path class="cls-1" d="M32.74,15.61v.31H32v.33h.7v.3H32v.32h.81v.31H31.6V15.61Z" transform="translate(-1.13 -1.01)"/><path class="cls-1" d="M34.17,15.61h.35v1.57h-.35l-.75-1v1h-.35V15.61h.33l.77,1Z" transform="translate(-1.13 -1.01)"/><path class="cls-1" d="M35.27,15.92a.13.13,0,0,0-.05.11.11.11,0,0,0,.06.11,1.11,1.11,0,0,0,.29.1.72.72,0,0,1,.34.16.46.46,0,0,1,0,.67.64.64,0,0,1-.42.13.94.94,0,0,1-.67-.28l.21-.25a.72.72,0,0,0,.47.22.24.24,0,0,0,.15,0,.14.14,0,0,0,.06-.11.14.14,0,0,0-.06-.12l-.24-.08a1,1,0,0,1-.4-.17.42.42,0,0,1-.13-.33.41.41,0,0,1,.17-.35.63.63,0,0,1,.4-.12.85.85,0,0,1,.31.06.69.69,0,0,1,.28.15l-.18.26a.67.67,0,0,0-.42-.16A.2.2,0,0,0,35.27,15.92Z" transform="translate(-1.13 -1.01)"/><path class="cls-1" d="M37.43,17.18l-.14-.34h-.67l-.14.34H36.1l.68-1.57h.35l.68,1.57ZM37,16.08l-.2.45h.39Z" transform="translate(-1.13 -1.01)"/><path class="cls-1" d="M39.18,15.81a.75.75,0,0,1,.23.58.8.8,0,0,1-.22.58.94.94,0,0,1-.67.21H38V15.61h.55A1,1,0,0,1,39.18,15.81Zm-.26.94a.45.45,0,0,0,.13-.35.45.45,0,0,0-.13-.36.55.55,0,0,0-.39-.13h-.2v1h.22A.51.51,0,0,0,38.92,16.75Z" transform="translate(-1.13 -1.01)"/><path class="cls-1" d="M41,17a.84.84,0,0,1-.59.23.82.82,0,0,1-.59-.23.83.83,0,0,1,0-1.17.82.82,0,0,1,.59-.23.84.84,0,0,1,.59.23A.83.83,0,0,1,41,17Zm-.12-.58a.52.52,0,0,0-.14-.36.44.44,0,0,0-.66,0,.53.53,0,0,0,0,.72.46.46,0,0,0,.66,0A.52.52,0,0,0,40.91,16.39Z" transform="translate(-1.13 -1.01)"/><path class="cls-1" d="M41.91,15.92a.13.13,0,0,0,0,.11.11.11,0,0,0,.06.11,1,1,0,0,0,.28.1.76.76,0,0,1,.35.16.42.42,0,0,1,.13.33.44.44,0,0,1-.16.34.64.64,0,0,1-.42.13.94.94,0,0,1-.67-.28l.21-.25a.7.7,0,0,0,.47.22.24.24,0,0,0,.15,0,.13.13,0,0,0,.05-.11.17.17,0,0,0-.05-.12L42,16.54a1,1,0,0,1-.4-.17.42.42,0,0,1-.13-.33.43.43,0,0,1,.16-.35.69.69,0,0,1,.41-.12.85.85,0,0,1,.31.06.69.69,0,0,1,.28.15l-.18.26a.67.67,0,0,0-.42-.16A.2.2,0,0,0,41.91,15.92Z" transform="translate(-1.13 -1.01)"/><path class="cls-1" d="M6,18.76a.52.52,0,0,1,.17.43.54.54,0,0,1-.17.43.85.85,0,0,1-.52.13H5.22v.44H4.86V18.61h.56A.78.78,0,0,1,6,18.76Zm-.26.62a.33.33,0,0,0,.07-.21.23.23,0,0,0-.09-.2.52.52,0,0,0-.25,0h-.2v.53h.23A.34.34,0,0,0,5.69,19.38Z" transform="translate(-1.13 -1.01)"/><path class="cls-1" d="M7.41,20.19l-.15-.34H6.6l-.14.34H6.08l.68-1.58H7.1l.69,1.58Zm-.48-1.11-.19.46h.39Z" transform="translate(-1.13 -1.01)"/><path class="cls-1" d="M9.24,19.14a.47.47,0,0,1-.3.49l.39.56H8.9l-.35-.5H8.31v.5H8V18.61h.59a.89.89,0,0,1,.53.13A.48.48,0,0,1,9.24,19.14Zm-.43.18a.27.27,0,0,0,0-.36.49.49,0,0,0-.24,0H8.31v.46h.26A.35.35,0,0,0,8.81,19.32Z" transform="translate(-1.13 -1.01)"/><path class="cls-1" d="M10.71,20.19l-.15-.34H9.9l-.15.34H9.38l.68-1.58h.34l.68,1.58Zm-.48-1.11-.2.46h.4Z" transform="translate(-1.13 -1.01)"/><path class="cls-1" d="M12.42,19.62l.4-1h.38l-.63,1.58h-.3l-.63-1.58H12Z" transform="translate(-1.13 -1.01)"/><path class="cls-1" d="M14.4,20.19l-.14-.34H13.6l-.15.34h-.37l.68-1.58h.34l.68,1.58Zm-.47-1.11-.2.46h.39Z" transform="translate(-1.13 -1.01)"/><path class="cls-1" d="M15.67,19.88a.52.52,0,0,0,.43-.21l.22.24a.82.82,0,0,1-.63.3.85.85,0,0,1-.6-.23.77.77,0,0,1-.24-.58.79.79,0,0,1,.24-.59.87.87,0,0,1,1.24.06l-.22.25a.51.51,0,0,0-.41-.21.51.51,0,0,0-.34.13.45.45,0,0,0-.14.35.48.48,0,0,0,.13.36A.44.44,0,0,0,15.67,19.88Z" transform="translate(-1.13 -1.01)"/><path class="cls-1" d="M17.7,20.19l-.15-.34h-.66l-.14.34h-.38l.68-1.58h.34l.68,1.58Zm-.48-1.11-.19.46h.39Z" transform="translate(-1.13 -1.01)"/><path class="cls-1" d="M19,19.88a.51.51,0,0,0,.42-.21l.23.24a.82.82,0,0,1-.63.3.81.81,0,0,1-.6-.23.77.77,0,0,1-.24-.58.79.79,0,0,1,.24-.59.84.84,0,0,1,.59-.23.86.86,0,0,1,.65.29l-.22.25a.51.51,0,0,0-.42-.21.49.49,0,0,0-.33.13.45.45,0,0,0-.15.35.49.49,0,0,0,.14.36A.42.42,0,0,0,19,19.88Z" transform="translate(-1.13 -1.01)"/><path class="cls-1" d="M19.89,18.61h.35v1.58h-.35Z" transform="translate(-1.13 -1.01)"/><path class="cls-1" d="M21.94,20a.85.85,0,0,1-1.18,0,.77.77,0,0,1-.24-.58.78.78,0,0,1,.24-.58.87.87,0,0,1,1.18,0,.78.78,0,0,1,.24.58A.77.77,0,0,1,21.94,20Zm-.12-.58a.52.52,0,0,0-.13-.36.45.45,0,0,0-.34-.14A.42.42,0,0,0,21,19a.53.53,0,0,0,0,.72.43.43,0,0,0,.33.15.46.46,0,0,0,.34-.15A.52.52,0,0,0,21.82,19.39Z" transform="translate(-1.13 -1.01)"/><path class="cls-1" d="M23.57,18.61h.35v1.58h-.35l-.75-1v1h-.35V18.61h.32l.78,1Z" transform="translate(-1.13 -1.01)"/><path class="cls-1" d="M25.42,20.19l-.15-.34h-.66l-.14.34h-.38l.68-1.58h.34l.68,1.58Zm-.48-1.11-.19.46h.39Z" transform="translate(-1.13 -1.01)"/><path class="cls-1" d="M27.24,19.14a.47.47,0,0,1-.3.49l.4.56h-.43l-.35-.5h-.24v.5H26V18.61h.59a.89.89,0,0,1,.53.13A.48.48,0,0,1,27.24,19.14Zm-.42.18a.27.27,0,0,0,0-.36.49.49,0,0,0-.24,0h-.26v.46h.25A.38.38,0,0,0,26.82,19.32Z" transform="translate(-1.13 -1.01)"/><path class="cls-1" d="M28.9,19.88a.5.5,0,0,0,.42-.21l.23.24a.82.82,0,0,1-.63.3.85.85,0,0,1-.6-.23.77.77,0,0,1-.24-.58.79.79,0,0,1,.24-.59.87.87,0,0,1,1.24.06l-.22.25a.51.51,0,0,0-.41-.21.49.49,0,0,0-.34.13.45.45,0,0,0-.14.35.48.48,0,0,0,.13.36A.42.42,0,0,0,28.9,19.88Z" transform="translate(-1.13 -1.01)"/><path class="cls-1" d="M31.11,20a.85.85,0,0,1-1.18,0,.77.77,0,0,1-.24-.58.78.78,0,0,1,.24-.58.87.87,0,0,1,1.18,0,.78.78,0,0,1,.24.58A.77.77,0,0,1,31.11,20ZM31,19.39a.52.52,0,0,0-.14-.36.46.46,0,0,0-.66,0,.53.53,0,0,0,0,.72.44.44,0,0,0,.66,0A.52.52,0,0,0,31,19.39Z" transform="translate(-1.13 -1.01)"/><path class="cls-1" d="M32.74,18.61h.35v1.58h-.35l-.75-1v1h-.36V18.61H32l.78,1Z" transform="translate(-1.13 -1.01)"/><path class="cls-1" d="M35.17,20.19,35,19.85h-.67l-.14.34h-.38l.69-1.58h.34l.68,1.58Zm-.47-1.11-.2.46h.39Z" transform="translate(-1.13 -1.01)"/><path class="cls-1" d="M37.13,19.2l-.43.86h-.21l-.42-.86v1h-.35V18.61h.47l.41.87.41-.87h.47v1.58h-.35Z" transform="translate(-1.13 -1.01)"/><path class="cls-1" d="M37.86,18.61h.35v1.58h-.35Z" transform="translate(-1.13 -1.01)"/><path class="cls-1" d="M39.61,19.39H40V20a.83.83,0,0,1-.65.26.82.82,0,0,1-.58-.23.76.76,0,0,1-.23-.58.79.79,0,0,1,.24-.59.82.82,0,0,1,.58-.23.87.87,0,0,1,.59.22l-.19.27a.5.5,0,0,0-.19-.13.43.43,0,0,0-.19,0A.46.46,0,0,0,39,19a.49.49,0,0,0-.14.36.48.48,0,0,0,.13.36.42.42,0,0,0,.32.13.56.56,0,0,0,.3-.07Z" transform="translate(-1.13 -1.01)"/><path class="cls-1" d="M41.59,20a.79.79,0,0,1-.59.24.82.82,0,0,1-.82-.82.78.78,0,0,1,.24-.58.8.8,0,0,1,.58-.23.82.82,0,0,1,.59.23.78.78,0,0,1,.24.58A.77.77,0,0,1,41.59,20Zm-.12-.58a.52.52,0,0,0-.13-.36.42.42,0,0,0-.34-.14.42.42,0,0,0-.33.14.56.56,0,0,0,0,.72.43.43,0,0,0,.33.15.43.43,0,0,0,.34-.15A.52.52,0,0,0,41.47,19.39Z" transform="translate(-1.13 -1.01)"/><path class="cls-1" d="M42.47,18.93a.14.14,0,0,0,0,.11.13.13,0,0,0,.06.11,1,1,0,0,0,.29.09.88.88,0,0,1,.35.17.41.41,0,0,1,.12.32.43.43,0,0,1-.16.35.65.65,0,0,1-.41.13,1,1,0,0,1-.68-.28l.21-.26a.76.76,0,0,0,.47.23.27.27,0,0,0,.15,0,.14.14,0,0,0,.06-.12.14.14,0,0,0-.06-.11.59.59,0,0,0-.23-.08,1.08,1.08,0,0,1-.4-.17.39.39,0,0,1-.13-.33.41.41,0,0,1,.16-.35.65.65,0,0,1,.4-.12,1.19,1.19,0,0,1,.32.05.81.81,0,0,1,.27.16L43,19a.72.72,0,0,0-.43-.15A.21.21,0,0,0,42.47,18.93Z" transform="translate(-1.13 -1.01)"/><path class="cls-1" d="M45.44,20a.79.79,0,0,1-.59.24.8.8,0,0,1-.82-.82.82.82,0,0,1,.23-.58.84.84,0,0,1,.59-.23.82.82,0,0,1,.59.23.78.78,0,0,1,.24.58A.77.77,0,0,1,45.44,20Zm-.12-.58a.52.52,0,0,0-.13-.36.42.42,0,0,0-.34-.14.42.42,0,0,0-.33.14.56.56,0,0,0,0,.72.43.43,0,0,0,.33.15.43.43,0,0,0,.34-.15A.52.52,0,0,0,45.32,19.39Z" transform="translate(-1.13 -1.01)"/><path class="cls-1" d="M6,21.62v.31H5.22v.33h.7v.3h-.7v.33H6v.31H4.86V21.62Z" transform="translate(-1.13 -1.01)"/><path class="cls-1" d="M7.43,21.62h.35V23.2H7.43l-.75-1v1H6.33V21.62h.33l.77,1Z" transform="translate(-1.13 -1.01)"/><path class="cls-1" d="M9.83,21.62v.31H9.1v.34h.69v.31H9.1v.62H8.74V21.62Z" transform="translate(-1.13 -1.01)"/><path class="cls-1" d="M11.15,23.2,11,22.86h-.66l-.14.34H9.82l.68-1.58h.34l.68,1.58Zm-.48-1.11-.19.46h.39Z" transform="translate(-1.13 -1.01)"/><path class="cls-1" d="M13.11,22.21l-.43.86h-.21l-.42-.86v1H11.7V21.62h.47l.41.87.41-.87h.47V23.2h-.35Z" transform="translate(-1.13 -1.01)"/><path class="cls-1" d="M13.84,21.62h.35V23.2h-.35Z" transform="translate(-1.13 -1.01)"/><path class="cls-1" d="M14.56,23.2V21.62h.36v1.26h.67v.32Z" transform="translate(-1.13 -1.01)"/><path class="cls-1" d="M15.83,21.62h.36V23.2h-.36Z" transform="translate(-1.13 -1.01)"/><path class="cls-1" d="M17.68,23.2l-.14-.34h-.66l-.15.34h-.37L17,21.62h.34l.68,1.58Zm-.47-1.11-.2.46h.4Z" transform="translate(-1.13 -1.01)"/><path class="cls-1" d="M19.15,22a1.72,1.72,0,0,0-.09.52,1.67,1.67,0,0,0,.09.52,1.58,1.58,0,0,0,.23.47H19a1.43,1.43,0,0,1-.21-.43,1.87,1.87,0,0,1-.09-.56,1.81,1.81,0,0,1,.09-.55A1.39,1.39,0,0,1,19,21.5h.36A1.72,1.72,0,0,0,19.15,22Z" transform="translate(-1.13 -1.01)"/><path class="cls-1" d="M20.3,23.2H20v-.62l-.55-1h.38l.34.59.34-.59h.38l-.54,1Z" transform="translate(-1.13 -1.01)"/><path class="cls-1" d="M22,23.2l-.14-.34h-.66l-.15.34h-.37l.68-1.58h.34l.68,1.58Zm-.47-1.11-.2.46h.39Z" transform="translate(-1.13 -1.01)"/><path class="cls-1" d="M24.71,22.4a.76.76,0,0,1-.13.44.72.72,0,0,1-.33.29.09.09,0,0,0,.06.06.16.16,0,0,0,.09,0l.09,0,.08,0,.08-.1.18.22a.63.63,0,0,1-.48.21.56.56,0,0,1-.27-.08.58.58,0,0,1-.2-.21.8.8,0,0,1-.59-.23.78.78,0,0,1-.24-.58.77.77,0,0,1,.24-.58.87.87,0,0,1,1.18,0A.77.77,0,0,1,24.71,22.4Zm-.36,0a.52.52,0,0,0-.13-.36.45.45,0,0,0-.34-.15.43.43,0,0,0-.33.15.53.53,0,0,0,0,.72.43.43,0,0,0,.33.15.45.45,0,0,0,.34-.15A.52.52,0,0,0,24.35,22.4Z" transform="translate(-1.13 -1.01)"/><path class="cls-1" d="M25.41,22.79a.32.32,0,0,0,.48,0,.45.45,0,0,0,.08-.3v-.87h.36v.88a.73.73,0,0,1-.19.53.69.69,0,0,1-.49.18.65.65,0,0,1-.48-.18A.69.69,0,0,1,25,22.5v-.88h.35v.87A.51.51,0,0,0,25.41,22.79Z" transform="translate(-1.13 -1.01)"/><path class="cls-1" d="M27.82,21.62v.31H27v.33h.71v.3H27v.33h.81v.31H26.68V21.62Z" transform="translate(-1.13 -1.01)"/><path class="cls-1" d="M29.45,22.89a.53.53,0,0,0,.43-.21l.22.23a.84.84,0,0,1-.63.31.85.85,0,0,1-.6-.23.82.82,0,0,1,.59-1.4.81.81,0,0,1,.65.29l-.22.25a.51.51,0,0,0-.41-.21.45.45,0,0,0-.34.13.43.43,0,0,0-.14.35.46.46,0,0,0,.13.35A.45.45,0,0,0,29.45,22.89Z" transform="translate(-1.13 -1.01)"/><path class="cls-1" d="M31.66,23a.87.87,0,0,1-1.18,0,.78.78,0,0,1-.24-.58.77.77,0,0,1,.24-.58.87.87,0,0,1,1.18,0,.77.77,0,0,1,.24.58A.78.78,0,0,1,31.66,23Zm-.12-.58A.52.52,0,0,0,31.4,22a.44.44,0,0,0-.66,0,.53.53,0,0,0,0,.72.44.44,0,0,0,.66,0A.52.52,0,0,0,31.54,22.4Z" transform="translate(-1.13 -1.01)"/><path class="cls-1" d="M33.6,22.21l-.43.86H33l-.42-.86v1h-.36V21.62h.48l.41.87.4-.87H34V23.2H33.6Z" transform="translate(-1.13 -1.01)"/><path class="cls-1" d="M35.41,21.76a.56.56,0,0,1,.17.44.51.51,0,0,1-.17.42.85.85,0,0,1-.52.14h-.21v.44h-.36V21.62h.56A.84.84,0,0,1,35.41,21.76Zm-.26.62a.31.31,0,0,0,.07-.21.21.21,0,0,0-.09-.19.42.42,0,0,0-.25-.06h-.2v.53h.23A.3.3,0,0,0,35.15,22.38Z" transform="translate(-1.13 -1.01)"/><path class="cls-1" d="M36.87,23.2l-.15-.34h-.66l-.14.34h-.38l.68-1.58h.34l.68,1.58Zm-.48-1.11-.19.46h.39Z" transform="translate(-1.13 -1.01)"/><path class="cls-1" d="M38.69,22.14a.46.46,0,0,1-.3.49l.4.57h-.43L38,22.69h-.24v.51h-.35V21.62H38a.83.83,0,0,1,.53.13A.47.47,0,0,1,38.69,22.14Zm-.42.19a.25.25,0,0,0,.07-.18.22.22,0,0,0-.07-.18.48.48,0,0,0-.24,0h-.26v.47H38A.35.35,0,0,0,38.27,22.33Z" transform="translate(-1.13 -1.01)"/><path class="cls-1" d="M39.68,21.93V23.2h-.35V21.93h-.45v-.31h1.25v.31Z" transform="translate(-1.13 -1.01)"/><path class="cls-1" d="M41.51,21.62v.31h-.79v.33h.71v.3h-.71v.33h.81v.31H40.37V21.62Z" transform="translate(-1.13 -1.01)"/><path class="cls-1" d="M42.94,21.62h.35V23.2h-.35l-.75-1v1h-.35V21.62h.33l.77,1Z" transform="translate(-1.13 -1.01)"/><path class="cls-1" d="M6,24.77a.54.54,0,0,1,.17.43.52.52,0,0,1-.17.43.85.85,0,0,1-.52.13H5.22v.44H4.86V24.63h.56A.84.84,0,0,1,6,24.77Zm-.26.62a.33.33,0,0,0,.07-.21A.21.21,0,0,0,5.67,25a.42.42,0,0,0-.25-.06h-.2v.53h.23A.3.3,0,0,0,5.69,25.39Z" transform="translate(-1.13 -1.01)"/><path class="cls-1" d="M7.41,26.2l-.15-.34H6.6l-.14.34H6.08l.68-1.57H7.1l.69,1.57Zm-.48-1.1-.19.45h.39Z" transform="translate(-1.13 -1.01)"/><path class="cls-1" d="M9.24,25.15a.46.46,0,0,1-.3.49l.39.56H8.9l-.35-.5H8.31v.5H8V24.63h.59a.9.9,0,0,1,.53.12A.5.5,0,0,1,9.24,25.15Zm-.43.19a.26.26,0,0,0,.07-.19A.21.21,0,0,0,8.81,25a.48.48,0,0,0-.24-.05H8.31v.47h.26A.35.35,0,0,0,8.81,25.34Z" transform="translate(-1.13 -1.01)"/><path class="cls-1" d="M11.15,25.41a.76.76,0,0,1-.13.44.72.72,0,0,1-.33.29.17.17,0,0,0,.06.06l.09,0h.1l.07,0a.32.32,0,0,0,.08-.09l.18.22a.62.62,0,0,1-.48.2.54.54,0,0,1-.27-.07.58.58,0,0,1-.2-.21A.84.84,0,0,1,9.73,26a.78.78,0,0,1-.24-.58.75.75,0,0,1,.24-.58.85.85,0,0,1,1.18,0A.75.75,0,0,1,11.15,25.41Zm-.36,0a.52.52,0,0,0-.13-.36.45.45,0,0,0-.34-.15.43.43,0,0,0-.33.15.56.56,0,0,0,0,.72.45.45,0,0,0,.33.14.48.48,0,0,0,.34-.14A.52.52,0,0,0,10.79,25.41Z" transform="translate(-1.13 -1.01)"/><path class="cls-1" d="M11.86,25.8a.27.27,0,0,0,.23.11.3.3,0,0,0,.24-.11.48.48,0,0,0,.08-.3v-.87h.36v.88a.74.74,0,0,1-.19.53.69.69,0,0,1-.49.18.66.66,0,0,1-.48-.18.7.7,0,0,1-.19-.53v-.88h.35v.87A.49.49,0,0,0,11.86,25.8Z" transform="translate(-1.13 -1.01)"/><path class="cls-1" d="M14.26,24.63v.31h-.79v.33h.71v.3h-.71v.32h.81v.31H13.12V24.63Z" transform="translate(-1.13 -1.01)"/><path class="cls-1" d="M15.85,26.2h-.36v-.62L15,24.63h.38l.34.58.34-.58h.38l-.54.95Z" transform="translate(-1.13 -1.01)"/><path class="cls-1" d="M18.22,24.77a.54.54,0,0,1,.17.43.52.52,0,0,1-.17.43.85.85,0,0,1-.52.13h-.21v.44h-.36V24.63h.56A.84.84,0,0,1,18.22,24.77Zm-.26.62a.33.33,0,0,0,.07-.21.21.21,0,0,0-.09-.19.42.42,0,0,0-.25-.06h-.2v.53h.23A.3.3,0,0,0,18,25.39Z" transform="translate(-1.13 -1.01)"/><path class="cls-1" d="M18.65,24.63H19V26.2h-.35Z" transform="translate(-1.13 -1.01)"/><path class="cls-1" d="M19.38,26.2V24.63h.35v1.26h.67v.31Z" transform="translate(-1.13 -1.01)"/><path class="cls-1" d="M21.78,24.63v.31H21v.33h.71v.3H21v.32h.81v.31H20.65V24.63Z" transform="translate(-1.13 -1.01)"/><path class="cls-1" d="M22.78,24.93V26.2h-.35V24.93H22v-.3h1.25v.3Z" transform="translate(-1.13 -1.01)"/><path class="cls-1" d="M24.48,26.2l-.15-.34h-.66l-.14.34h-.38l.68-1.57h.34l.68,1.57ZM24,25.1l-.2.45h.4Z" transform="translate(-1.13 -1.01)"/><path class="cls-1" d="M25.12,26a1.72,1.72,0,0,0,.09-.52,1.67,1.67,0,0,0-.09-.52,2.15,2.15,0,0,0-.23-.48h.36a1.51,1.51,0,0,1,.2.44,1.62,1.62,0,0,1,.1.56,1.56,1.56,0,0,1-.1.55,1.4,1.4,0,0,1-.2.44h-.36A2.06,2.06,0,0,0,25.12,26Z" transform="translate(-1.13 -1.01)"/><path class="cls-1" d="M25.84,26.18a.19.19,0,0,1-.08-.15.2.2,0,0,1,.06-.15.25.25,0,0,1,.3,0,.18.18,0,0,1,.06.13.37.37,0,0,1-.07.19l-.13.23h-.22Z" transform="translate(-1.13 -1.01)"/><path class="cls-1" d="M27.75,26.2H27.4v-.62l-.55-.95h.38l.35.58.34-.58h.38l-.55.95Z" transform="translate(-1.13 -1.01)"/><path class="cls-1" d="M30.16,26.2,30,25.86h-.67l-.14.34h-.38l.68-1.57h.35l.68,1.57Zm-.47-1.1-.2.45h.39Z" transform="translate(-1.13 -1.01)"/><path class="cls-1" d="M31.66,24.94a.16.16,0,0,0-.05.11.11.11,0,0,0,.06.11,1.11,1.11,0,0,0,.29.1,1,1,0,0,1,.35.16.45.45,0,0,1,.12.33.41.41,0,0,1-.16.34.6.6,0,0,1-.42.13.94.94,0,0,1-.67-.28l.21-.25a.74.74,0,0,0,.47.22.22.22,0,0,0,.15,0,.14.14,0,0,0,.06-.11.14.14,0,0,0-.06-.12l-.23-.08a1,1,0,0,1-.41-.17.42.42,0,0,1-.12-.33.41.41,0,0,1,.16-.35.65.65,0,0,1,.4-.12.91.91,0,0,1,.32.06.72.72,0,0,1,.27.15l-.18.26a.65.65,0,0,0-.42-.16A.2.2,0,0,0,31.66,24.94Z" transform="translate(-1.13 -1.01)"/><path class="cls-1" d="M33.14,25.8a.27.27,0,0,0,.23.11.3.3,0,0,0,.24-.11.49.49,0,0,0,.09-.3v-.87h.35v.88a.74.74,0,0,1-.19.53.69.69,0,0,1-.49.18.66.66,0,0,1-.48-.18.7.7,0,0,1-.19-.53v-.88h.35v.87A.49.49,0,0,0,33.14,25.8Z" transform="translate(-1.13 -1.01)"/><path class="cls-1" d="M35.57,25.63l.4-1h.38l-.63,1.57h-.3l-.64-1.57h.39Z" transform="translate(-1.13 -1.01)"/><path class="cls-1" d="M37.66,24.63v.31h-.78v.33h.7v.3h-.7v.32h.81v.31H36.53V24.63Z" transform="translate(-1.13 -1.01)"/><path class="cls-1" d="M37.9,26.2V26l.82-1h-.79v-.3H39.2v.24l-.82,1h.84v.3Z" transform="translate(-1.13 -1.01)"/><path class="cls-1" d="M6,27.78a.52.52,0,0,1,.17.43.54.54,0,0,1-.17.43.85.85,0,0,1-.52.13H5.22v.44H4.86V27.63h.56A.78.78,0,0,1,6,27.78Zm-.26.62a.33.33,0,0,0,.07-.21.23.23,0,0,0-.09-.2.52.52,0,0,0-.25,0h-.2v.53h.23A.34.34,0,0,0,5.69,28.4Z" transform="translate(-1.13 -1.01)"/><path class="cls-1" d="M7.71,29a.81.81,0,0,1-.59.24A.79.79,0,0,1,6.53,29a.77.77,0,0,1-.24-.58.78.78,0,0,1,.24-.58.82.82,0,0,1,.59-.23.84.84,0,0,1,.59.23.78.78,0,0,1,.24.58A.77.77,0,0,1,7.71,29Zm-.12-.58a.52.52,0,0,0-.14-.36.46.46,0,0,0-.66,0,.53.53,0,0,0,0,.72.44.44,0,0,0,.66,0A.52.52,0,0,0,7.59,28.41Z" transform="translate(-1.13 -1.01)"/><path class="cls-1" d="M8.59,28a.12.12,0,0,0-.05.11.13.13,0,0,0,.06.11.8.8,0,0,0,.28.09.88.88,0,0,1,.35.17.38.38,0,0,1,.13.32.46.46,0,0,1-.16.35.7.7,0,0,1-.42.13A.94.94,0,0,1,8.11,29l.2-.26a.76.76,0,0,0,.48.23.33.33,0,0,0,.15,0A.13.13,0,0,0,9,28.76a.16.16,0,0,0-.05-.11.59.59,0,0,0-.24-.08,1.17,1.17,0,0,1-.4-.17.42.42,0,0,1-.13-.33.43.43,0,0,1,.16-.35.69.69,0,0,1,.41-.12,1.12,1.12,0,0,1,.31,0,.85.85,0,0,1,.28.16l-.18.25a.72.72,0,0,0-.42-.15A.2.2,0,0,0,8.59,28Z" transform="translate(-1.13 -1.01)"/><path class="cls-1" d="M10.78,27.63V28H10v.32h.7v.3H10v.33h.81v.31H9.65V27.63Z" transform="translate(-1.13 -1.01)"/><path class="cls-1" d="M12.25,27.63V28h-.79v.32h.71v.3h-.71v.33h.81v.31H11.11V27.63Z" transform="translate(-1.13 -1.01)"/><path class="cls-1" d="M13.68,27.63H14v1.58h-.35l-.76-1v1h-.35V27.63h.33l.78,1Z" transform="translate(-1.13 -1.01)"/><path class="cls-1" d="M15,29.21V27.63h.35V28.9H16v.31Z" transform="translate(-1.13 -1.01)"/><path class="cls-1" d="M17.38,29.21l-.15-.34h-.66l-.14.34h-.38l.68-1.58h.34l.68,1.58ZM16.9,28.1l-.19.46h.39Z" transform="translate(-1.13 -1.01)"/><path class="cls-1" d="M18.51,27.63h.35v1.58h-.35Z" transform="translate(-1.13 -1.01)"/><path class="cls-1" d="M20.34,27.63h.35v1.58h-.35l-.75-1v1h-.35V27.63h.33l.77,1Z" transform="translate(-1.13 -1.01)"/><path class="cls-1" d="M21.74,27.94v1.27h-.35V27.94h-.45v-.31h1.24v.31Z" transform="translate(-1.13 -1.01)"/><path class="cls-1" d="M22.43,27.63h.35v1.58h-.35Z" transform="translate(-1.13 -1.01)"/><path class="cls-1" d="M24.57,28.22l-.43.86h-.21l-.42-.86v1h-.35V27.63h.47l.41.87.41-.87h.47v1.58h-.35Z" transform="translate(-1.13 -1.01)"/><path class="cls-1" d="M25.3,27.63h.35v1.58H25.3Z" transform="translate(-1.13 -1.01)"/><path class="cls-1" d="M27.23,27.84a.75.75,0,0,1,.23.57.82.82,0,0,1-.22.59,1,1,0,0,1-.68.21H26V27.63h.55A.92.92,0,0,1,27.23,27.84Zm-.26.94a.45.45,0,0,0,.13-.36.45.45,0,0,0-.13-.35.52.52,0,0,0-.4-.13h-.19v1h.22A.51.51,0,0,0,27,28.78Z" transform="translate(-1.13 -1.01)"/><path class="cls-1" d="M28.83,29.21l-.15-.34H28l-.15.34H27.5l.68-1.58h.34l.68,1.58Zm-.48-1.11-.2.46h.4Z" transform="translate(-1.13 -1.01)"/><path class="cls-1" d="M30.58,27.84a.74.74,0,0,1,.22.57.78.78,0,0,1-.22.59.93.93,0,0,1-.67.21h-.54V27.63h.56A.92.92,0,0,1,30.58,27.84Zm-.26.94a.49.49,0,0,0,.13-.36.48.48,0,0,0-.13-.35.54.54,0,0,0-.4-.13h-.2v1H30A.53.53,0,0,0,30.32,28.78Z" transform="translate(-1.13 -1.01)"/><path class="cls-1" d="M32.88,27.84a.75.75,0,0,1,.23.57.78.78,0,0,1-.22.59.94.94,0,0,1-.67.21h-.54V27.63h.56A.9.9,0,0,1,32.88,27.84Zm-.25.94a.49.49,0,0,0,.13-.36.48.48,0,0,0-.13-.35.54.54,0,0,0-.4-.13H32v1h.22A.54.54,0,0,0,32.63,28.78Z" transform="translate(-1.13 -1.01)"/><path class="cls-1" d="M34.54,27.63V28h-.79v.32h.71v.3h-.71v.33h.81v.31H33.4V27.63Z" transform="translate(-1.13 -1.01)"/><path class="cls-1" d="M36.12,27.94v1.27h-.35V27.94h-.45v-.31h1.24v.31Z" transform="translate(-1.13 -1.01)"/><path class="cls-1" d="M38,27.63V28h-.79v.32h.71v.3h-.71v.33H38v.31H36.81V27.63Z" transform="translate(-1.13 -1.01)"/><path class="cls-1" d="M39.38,27.63h.35v1.58h-.35l-.76-1v1h-.35V27.63h.33l.78,1Z" transform="translate(-1.13 -1.01)"/><path class="cls-1" d="M41.24,27.63V28h-.78v.32h.7v.3h-.7v.33h.81v.31H40.1V27.63Z" transform="translate(-1.13 -1.01)"/><path class="cls-1" d="M42.85,28.16a.47.47,0,0,1-.3.49l.4.56h-.44l-.35-.5h-.24v.5h-.35V27.63h.6a.86.86,0,0,1,.52.13A.48.48,0,0,1,42.85,28.16Zm-.43.19a.24.24,0,0,0,.07-.19.2.2,0,0,0-.07-.18.45.45,0,0,0-.24,0h-.26v.46h.26A.43.43,0,0,0,42.42,28.35Z" transform="translate(-1.13 -1.01)"/><path class="cls-1" d="M5.59,31.91A.51.51,0,0,0,6,31.7l.23.23a.8.8,0,0,1-.63.31A.81.81,0,0,1,5,32a.83.83,0,0,1,0-1.17.8.8,0,0,1,.59-.23.82.82,0,0,1,.65.29L6,31.15a.51.51,0,0,0-.42-.21.48.48,0,0,0-.34.13.51.51,0,0,0,0,.7A.42.42,0,0,0,5.59,31.91Z" transform="translate(-1.13 -1.01)"/><path class="cls-1" d="M7.62,32.22l-.15-.34H6.81l-.15.34H6.29L7,30.64h.34L8,32.22Zm-.48-1.11-.2.46h.4Z" transform="translate(-1.13 -1.01)"/><path class="cls-1" d="M9.37,30.85a.74.74,0,0,1,.22.57.75.75,0,0,1-.22.58.9.9,0,0,1-.67.22H8.16V30.64h.56A.92.92,0,0,1,9.37,30.85Zm-.26.93a.47.47,0,0,0,.13-.35.53.53,0,0,0-.13-.36.58.58,0,0,0-.4-.12h-.2v1h.23A.49.49,0,0,0,9.11,31.78Z" transform="translate(-1.13 -1.01)"/><path class="cls-1" d="M11,32.22l-.14-.34h-.66l-.15.34H9.63l.69-1.58h.34l.68,1.58Zm-.47-1.11-.2.46h.39Z" transform="translate(-1.13 -1.01)"/><path class="cls-1" d="M12.51,31.81a.3.3,0,0,0,.24.11.28.28,0,0,0,.23-.11.45.45,0,0,0,.09-.3v-.87h.35v.88a.69.69,0,0,1-.19.53.68.68,0,0,1-.48.18.64.64,0,0,1-.68-.71v-.88h.35v.87A.45.45,0,0,0,12.51,31.81Z" transform="translate(-1.13 -1.01)"/><path class="cls-1" d="M14.88,30.64h.35v1.58h-.35l-.75-1v1h-.36V30.64h.33l.78,1Z" transform="translate(-1.13 -1.01)"/><path class="cls-1" d="M16.93,32a.78.78,0,0,1-.59.23.8.8,0,0,1-.59-.23.78.78,0,0,1-.23-.58.76.76,0,0,1,.23-.58.8.8,0,0,1,.59-.23.78.78,0,0,1,.59.23.77.77,0,0,1,.24.58A.78.78,0,0,1,16.93,32Zm-.12-.58a.52.52,0,0,0-.13-.36.43.43,0,0,0-.34-.15.43.43,0,0,0-.33.15.56.56,0,0,0,0,.72.43.43,0,0,0,.33.15.43.43,0,0,0,.34-.15A.52.52,0,0,0,16.81,31.42Z" transform="translate(-1.13 -1.01)"/><path class="cls-1" d="M18.41,31a.13.13,0,0,0-.05.11.14.14,0,0,0,.06.11l.29.09a.82.82,0,0,1,.35.17.41.41,0,0,1,.12.32.4.4,0,0,1-.16.34.63.63,0,0,1-.42.14,1,1,0,0,1-.67-.28l.21-.26a.72.72,0,0,0,.47.22.24.24,0,0,0,.15,0,.11.11,0,0,0,.06-.11.13.13,0,0,0-.06-.11.77.77,0,0,0-.23-.09,1,1,0,0,1-.41-.17.42.42,0,0,1-.12-.33.39.39,0,0,1,.16-.34.63.63,0,0,1,.4-.12.93.93,0,0,1,.32.05,1.17,1.17,0,0,1,.27.15l-.18.26a.71.71,0,0,0-.42-.16A.2.2,0,0,0,18.41,31Z" transform="translate(-1.13 -1.01)"/><path class="cls-1" d="M19.89,31.81a.27.27,0,0,0,.23.11.3.3,0,0,0,.24-.11.45.45,0,0,0,.08-.3v-.87h.36v.88a.73.73,0,0,1-.19.53.69.69,0,0,1-.49.18.66.66,0,0,1-.48-.18.69.69,0,0,1-.19-.53v-.88h.35v.87A.45.45,0,0,0,19.89,31.81Z" transform="translate(-1.13 -1.01)"/><path class="cls-1" d="M21.73,32.22V30.64h.36V31.9h.67v.32Z" transform="translate(-1.13 -1.01)"/><path class="cls-1" d="M23.39,31.81a.3.3,0,0,0,.23.11.3.3,0,0,0,.24-.11.45.45,0,0,0,.09-.3v-.87h.35v.88a.64.64,0,0,1-.68.71.68.68,0,0,1-.48-.18.69.69,0,0,1-.19-.53v-.88h.35v.87A.45.45,0,0,0,23.39,31.81Z" transform="translate(-1.13 -1.01)"/><path class="cls-1" d="M25.68,31.41H26V32a.88.88,0,0,1-1.23,0,.82.82,0,0,1,.58-1.4.85.85,0,0,1,.59.22l-.18.26a.62.62,0,0,0-.2-.12.41.41,0,0,0-.19,0,.48.48,0,0,0-.34.14.48.48,0,0,0-.13.36.48.48,0,0,0,.13.35.43.43,0,0,0,.31.14.71.71,0,0,0,.31-.07Z" transform="translate(-1.13 -1.01)"/><path class="cls-1" d="M27.44,32.22l-.14-.34h-.67l-.14.34h-.38l.68-1.58h.35l.68,1.58ZM27,31.11l-.2.46h.39Z" transform="translate(-1.13 -1.01)"/><path class="cls-1" d="M29.27,31.16a.46.46,0,0,1-.3.49l.4.57h-.44l-.35-.51h-.24v.51H28V30.64h.6a.79.79,0,0,1,.52.13A.47.47,0,0,1,29.27,31.16Zm-.43.19a.21.21,0,0,0,.07-.18c0-.09,0-.15-.07-.18a.43.43,0,0,0-.24,0h-.26v.47h.26A.35.35,0,0,0,28.84,31.35Z" transform="translate(-1.13 -1.01)"/><path class="cls-1" d="M29.61,32.18a.2.2,0,0,1-.06-.14.21.21,0,0,1,.2-.2.2.2,0,0,1,.14.06A.17.17,0,0,1,30,32a.21.21,0,0,1-.2.2A.17.17,0,0,1,29.61,32.18Z" transform="translate(-1.13 -1.01)"/><path class="cls-1" d="M6,35.22l-.15-.34H5.18L5,35.22H4.66l.68-1.57h.34l.68,1.57Zm-.48-1.1-.2.45h.4Z" transform="translate(-1.13 -1.01)"/><path class="cls-1" d="M8,34.23l-.43.86H7.31l-.42-.86v1H6.53V33.65H7l.41.86.4-.86H8.3v1.57H8Z" transform="translate(-1.13 -1.01)"/><path class="cls-1" d="M9.36,35.22H8.67V33.65h.62a.73.73,0,0,1,.27,0,.39.39,0,0,1,.18.1.4.4,0,0,1,.1.28.32.32,0,0,1-.12.27l-.05,0-.06,0a.41.41,0,0,1,.24.13.39.39,0,0,1,.08.25.46.46,0,0,1-.11.29A.59.59,0,0,1,9.36,35.22ZM9,34.29h.16a.43.43,0,0,0,.22,0c.05,0,.07-.06.07-.13s0-.12-.06-.14a.63.63,0,0,0-.23,0H9Zm0,.64h.24a.57.57,0,0,0,.22,0,.15.15,0,0,0,.08-.15.14.14,0,0,0-.08-.14.74.74,0,0,0-.26,0H9Z" transform="translate(-1.13 -1.01)"/><path class="cls-1" d="M11.54,35a.82.82,0,0,1-.59.23.84.84,0,0,1-.59-.23.82.82,0,0,1-.23-.58.78.78,0,0,1,.23-.58.81.81,0,0,1,.59-.24.79.79,0,0,1,.59.24.75.75,0,0,1,.24.58A.78.78,0,0,1,11.54,35Zm-.12-.58a.52.52,0,0,0-.13-.36.43.43,0,0,0-.34-.15.43.43,0,0,0-.33.15.56.56,0,0,0,0,.72.45.45,0,0,0,.33.14.46.46,0,0,0,.34-.14A.52.52,0,0,0,11.42,34.43Z" transform="translate(-1.13 -1.01)"/><path class="cls-1" d="M12.42,34a.16.16,0,0,0-.05.11.11.11,0,0,0,.06.11,1.28,1.28,0,0,0,.29.1.88.88,0,0,1,.35.16.45.45,0,0,1,.12.33.41.41,0,0,1-.16.34.59.59,0,0,1-.41.13,1,1,0,0,1-.68-.27l.21-.26a.74.74,0,0,0,.47.22.21.21,0,0,0,.15,0,.14.14,0,0,0,.06-.11.14.14,0,0,0-.06-.12l-.23-.08a.94.94,0,0,1-.4-.17.39.39,0,0,1-.13-.33.42.42,0,0,1,.16-.35.65.65,0,0,1,.4-.12.91.91,0,0,1,.32.06.65.65,0,0,1,.27.15l-.17.26a.68.68,0,0,0-.43-.16A.21.21,0,0,0,12.42,34Z" transform="translate(-1.13 -1.01)"/><path class="cls-1" d="M15.15,33.79a.54.54,0,0,1,.17.43.52.52,0,0,1-.17.43.85.85,0,0,1-.52.13h-.21v.44h-.35V33.65h.55A.84.84,0,0,1,15.15,33.79Zm-.26.62A.33.33,0,0,0,15,34.2a.21.21,0,0,0-.09-.19.42.42,0,0,0-.25-.06h-.2v.53h.23A.3.3,0,0,0,14.89,34.41Z" transform="translate(-1.13 -1.01)"/><path class="cls-1" d="M16.56,33.65h.35v1.57h-.35V34.6h-.63v.62h-.35V33.65h.35v.66h.63Z" transform="translate(-1.13 -1.01)"/><path class="cls-1" d="M18.6,34.91a.53.53,0,0,0,.42-.2l.23.23a.83.83,0,0,1-.64.3A.81.81,0,0,1,18,35a.78.78,0,0,1-.23-.58.77.77,0,0,1,.24-.58.78.78,0,0,1,.58-.24.82.82,0,0,1,.65.3l-.21.25a.53.53,0,0,0-.42-.21.47.47,0,0,0-.34.13.45.45,0,0,0-.14.35.48.48,0,0,0,.13.35A.44.44,0,0,0,18.6,34.91Z" transform="translate(-1.13 -1.01)"/><path class="cls-1" d="M19.93,34.82a.3.3,0,0,0,.24.11.3.3,0,0,0,.23-.11.49.49,0,0,0,.09-.3v-.87h.35v.88a.7.7,0,0,1-.19.53.68.68,0,0,1-.48.18.69.69,0,0,1-.49-.18.7.7,0,0,1-.19-.53v-.88h.35v.87A.49.49,0,0,0,19.93,34.82Z" transform="translate(-1.13 -1.01)"/><path class="cls-1" d="M22.33,33.65V34h-.78v.33h.7v.3h-.7v.32h.8v.31H21.19V33.65Z" transform="translate(-1.13 -1.01)"/><path class="cls-1" d="M23.76,33.65h.35v1.57h-.35l-.75-1v1h-.35V33.65H23l.77,1Z" transform="translate(-1.13 -1.01)"/><path class="cls-1" d="M25.16,34v1.27H24.8V34h-.44v-.3H25.6V34Z" transform="translate(-1.13 -1.01)"/><path class="cls-1" d="M26.86,35.22l-.15-.34h-.66l-.15.34h-.37l.68-1.57h.34l.68,1.57Zm-.48-1.1-.2.45h.4Z" transform="translate(-1.13 -1.01)"/><path class="cls-1" d="M28.5,33.65h.36v1.57H28.5l-.75-1v1H27.4V33.65h.33l.77,1Z" transform="translate(-1.13 -1.01)"/><path class="cls-1" d="M30.54,34.91a.53.53,0,0,0,.42-.2l.23.23a.82.82,0,0,1-.63.3A.78.78,0,0,1,30,35a.75.75,0,0,1-.24-.58.77.77,0,0,1,.24-.58.81.81,0,0,1,.59-.24.83.83,0,0,1,.65.3l-.22.25a.51.51,0,0,0-.41-.21.45.45,0,0,0-.34.13.43.43,0,0,0-.15.35.48.48,0,0,0,.14.35A.42.42,0,0,0,30.54,34.91Z" transform="translate(-1.13 -1.01)"/><path class="cls-1" d="M32.75,35a.87.87,0,0,1-1.18,0,.78.78,0,0,1-.24-.58.75.75,0,0,1,.24-.58.85.85,0,0,1,1.18,0,.75.75,0,0,1,.24.58A.78.78,0,0,1,32.75,35Zm-.12-.58a.52.52,0,0,0-.14-.36.44.44,0,0,0-.66,0,.53.53,0,0,0,0,.72.46.46,0,0,0,.66,0A.52.52,0,0,0,32.63,34.43Z" transform="translate(-1.13 -1.01)"/><path class="cls-1" d="M34.38,33.65h.35v1.57h-.35l-.75-1v1h-.36V33.65h.33l.78,1Z" transform="translate(-1.13 -1.01)"/><path class="cls-1" d="M36.11,34.82a.27.27,0,0,0,.23.11.3.3,0,0,0,.24-.11.49.49,0,0,0,.09-.3v-.87H37v.88a.74.74,0,0,1-.19.53.69.69,0,0,1-.49.18.66.66,0,0,1-.48-.18.7.7,0,0,1-.19-.53v-.88H36v.87A.49.49,0,0,0,36.11,34.82Z" transform="translate(-1.13 -1.01)"/><path class="cls-1" d="M38.47,33.65h.36v1.57h-.36l-.75-1v1h-.35V33.65h.33l.77,1Z" transform="translate(-1.13 -1.01)"/><path class="cls-1" d="M40.32,35.22l-.14-.34h-.66l-.15.34H39l.68-1.57H40l.68,1.57Zm-.47-1.1-.2.45h.4Z" transform="translate(-1.13 -1.01)"/><path class="cls-1" d="M5.59,37.92A.51.51,0,0,0,6,37.71l.23.24a.82.82,0,0,1-.63.3A.81.81,0,0,1,5,38a.77.77,0,0,1-.24-.58A.79.79,0,0,1,5,36.85a.84.84,0,0,1,.59-.23.86.86,0,0,1,.65.29L6,37.16A.51.51,0,0,0,5.61,37a.53.53,0,0,0-.34.13.48.48,0,0,0-.14.35.49.49,0,0,0,.14.36A.41.41,0,0,0,5.59,37.92Z" transform="translate(-1.13 -1.01)"/><path class="cls-1" d="M7.55,38.23l-.15-.34H6.74l-.15.34H6.22l.68-1.58h.34l.68,1.58Zm-.48-1.11-.2.46h.4Z" transform="translate(-1.13 -1.01)"/><path class="cls-1" d="M9.11,36.8a.52.52,0,0,1,.16.43.51.51,0,0,1-.17.43.81.81,0,0,1-.52.13H8.37v.44H8V36.65h.56A.78.78,0,0,1,9.11,36.8Zm-.26.62a.33.33,0,0,0,.06-.21.22.22,0,0,0-.08-.2.54.54,0,0,0-.26,0h-.2v.53h.24A.34.34,0,0,0,8.85,37.42Z" transform="translate(-1.13 -1.01)"/><path class="cls-1" d="M10.5,38.23l-.15-.34H9.69l-.15.34H9.17l.68-1.58h.34l.68,1.58ZM10,37.12l-.2.46h.4Z" transform="translate(-1.13 -1.01)"/><path class="cls-1" d="M11.7,37.92a.51.51,0,0,0,.42-.21l.23.24a.83.83,0,0,1-.64.3.85.85,0,0,1-.6-.23.8.8,0,0,1-.23-.58.79.79,0,0,1,.24-.59.84.84,0,0,1,.59-.23.86.86,0,0,1,.65.29l-.22.25a.51.51,0,0,0-.42-.21.53.53,0,0,0-.34.13.48.48,0,0,0-.14.35.49.49,0,0,0,.14.36A.41.41,0,0,0,11.7,37.92Z" transform="translate(-1.13 -1.01)"/><path class="cls-1" d="M12.54,36.65h.35v1.58h-.35Z" transform="translate(-1.13 -1.01)"/><path class="cls-1" d="M14.41,36.86a.75.75,0,0,1,.22.58.78.78,0,0,1-.22.58.94.94,0,0,1-.67.21H13.2V36.65h.56A.92.92,0,0,1,14.41,36.86Zm-.26.94a.49.49,0,0,0,.13-.36.48.48,0,0,0-.13-.35.54.54,0,0,0-.4-.13h-.2v1h.23A.53.53,0,0,0,14.15,37.8Z" transform="translate(-1.13 -1.01)"/><path class="cls-1" d="M15.93,38.23l-.14-.34h-.66l-.15.34H14.6l.69-1.58h.34l.68,1.58Zm-.47-1.11-.2.46h.39Z" transform="translate(-1.13 -1.01)"/><path class="cls-1" d="M17.61,36.86a.75.75,0,0,1,.23.58.82.82,0,0,1-.22.58.94.94,0,0,1-.67.21h-.54V36.65H17A.9.9,0,0,1,17.61,36.86Zm-.26.94a.45.45,0,0,0,.13-.36.45.45,0,0,0-.13-.35A.5.5,0,0,0,17,37h-.2v1H17A.51.51,0,0,0,17.35,37.8Z" transform="translate(-1.13 -1.01)"/><path class="cls-1" d="M19.66,36.8a.52.52,0,0,1,.17.43.54.54,0,0,1-.17.43.85.85,0,0,1-.52.13h-.21v.44h-.35V36.65h.55A.78.78,0,0,1,19.66,36.8Zm-.26.62a.28.28,0,0,0,.07-.21.23.23,0,0,0-.09-.2.52.52,0,0,0-.25,0h-.2v.53h.23A.34.34,0,0,0,19.4,37.42Z" transform="translate(-1.13 -1.01)"/><path class="cls-1" d="M21.05,38.23l-.14-.34h-.67l-.14.34h-.38l.68-1.58h.34l.69,1.58Zm-.47-1.11-.2.46h.39Z" transform="translate(-1.13 -1.01)"/><path class="cls-1" d="M22.81,37.18a.47.47,0,0,1-.3.49l.4.56h-.44l-.35-.5h-.24v.5h-.35V36.65h.59a.89.89,0,0,1,.53.13A.48.48,0,0,1,22.81,37.18Zm-.43.19a.24.24,0,0,0,.07-.19.23.23,0,0,0-.07-.18.47.47,0,0,0-.24,0h-.26v.46h.26A.43.43,0,0,0,22.38,37.37Z" transform="translate(-1.13 -1.01)"/><path class="cls-1" d="M24.21,38.23l-.15-.34H23.4l-.15.34h-.37l.68-1.58h.34l.68,1.58Zm-.48-1.11-.2.46h.4Z" transform="translate(-1.13 -1.01)"/><path class="cls-1" d="M25.92,37.92a.52.52,0,0,0,.43-.21l.22.24a.82.82,0,0,1-.63.3.85.85,0,0,1-.6-.23.77.77,0,0,1-.24-.58.79.79,0,0,1,.24-.59.87.87,0,0,1,1.24.06l-.22.25A.51.51,0,0,0,26,37a.49.49,0,0,0-.34.13.45.45,0,0,0-.14.35.48.48,0,0,0,.13.36A.44.44,0,0,0,25.92,37.92Z" transform="translate(-1.13 -1.01)"/><path class="cls-1" d="M27.19,37.82a.25.25,0,0,0,.23.11.28.28,0,0,0,.24-.11.43.43,0,0,0,.08-.29v-.88h.36v.89a.7.7,0,0,1-.19.52.66.66,0,0,1-.49.19.63.63,0,0,1-.48-.19.68.68,0,0,1-.19-.52v-.89h.35v.88A.44.44,0,0,0,27.19,37.82Z" transform="translate(-1.13 -1.01)"/><path class="cls-1" d="M29.46,38.23l-.14-.34h-.66l-.15.34h-.38l.69-1.58h.34l.68,1.58ZM29,37.12l-.2.46h.39Z" transform="translate(-1.13 -1.01)"/><path class="cls-1" d="M30.49,37v1.27h-.35V37h-.45v-.31h1.25V37Z" transform="translate(-1.13 -1.01)"/><path class="cls-1" d="M32.39,37.18a.47.47,0,0,1-.3.49l.4.56h-.43l-.35-.5h-.24v.5h-.36V36.65h.6a.89.89,0,0,1,.53.13A.48.48,0,0,1,32.39,37.18Zm-.42.19a.27.27,0,0,0,.06-.19A.23.23,0,0,0,32,37a.49.49,0,0,0-.24,0h-.26v.46h.25A.49.49,0,0,0,32,37.37Z" transform="translate(-1.13 -1.01)"/><path class="cls-1" d="M34,38a.79.79,0,0,1-.59.24.8.8,0,0,1-.82-.82.82.82,0,0,1,.23-.58.84.84,0,0,1,.59-.23.82.82,0,0,1,.59.23.78.78,0,0,1,.24.58A.77.77,0,0,1,34,38Zm-.12-.58a.52.52,0,0,0-.13-.36.46.46,0,0,0-.34-.14.45.45,0,0,0-.33.14.56.56,0,0,0,0,.72.43.43,0,0,0,.33.15.43.43,0,0,0,.34-.15A.52.52,0,0,0,33.86,37.43Z" transform="translate(-1.13 -1.01)"/><path class="cls-1" d="M36,36.8a.52.52,0,0,1,.16.43.51.51,0,0,1-.17.43.81.81,0,0,1-.52.13H35.3v.44H35V36.65h.56A.78.78,0,0,1,36,36.8Zm-.26.62a.33.33,0,0,0,.06-.21.25.25,0,0,0-.08-.2.57.57,0,0,0-.26,0h-.2v.53h.24A.34.34,0,0,0,35.78,37.42Z" transform="translate(-1.13 -1.01)"/><path class="cls-1" d="M37.53,36.65V37h-.78v.32h.7v.3h-.7v.33h.81v.31H36.4V36.65Z" transform="translate(-1.13 -1.01)"/><path class="cls-1" d="M39.07,37.18a.47.47,0,0,1-.3.49l.4.56h-.43l-.35-.5h-.25v.5h-.35V36.65h.6a.86.86,0,0,1,.52.13A.46.46,0,0,1,39.07,37.18Zm-.42.19a.27.27,0,0,0,.06-.19.2.2,0,0,0-.07-.18.43.43,0,0,0-.23,0h-.27v.46h.26A.49.49,0,0,0,38.65,37.37Z" transform="translate(-1.13 -1.01)"/><path class="cls-1" d="M39.72,37a.12.12,0,0,0,0,.11.13.13,0,0,0,.06.11,1.11,1.11,0,0,0,.29.1.77.77,0,0,1,.34.16.38.38,0,0,1,.13.32.46.46,0,0,1-.16.35.64.64,0,0,1-.42.13.94.94,0,0,1-.67-.28l.21-.26a.74.74,0,0,0,.47.23.33.33,0,0,0,.15,0,.13.13,0,0,0,0-.12.16.16,0,0,0,0-.11.59.59,0,0,0-.24-.08,1.17,1.17,0,0,1-.4-.17.42.42,0,0,1-.13-.33.43.43,0,0,1,.16-.35.69.69,0,0,1,.41-.12,1.12,1.12,0,0,1,.31.05.85.85,0,0,1,.28.16l-.18.25a.72.72,0,0,0-.42-.15A.2.2,0,0,0,39.72,37Z" transform="translate(-1.13 -1.01)"/><path class="cls-1" d="M42,38a.79.79,0,0,1-.59.24.82.82,0,0,1-.82-.82.78.78,0,0,1,.24-.58.8.8,0,0,1,.58-.23.82.82,0,0,1,.59.23.78.78,0,0,1,.24.58A.77.77,0,0,1,42,38Zm-.12-.58a.52.52,0,0,0-.13-.36.46.46,0,0,0-.34-.14.45.45,0,0,0-.33.14.56.56,0,0,0,0,.72.43.43,0,0,0,.33.15.43.43,0,0,0,.34-.15A.52.52,0,0,0,41.91,37.43Z" transform="translate(-1.13 -1.01)"/><path class="cls-1" d="M43.59,36.65h.35v1.58h-.35l-.75-1v1h-.35V36.65h.33l.77,1Z" transform="translate(-1.13 -1.01)"/><path class="cls-1" d="M45.37,38.23l-.14-.34h-.67l-.14.34H44l.68-1.58h.35l.68,1.58Zm-.47-1.11-.2.46h.39Z" transform="translate(-1.13 -1.01)"/><path class="cls-1" d="M46.21,37a.13.13,0,0,0-.06.11.12.12,0,0,0,.07.11,1,1,0,0,0,.28.1.76.76,0,0,1,.35.16.41.41,0,0,1,.13.32.46.46,0,0,1-.16.35.64.64,0,0,1-.42.13,1,1,0,0,1-.68-.28l.21-.26a.76.76,0,0,0,.47.23.34.34,0,0,0,.16,0,.17.17,0,0,0,0-.12.14.14,0,0,0-.06-.11.53.53,0,0,0-.23-.08,1.08,1.08,0,0,1-.4-.17.39.39,0,0,1-.13-.33.41.41,0,0,1,.16-.35.66.66,0,0,1,.41-.12,1.12,1.12,0,0,1,.31.05.85.85,0,0,1,.28.16l-.18.25a.72.72,0,0,0-.43-.15A.18.18,0,0,0,46.21,37Z" transform="translate(-1.13 -1.01)"/><path class="cls-1" d="M47.18,38.19a.22.22,0,0,1,0-.14.24.24,0,0,1,0-.14.2.2,0,0,1,.14-.06.2.2,0,0,1,.15.06.24.24,0,0,1,.05.14.22.22,0,0,1-.05.14.2.2,0,0,1-.15.06A.2.2,0,0,1,47.18,38.19Z" transform="translate(-1.13 -1.01)"/><path class="cls-2" d="M11.67,11.23H8.93a.83.83,0,0,0,.25-.35,1.67,1.67,0,0,0,.1-.63V7.59A1.56,1.56,0,0,0,9.18,7a.73.73,0,0,0-.25-.34h1.62A.7.7,0,0,0,10.3,7a1.48,1.48,0,0,0-.11.63v2.94h.65a1.9,1.9,0,0,0,.78-.15,1.4,1.4,0,0,0,.55-.44h0L12,11.28A2.15,2.15,0,0,0,11.67,11.23Z" transform="translate(-1.13 -1.01)"/><path class="cls-2" d="M13.72,11a2,2,0,0,1-.82-.85A2.58,2.58,0,0,1,12.62,9a2.8,2.8,0,0,1,.29-1.3,2.1,2.1,0,0,1,.85-.87,2.73,2.73,0,0,1,1.31-.31,2.5,2.5,0,0,1,1.24.3,2.1,2.1,0,0,1,.83.84,2.64,2.64,0,0,1,.29,1.24,2.63,2.63,0,0,1-.31,1.3,2.12,2.12,0,0,1-.86.87,2.57,2.57,0,0,1-1.29.31A2.39,2.39,0,0,1,13.72,11Zm2-.58a1.53,1.53,0,0,0,.51-.61,2.17,2.17,0,0,0,.18-.91,2,2,0,0,0-.39-1.3A1.32,1.32,0,0,0,15,7.18a1.24,1.24,0,0,0-.74.22,1.33,1.33,0,0,0-.49.6,2.29,2.29,0,0,0-.17.9A2.11,2.11,0,0,0,14,10.2a1.29,1.29,0,0,0,1.07.47A1.27,1.27,0,0,0,15.76,10.46Z" transform="translate(-1.13 -1.01)"/><path class="cls-2" d="M18.9,11.25a1.68,1.68,0,0,1-.55-.19L18.23,10h0a1.7,1.7,0,0,0,.59.53,1.58,1.58,0,0,0,.72.16c.55,0,.82-.19.82-.59a.55.55,0,0,0-.11-.36A.81.81,0,0,0,20,9.44a3.36,3.36,0,0,0-.46-.22,3.75,3.75,0,0,1-.63-.3,1.4,1.4,0,0,1-.42-.42,1.34,1.34,0,0,1-.17-.7,1.17,1.17,0,0,1,.19-.63,1.4,1.4,0,0,1,.55-.46,2,2,0,0,1,.85-.17,4.32,4.32,0,0,1,1,.14L21,7.76h0a1.08,1.08,0,0,0-.46-.42A1.37,1.37,0,0,0,20,7.22c-.51,0-.76.17-.76.51a.44.44,0,0,0,.1.3.67.67,0,0,0,.26.21,4,4,0,0,0,.44.2,4.49,4.49,0,0,1,.66.33,1.27,1.27,0,0,1,.44.45,1.39,1.39,0,0,1,.19.75,1.32,1.32,0,0,1-.19.69,1.36,1.36,0,0,1-.57.48,2.08,2.08,0,0,1-.91.18A3.35,3.35,0,0,1,18.9,11.25Z" transform="translate(-1.13 -1.01)"/><path class="cls-2" d="M27.47,7.78h0a1,1,0,0,0-.34-.35,1,1,0,0,0-.52-.14H26.1v2.88a1.84,1.84,0,0,0,.11.67.73.73,0,0,0,.29.36H24.79a.76.76,0,0,0,.28-.37,1.62,1.62,0,0,0,.12-.66V7.3h-.5a1,1,0,0,0-.51.14.9.9,0,0,0-.35.35h0l.11-1.21a6.17,6.17,0,0,0,.9.06h1.62a6.07,6.07,0,0,0,.9-.06Z" transform="translate(-1.13 -1.01)"/><path class="cls-2" d="M28.23,11.21a.76.76,0,0,0,.26-.35,1.67,1.67,0,0,0,.1-.63V7.62a1.6,1.6,0,0,0-.1-.63.71.71,0,0,0-.26-.35h1.63a.7.7,0,0,0-.25.35,1.65,1.65,0,0,0-.11.63v2.61a1.58,1.58,0,0,0,.11.63.75.75,0,0,0,.25.35H28.23Z" transform="translate(-1.13 -1.01)"/><path class="cls-2" d="M33.64,11.23H30.89a.83.83,0,0,0,.25-.35,1.67,1.67,0,0,0,.1-.63V7.59a1.56,1.56,0,0,0-.1-.61.73.73,0,0,0-.25-.34h1.62a.7.7,0,0,0-.25.35,1.65,1.65,0,0,0-.11.63v2.94h.66a1.89,1.89,0,0,0,.77-.15,1.4,1.4,0,0,0,.55-.44h0L34,11.28A2.21,2.21,0,0,0,33.64,11.23Z" transform="translate(-1.13 -1.01)"/><path class="cls-2" d="M35.68,11a2,2,0,0,1-.82-.85A2.58,2.58,0,0,1,34.58,9a2.8,2.8,0,0,1,.29-1.3,2.1,2.1,0,0,1,.85-.87A2.73,2.73,0,0,1,37,6.49a2.5,2.5,0,0,1,1.24.3,2.1,2.1,0,0,1,.83.84,2.52,2.52,0,0,1,.29,1.24,2.74,2.74,0,0,1-.3,1.3,2.21,2.21,0,0,1-.87.87,2.57,2.57,0,0,1-1.29.31A2.39,2.39,0,0,1,35.68,11Zm2-.58a1.53,1.53,0,0,0,.51-.61,2.17,2.17,0,0,0,.18-.91A2,2,0,0,0,38,7.64,1.3,1.3,0,0,0,37,7.18a1.25,1.25,0,0,0-.75.22,1.33,1.33,0,0,0-.49.6,2.29,2.29,0,0,0-.17.9,2.11,2.11,0,0,0,.37,1.3,1.3,1.3,0,0,0,1.07.47A1.27,1.27,0,0,0,37.72,10.46Z" transform="translate(-1.13 -1.01)"/><path class="cls-2" d="M40.86,11.25a1.68,1.68,0,0,1-.55-.19L40.19,10h0a1.64,1.64,0,0,0,.6.53,1.51,1.51,0,0,0,.71.16c.55,0,.82-.19.82-.59a.55.55,0,0,0-.11-.36A.81.81,0,0,0,42,9.44a3.36,3.36,0,0,0-.46-.22,3.75,3.75,0,0,1-.63-.3,1.27,1.27,0,0,1-.41-.42,1.25,1.25,0,0,1-.18-.7,1.17,1.17,0,0,1,.19-.63A1.4,1.4,0,0,1,41,6.71a2,2,0,0,1,.85-.17,4.26,4.26,0,0,1,1,.14L43,7.76h0a1.08,1.08,0,0,0-.46-.42,1.37,1.37,0,0,0-.58-.12c-.51,0-.76.17-.76.51a.44.44,0,0,0,.1.3.67.67,0,0,0,.26.21,4,4,0,0,0,.44.2,4,4,0,0,1,.66.33,1.27,1.27,0,0,1,.44.45,1.39,1.39,0,0,1,.19.75,1.32,1.32,0,0,1-.19.69,1.36,1.36,0,0,1-.57.48,2.08,2.08,0,0,1-.91.18A3.41,3.41,0,0,1,40.86,11.25Z" transform="translate(-1.13 -1.01)"/><rect class="cls-3" x="0.08" y="0.08" width="49.74" height="42.22"/><path class="cls-2" d="M4.28,4.19l0,0a.33.33,0,0,1-.13.07.68.68,0,0,1-.28.07H3.61l-.07,0A.92.92,0,0,1,3.09,4,1.59,1.59,0,0,1,3,3.68a1.47,1.47,0,0,1-.05-.29,1.41,1.41,0,0,1,0-.29.61.61,0,0,1,0-.14V2.9h0v0h.25a1.41,1.41,0,0,1,.29,0,1.6,1.6,0,0,1,.29,0L4,3a.92.92,0,0,1,.37.45.64.64,0,0,1,0,.07v0s0,0,0,0a.38.38,0,0,1,0,.15A.89.89,0,0,1,4.38,4a.54.54,0,0,1-.07.13ZM3,3V3a.68.68,0,0,0,0,.14,2.44,2.44,0,0,0,0,.27,1.19,1.19,0,0,0,.14.53.82.82,0,0,0,.4.36l.07,0h.2a1.27,1.27,0,0,0,.28-.06l.12-.07,0,0s0,0,0,0A.75.75,0,0,0,4.35,4a1.31,1.31,0,0,0,.06-.27.61.61,0,0,0,0-.14.06.06,0,0,0,0,0v0a.14.14,0,0,0,0-.06A.81.81,0,0,0,4,3.06a1.23,1.23,0,0,0-.53-.14H3.2L3.06,3Zm.88.88-.19.08L3.62,4l0,0,0,0,0,0,0,0a1.24,1.24,0,0,0-.17.23l-.12.25a2,2,0,0,0-.1.26A2.83,2.83,0,0,0,3,6a2.56,2.56,0,0,0,0,.27,2.68,2.68,0,0,0,.07.27A2.91,2.91,0,0,0,3.38,7a1.14,1.14,0,0,0,.15.23,1.18,1.18,0,0,0,.18.21,1.54,1.54,0,0,0,.45.3,1.28,1.28,0,0,0,.51.09.72.72,0,0,0,.25-.07.33.33,0,0,0,.16-.17.25.25,0,0,0,0-.12.76.76,0,0,0,0-.11.73.73,0,0,0-.17-.18A1.43,1.43,0,0,0,4.44,7,2,2,0,0,0,4,6.93a2.43,2.43,0,0,0-.47,0,2.52,2.52,0,0,0-.84.28,1.2,1.2,0,0,0-.33.25.76.76,0,0,0-.11.16.6.6,0,0,0-.06.19.74.74,0,0,0,.06.36.71.71,0,0,0,.21.27.71.71,0,0,0,.14.1l.15,0a.76.76,0,0,0,.3,0,.68.68,0,0,0,.25-.09.43.43,0,0,0,.15-.18.38.38,0,0,0,0-.21A.48.48,0,0,0,3.37,8a.29.29,0,0,0-.1-.12l-.12,0a.26.26,0,0,0-.17,0l0,0h0s0,0,0,0h0a.09.09,0,0,1,0-.06.28.28,0,0,1,.22-.07.33.33,0,0,1,.16,0,.36.36,0,0,1,.15.15.71.71,0,0,1,.07.22.48.48,0,0,1,0,.12.32.32,0,0,1,0,.14.5.5,0,0,1-.08.12.4.4,0,0,1-.12.1A.67.67,0,0,1,3,8.7a.74.74,0,0,1-.33,0,.58.58,0,0,1-.17-.06.49.49,0,0,1-.14-.11.84.84,0,0,1-.22-.3A.6.6,0,0,1,2.1,8a.67.67,0,0,1,0-.2.47.47,0,0,1,.06-.2,1.08,1.08,0,0,1,.11-.18,1.44,1.44,0,0,1,.34-.27,2.79,2.79,0,0,1,.87-.29,3.75,3.75,0,0,1,.48,0,2.76,2.76,0,0,1,.49.07L4.7,7a1.27,1.27,0,0,1,.22.13l.1.09.08.11a.33.33,0,0,1,0,.13.26.26,0,0,1,0,.15.28.28,0,0,1-.08.12.41.41,0,0,1-.11.07.59.59,0,0,1-.26.07.86.86,0,0,1-.28,0H4.34l-.07,0-.13-.05a1.41,1.41,0,0,1-.46-.3,1.29,1.29,0,0,1-.19-.21A1.88,1.88,0,0,1,3.33,7a2,2,0,0,1-.13-.25c0-.09-.08-.17-.11-.26S3,6.33,3,6.24A1.27,1.27,0,0,1,3,6a2.82,2.82,0,0,1,0-.58A2.27,2.27,0,0,1,3,4.8a2.17,2.17,0,0,1,.24-.54A2.11,2.11,0,0,1,3.45,4l0,0,0,0,0,0,0,0,.13-.07a.67.67,0,0,1,.18-.07A.67.67,0,0,1,4,3.61.54.54,0,0,1,4,3.48l0,0,0,0,0,0,0,0a2.11,2.11,0,0,1,.23-.19,2.17,2.17,0,0,1,.54-.24,2.27,2.27,0,0,1,.58-.1,2.82,2.82,0,0,1,.58,0,1.27,1.27,0,0,1,.28.06L6.61,3l.26.11.25.13a1.88,1.88,0,0,1,.23.16,1.29,1.29,0,0,1,.21.19,1.52,1.52,0,0,1,.3.46.69.69,0,0,1,0,.13.64.64,0,0,1,0,.07s0,0,0,.06a.86.86,0,0,1,0,.28.77.77,0,0,1-.07.26A.75.75,0,0,1,7.82,5,.37.37,0,0,1,7.7,5a.39.39,0,0,1-.15,0L7.42,5l-.11-.08-.09-.1a1,1,0,0,1-.13-.22A1,1,0,0,1,7,4.36a2.07,2.07,0,0,1-.07-.49,3.87,3.87,0,0,1,0-.48,2.79,2.79,0,0,1,.29-.87,1.44,1.44,0,0,1,.27-.34.78.78,0,0,1,.18-.11A.66.66,0,0,1,7.91,2h.2a.6.6,0,0,1,.19.06.84.84,0,0,1,.3.22.49.49,0,0,1,.11.14.58.58,0,0,1,.06.17.74.74,0,0,1,0,.33.67.67,0,0,1-.1.29.4.4,0,0,1-.1.12.5.5,0,0,1-.12.08.35.35,0,0,1-.14,0H8.2A.74.74,0,0,1,8,3.38a.36.36,0,0,1-.15-.15.33.33,0,0,1,0-.16.28.28,0,0,1,.07-.22l0,0H8s0,0,0,0h0s0,0,0,0a.26.26,0,0,0,0,.17.61.61,0,0,0,0,.12.29.29,0,0,0,.12.1.48.48,0,0,0,.18.06.38.38,0,0,0,.21,0,.43.43,0,0,0,.18-.15.68.68,0,0,0,.09-.25.76.76,0,0,0,0-.3.88.88,0,0,0,0-.15.71.71,0,0,0-.1-.14.71.71,0,0,0-.27-.21.74.74,0,0,0-.36-.06.6.6,0,0,0-.19.06.57.57,0,0,0-.16.11,1.2,1.2,0,0,0-.25.33A2.52,2.52,0,0,0,7,3.4a2.43,2.43,0,0,0,0,.47,2,2,0,0,0,.06.48,1.43,1.43,0,0,0,.19.44A.73.73,0,0,0,7.45,5l.11,0a.25.25,0,0,0,.12,0,.33.33,0,0,0,.17-.16.72.72,0,0,0,.07-.25,1.28,1.28,0,0,0-.09-.51,1.54,1.54,0,0,0-.3-.45,1.18,1.18,0,0,0-.21-.18,1.14,1.14,0,0,0-.23-.15,2.91,2.91,0,0,0-.51-.22L6.31,3,6,3A3,3,0,0,0,4.92,3l-.26.1-.25.12a1.24,1.24,0,0,0-.23.17l0,0,0,0,0,0,0,0A1,1,0,0,0,4,3.64,1.08,1.08,0,0,0,3.92,3.83Z" transform="translate(-1.13 -1.01)"/><path class="cls-2" d="M3.11,4.79h0v0A.47.47,0,0,0,3.1,5a.74.74,0,0,0,0,.19.79.79,0,0,0,.08.23,1.17,1.17,0,0,0,.16.25,1,1,0,0,0,.26.19A.76.76,0,0,0,4,5.87a.67.67,0,0,0,.34-.09.37.37,0,0,0,.13-.12.31.31,0,0,0,.08-.15.56.56,0,0,0,0-.34A.39.39,0,0,0,4.4,5,.25.25,0,0,0,4.28,5a.32.32,0,0,0-.14,0L4,5a.35.35,0,0,0-.16.16.33.33,0,0,0,0,.17.51.51,0,0,0,0,.1l0,0h0s0,0,0,0h0l0,0a.42.42,0,0,1-.07-.12.31.31,0,0,1,0-.1.23.23,0,0,1,0-.11A.41.41,0,0,1,3.87,5,.36.36,0,0,1,4,4.91a.33.33,0,0,1,.15,0,.3.3,0,0,1,.16,0A.26.26,0,0,1,4.44,5a.46.46,0,0,1,.09.15,1.16,1.16,0,0,1,0,.18.55.55,0,0,1,0,.18.34.34,0,0,1-.08.17.86.86,0,0,1-.14.13A.77.77,0,0,1,4,5.9a.84.84,0,0,1-.35-.07.77.77,0,0,1-.27-.19,1.23,1.23,0,0,1-.17-.25,1.86,1.86,0,0,1-.09-.24c0-.07,0-.14,0-.19V4.83a.08.08,0,0,0,0,0h0s0,0,0,0,0,0,0,0Z" transform="translate(-1.13 -1.01)"/><path class="cls-2" d="M4.88,3H5l.19,0a.79.79,0,0,1,.23.08,1.17,1.17,0,0,1,.25.16,1,1,0,0,1,.19.26A.76.76,0,0,1,6,3.88a.67.67,0,0,1-.09.34.53.53,0,0,1-.12.14.41.41,0,0,1-.15.07.56.56,0,0,1-.34,0,.39.39,0,0,1-.14-.08A.25.25,0,0,1,5,4.19a.3.3,0,0,1,0-.13.5.5,0,0,1,0-.13.41.41,0,0,1,.16-.16.3.3,0,0,1,.16,0l.11,0,0,0h0s0,0,0,0h0l0,0A.42.42,0,0,0,5.4,3.7H5.3a.23.23,0,0,0-.11,0,.41.41,0,0,0-.11.07A.5.5,0,0,0,5,3.9a.37.37,0,0,0,0,.15.3.3,0,0,0,0,.16.26.26,0,0,0,.11.14.46.46,0,0,0,.15.09l.18,0a.55.55,0,0,0,.18,0,.38.38,0,0,0,.17-.08.53.53,0,0,0,.12-.14A.68.68,0,0,0,6,3.88a.84.84,0,0,0-.07-.35.77.77,0,0,0-.19-.27,1.23,1.23,0,0,0-.25-.17L5.24,3,5.05,3H4.87s0,0,0,0l0,0Z" transform="translate(-1.13 -1.01)"/><path class="cls-2" d="M2.69,2.6l0,0a2,2,0,0,0-.1.35,1.1,1.1,0,0,0,0,.18v.09a.28.28,0,0,0,0,.09,1.35,1.35,0,0,0,.07.36A1.17,1.17,0,0,0,2.8,4a.71.71,0,0,0,.13.12L3,4.2l0,0h0l.06,0,0,0L3,4.36,3,4.43l-.1.15-.09.16s0,.11-.07.17a.84.84,0,0,0-.05.17.29.29,0,0,0,0,.09v.09a1.1,1.1,0,0,0,0,.18.28.28,0,0,0,0,.09v.18a.28.28,0,0,1,0,.09s0,.07,0,.1V6a.28.28,0,0,0,0,.09l0,.09a.29.29,0,0,0,0,.09.29.29,0,0,0,0,.09.29.29,0,0,0,0,.09l0,.09,0,.08,0,.09c0,.06,0,.12.07.17L3,7H3s0,0,0,0H3a1.4,1.4,0,0,1-.1-.16l-.07-.18,0-.08,0-.09,0-.09,0-.09a.29.29,0,0,0,0-.09.29.29,0,0,0,0-.09l0-.09s0-.06,0-.09V5.9s0-.06,0-.09,0-.06,0-.09V5.44a1.11,1.11,0,0,1,0-.19V5.16a.44.44,0,0,1,0-.1,1.21,1.21,0,0,1,.05-.18c0-.06,0-.11.07-.17l.09-.17.11-.15A.21.21,0,0,1,3,4.31l.06-.07,0,.06H3l0,0-.08,0a.86.86,0,0,1-.14-.13,1.11,1.11,0,0,1-.18-.34,1.61,1.61,0,0,1-.07-.37.31.31,0,0,1,0-.1V3.18a1.08,1.08,0,0,1,0-.19,2.12,2.12,0,0,1,.1-.36l0-.07.07,0a1.89,1.89,0,0,1,.36-.1,1.08,1.08,0,0,1,.19,0h.19a1.61,1.61,0,0,1,.37.07,1.11,1.11,0,0,1,.34.18.86.86,0,0,1,.13.14l0,.08,0,.05a.43.43,0,0,1,0,0h0L4.33,3,4.4,2.9l.08-.06.15-.11.17-.09L5,2.57l.18,0,.1,0h.09l.19,0h.65l.09,0,.09,0,.09,0,.09,0,.09,0,.09,0,.08,0L7,2.76l.16.1s0,0,0,0,0,0,0,0h0L7,2.8l-.17-.08-.09,0-.08,0-.09,0-.09,0-.09,0-.09,0-.09,0H6.08L6,2.53H5.53l-.18,0H5.26l-.09,0L5,2.63l-.17.07-.16.09-.15.1L4.45,3,4.39,3l0,.05,0-.06h0s0,0,0,0,0,0,0,0a.35.35,0,0,0,0-.08.71.71,0,0,0-.12-.13,1.17,1.17,0,0,0-.31-.17,1.44,1.44,0,0,0-.36-.07H3.27l-.18,0a2.42,2.42,0,0,0-.36.1Z" transform="translate(-1.13 -1.01)"/><path class="cls-2" d="M3,2.92A.37.37,0,0,0,3,3V3H3s0,0,0,0a0,0,0,0,1,0,0H3V3s0-.07,0-.12l.12,0h.06s0,0,0,0h0Z" transform="translate(-1.13 -1.01)"/><path class="cls-2" d="M3.36,3.27a.53.53,0,0,0,.05.15.26.26,0,0,0,.11.12s0,0,0,0l-.06,0a.3.3,0,0,1-.11-.13.48.48,0,0,1-.07-.18.48.48,0,0,1,.18.07.3.3,0,0,1,.13.11.15.15,0,0,1,0,.06s0,0,0,0a.26.26,0,0,0-.12-.11A.66.66,0,0,0,3.36,3.27Z" transform="translate(-1.13 -1.01)"/><path class="cls-2" d="M3.51,6.59v0a.15.15,0,0,0,0-.06.36.36,0,0,0,0-.09s0-.08,0-.13,0-.1,0-.16a.85.85,0,0,1,0-.17s0-.06,0-.09a.38.38,0,0,1,0-.1.34.34,0,0,1,0-.1v-.3l0-.19a.31.31,0,0,0,0-.08l0-.09a.88.88,0,0,1,.05-.15c0-.05,0-.09.06-.12a.35.35,0,0,1,.06-.09l.05-.07,0,.08a.63.63,0,0,1,0,.09l0,.06,0,.07a.25.25,0,0,1,0,.07.31.31,0,0,1,0,.08l0,.17a1.1,1.1,0,0,0,0,.18v.29s0,.06,0,.09a1.11,1.11,0,0,0,0,.19.88.88,0,0,0,0,.17l0,.16c0,.09,0,.17.06.23l0,.06Z" transform="translate(-1.13 -1.01)"/><path class="cls-2" d="M6.68,3.42h0l-.06,0-.1,0-.12,0-.16,0-.17,0H5.46l-.19,0-.09,0-.08,0L5,3.32l-.12.06-.09.06-.07.05.08,0,.09,0,.06,0,.07,0,.07,0,.08,0,.17,0,.18,0h.38l.19,0,.17,0,.16,0,.23.06.06,0Z" transform="translate(-1.13 -1.01)"/><path class="cls-2" d="M4,5.21a.14.14,0,0,1,.15.12.14.14,0,1,1-.27,0A.13.13,0,0,1,4,5.21Z" transform="translate(-1.13 -1.01)"/><path class="cls-2" d="M5.3,3.86A.14.14,0,0,0,5.42,4a.14.14,0,1,0,0-.27A.13.13,0,0,0,5.3,3.86Z" transform="translate(-1.13 -1.01)"/><path class="cls-2" d="M3.22,7.76a.21.21,0,0,1,0,.31.23.23,0,0,1-.32,0,.23.23,0,0,1,0-.32A.22.22,0,0,1,3.22,7.76Z" transform="translate(-1.13 -1.01)"/><path class="cls-2" d="M7.85,3.14a.22.22,0,0,0,.31,0,.23.23,0,0,0,0-.32.23.23,0,0,0-.35.29Z" transform="translate(-1.13 -1.01)"/><path class="cls-2" d="M2.76,4.49a.09.09,0,0,1-.14,0,.1.1,0,0,1,0-.15.11.11,0,0,1,.15,0A.1.1,0,0,1,2.76,4.49Z" transform="translate(-1.13 -1.01)"/><path class="cls-2" d="M4.58,2.67a.09.09,0,0,0,0-.14.1.1,0,0,0-.15,0,.11.11,0,0,0,0,.15A.1.1,0,0,0,4.58,2.67Z" transform="translate(-1.13 -1.01)"/><path class="cls-2" d="M2.62,4.75a.09.09,0,0,1-.11-.15.09.09,0,0,1,.11.15Z" transform="translate(-1.13 -1.01)"/><path class="cls-2" d="M4.84,2.53a.09.09,0,1,0-.15-.11.09.09,0,1,0,.15.11Z" transform="translate(-1.13 -1.01)"/><path class="cls-2" d="M2.51,5a.08.08,0,0,1-.12,0,.07.07,0,0,1,0-.11.08.08,0,0,1,.12,0A.09.09,0,0,1,2.51,5Z" transform="translate(-1.13 -1.01)"/><path class="cls-2" d="M5.11,2.42a.08.08,0,0,0,0-.12.07.07,0,0,0-.11,0,.08.08,0,0,0,0,.12A.09.09,0,0,0,5.11,2.42Z" transform="translate(-1.13 -1.01)"/><path class="cls-2" d="M2.46,5.27a.07.07,0,0,1-.1,0s0-.07,0-.1a.08.08,0,0,1,.1,0A.08.08,0,0,1,2.46,5.27Z" transform="translate(-1.13 -1.01)"/><path class="cls-2" d="M5.36,2.37a.07.07,0,0,0,0-.1.07.07,0,0,0-.1,0,.08.08,0,0,0,0,.1A.08.08,0,0,0,5.36,2.37Z" transform="translate(-1.13 -1.01)"/><path class="cls-2" d="M2.45,5.52a.06.06,0,0,1-.09,0,.06.06,0,0,1,0-.09.08.08,0,0,1,.1,0A.07.07,0,0,1,2.45,5.52Z" transform="translate(-1.13 -1.01)"/><path class="cls-2" d="M5.61,2.36a.06.06,0,0,0,0-.09.06.06,0,0,0-.09,0,.08.08,0,0,0,0,.1A.07.07,0,0,0,5.61,2.36Z" transform="translate(-1.13 -1.01)"/><path class="cls-2" d="M2.46,5.75a.05.05,0,0,1-.08,0,.05.05,0,0,1,0-.08.05.05,0,0,1,.08,0A.06.06,0,0,1,2.46,5.75Z" transform="translate(-1.13 -1.01)"/><path class="cls-2" d="M5.84,2.37a.05.05,0,0,0,0-.08.06.06,0,0,0-.08,0,.05.05,0,0,0,0,.08A.06.06,0,0,0,5.84,2.37Z" transform="translate(-1.13 -1.01)"/><path class="cls-2" d="M2.48,6s-.06,0-.07,0a0,0,0,0,1,0-.07A.05.05,0,0,1,2.48,6Z" transform="translate(-1.13 -1.01)"/><path class="cls-2" d="M6,2.39s0-.06,0-.07a0,0,0,0,0-.07,0A0,0,0,1,0,6,2.39Z" transform="translate(-1.13 -1.01)"/><path class="cls-2" d="M2.52,6.13a0,0,0,0,1-.06,0s0,0,0-.06,0,0,.06,0A0,0,0,0,1,2.52,6.13Z" transform="translate(-1.13 -1.01)"/><path class="cls-2" d="M6.22,2.43a0,0,0,0,0,0-.06s0,0-.06,0,0,.05,0,.06A0,0,0,0,0,6.22,2.43Z" transform="translate(-1.13 -1.01)"/><path class="cls-2" d="M2.56,6.31s0,0-.05,0,0,0,0,0a0,0,0,0,1,0,.06Z" transform="translate(-1.13 -1.01)"/><path class="cls-2" d="M6.4,2.47a0,0,0,0,0,0-.05s0,0,0,0,0,0,0,0A0,0,0,0,0,6.4,2.47Z" transform="translate(-1.13 -1.01)"/><path class="cls-2" d="M2.6,6.47a0,0,0,0,1,0,0s0,0,0,0,0,0,0,0A0,0,0,0,1,2.6,6.47Z" transform="translate(-1.13 -1.01)"/><path class="cls-2" d="M6.56,2.51a0,0,0,0,0,0,0s0,0,0,0,0,0,0,0A0,0,0,0,0,6.56,2.51Z" transform="translate(-1.13 -1.01)"/><path class="cls-2" d="M2.64,6.6h0a.06.06,0,0,1,0,0h0A0,0,0,0,1,2.64,6.6Z" transform="translate(-1.13 -1.01)"/><path class="cls-2" d="M6.69,2.55a.06.06,0,0,0,0,0h0s0,0,0,0A0,0,0,0,0,6.69,2.55Z" transform="translate(-1.13 -1.01)"/><path class="cls-2" d="M2.69,6.7h0s0,0,0,0h0S2.69,6.69,2.69,6.7Z" transform="translate(-1.13 -1.01)"/><path class="cls-2" d="M6.79,2.6s0,0,0,0h0s0,0,0,0Z" transform="translate(-1.13 -1.01)"/><path class="cls-2" d="M2.74,6.8h0s0,0,0,0S2.75,6.79,2.74,6.8Z" transform="translate(-1.13 -1.01)"/><path class="cls-2" d="M6.89,2.65v0h0S6.88,2.66,6.89,2.65Z" transform="translate(-1.13 -1.01)"/><path class="cls-2" d="M47.78,4.15s-.05-.08-.07-.13a1.28,1.28,0,0,1-.07-.28.76.76,0,0,1,0-.15.06.06,0,0,1,0,0v0a.14.14,0,0,1,0-.07A.87.87,0,0,1,48.06,3a1.59,1.59,0,0,1,.27-.12,1.47,1.47,0,0,1,.29,0,1.4,1.4,0,0,1,.29,0h.24v0h0V3s0,.09,0,.14a1.41,1.41,0,0,1,0,.29,2.93,2.93,0,0,1,0,.29A1.59,1.59,0,0,1,49,4a.92.92,0,0,1-.45.37l-.07,0h-.22A.73.73,0,0,1,48,4.29a.42.42,0,0,1-.13-.07l0,0ZM49,3l-.14,0h-.28a1.19,1.19,0,0,0-.52.14.81.81,0,0,0-.36.41l0,.06V3.6a.61.61,0,0,0,0,.14.66.66,0,0,0,.06.27l.06.12,0,0,0,0,.13.07.27.06h.21l.06,0A.85.85,0,0,0,49,3.91a1.07,1.07,0,0,0,.13-.53,1.22,1.22,0,0,0,0-.27s0-.09,0-.14V3Zm-.95.69A.44.44,0,0,0,48,3.53l0,0,0,0,0,0,0,0a1.24,1.24,0,0,0-.23-.17l-.25-.12L47.17,3A3,3,0,0,0,46.06,3l-.27,0-.28.07a3.27,3.27,0,0,0-.51.22,1.5,1.5,0,0,0-.23.15,1.12,1.12,0,0,0-.2.18,1.37,1.37,0,0,0-.3.45,1.13,1.13,0,0,0-.09.51.72.72,0,0,0,.07.25.27.27,0,0,0,.17.16.21.21,0,0,0,.11,0l.11,0a.73.73,0,0,0,.18-.17,1.25,1.25,0,0,0,.2-.44,2,2,0,0,0,.06-.48,1.83,1.83,0,0,0,0-.47,2.31,2.31,0,0,0-.27-.84,1.2,1.2,0,0,0-.25-.33.62.62,0,0,0-.17-.11.55.55,0,0,0-.18-.06.74.74,0,0,0-.36.06.83.83,0,0,0-.28.21.67.67,0,0,0-.09.14.88.88,0,0,0-.05.15,1,1,0,0,0,0,.3.69.69,0,0,0,.1.25.43.43,0,0,0,.18.15.38.38,0,0,0,.21,0,.48.48,0,0,0,.18-.06.22.22,0,0,0,.11-.1.21.21,0,0,0,0-.12.22.22,0,0,0,0-.17l0,0h0s0,0,0,0a0,0,0,0,1,0,0h0a.09.09,0,0,1,.06,0,.32.32,0,0,1,.07.22.49.49,0,0,1-.05.16.43.43,0,0,1-.15.15.71.71,0,0,1-.22.07h-.13a.31.31,0,0,1-.13,0,.57.57,0,0,1-.13-.08.62.62,0,0,1-.09-.12.56.56,0,0,1-.1-.29.92.92,0,0,1,0-.33,1.22,1.22,0,0,1,.07-.17.71.71,0,0,1,.1-.14,1,1,0,0,1,.31-.22A.6.6,0,0,1,44,2h.2a.66.66,0,0,1,.2.06l.18.11a1.76,1.76,0,0,1,.27.34,2.79,2.79,0,0,1,.29.87,3.87,3.87,0,0,1,0,.48,2.76,2.76,0,0,1-.07.49,1.83,1.83,0,0,1-.08.25,1.59,1.59,0,0,1-.13.22l-.1.1L44.67,5l-.13,0a.36.36,0,0,1-.14,0A.24.24,0,0,1,44.28,5a.83.83,0,0,1-.08-.12.58.58,0,0,1-.06-.26,1.29,1.29,0,0,1,0-.28s0,0,0-.06a.14.14,0,0,1,0-.07l0-.13a1.55,1.55,0,0,1,.31-.46,1.8,1.8,0,0,1,.2-.19L45,3.24l.25-.13L45.49,3l.28-.08a1.27,1.27,0,0,1,.28-.06,2.79,2.79,0,0,1,.58,0,2.35,2.35,0,0,1,.58.1,2.17,2.17,0,0,1,.54.24,2.11,2.11,0,0,1,.23.19l0,0,0,0,0,0,0,0a.57.57,0,0,1,.08.13,1.34,1.34,0,0,1,.07.18.67.67,0,0,1,.18.07l.13.07,0,0,0,0,0,0,0,0a1,1,0,0,1,.19.23,2.2,2.2,0,0,1,.25.54A2.63,2.63,0,0,1,49.15,6l-.06.28c0,.09-.05.19-.08.28s-.07.17-.11.26a2,2,0,0,1-.13.25,1.88,1.88,0,0,1-.16.23,1.29,1.29,0,0,1-.19.21,1.52,1.52,0,0,1-.46.3l-.13.05-.07,0h-.07a.82.82,0,0,1-.27,0,.59.59,0,0,1-.26-.07L47,7.73A.83.83,0,0,1,47,7.61a.38.38,0,0,1,0-.15.69.69,0,0,1,0-.13.76.76,0,0,1,.08-.11l.1-.09A1,1,0,0,1,47.4,7l.24-.08a2.87,2.87,0,0,1,.5-.07l.48,0a2.65,2.65,0,0,1,.86.29,1.13,1.13,0,0,1,.34.27.71.71,0,0,1,.12.18A.7.7,0,0,1,50,8a.6.6,0,0,1-.06.19.84.84,0,0,1-.22.3.42.42,0,0,1-.15.11.52.52,0,0,1-.16.06.75.75,0,0,1-.33,0,.76.76,0,0,1-.3-.1.52.52,0,0,1-.11-.1.38.38,0,0,1-.11-.26.24.24,0,0,1,0-.12.52.52,0,0,1,.07-.22.36.36,0,0,1,.31-.2.24.24,0,0,1,.21.07.21.21,0,0,1,0,.06h0a0,0,0,0,1,0,0h0s0,0,0,0a.26.26,0,0,0-.17,0l-.12,0a.43.43,0,0,0-.11.12.76.76,0,0,0-.06.18.51.51,0,0,0,0,.21.37.37,0,0,0,.15.18.68.68,0,0,0,.25.09.76.76,0,0,0,.3,0l.15,0,.14-.1a.82.82,0,0,0,.21-.27.64.64,0,0,0,0-.36.59.59,0,0,0,0-.19l-.11-.16a1.2,1.2,0,0,0-.33-.25A2.6,2.6,0,0,0,48.61,7a2.43,2.43,0,0,0-.47,0,2,2,0,0,0-.48.06,1.34,1.34,0,0,0-.44.19.58.58,0,0,0-.17.18.76.76,0,0,0,0,.11.17.17,0,0,0,0,.12.29.29,0,0,0,.16.17.66.66,0,0,0,.25.07,1.28,1.28,0,0,0,.51-.09,1.54,1.54,0,0,0,.45-.3l.18-.21L48.72,7a2.91,2.91,0,0,0,.22-.51c0-.09.05-.18.07-.27a2.51,2.51,0,0,0,0-.27A2.66,2.66,0,0,0,49,4.83a1.14,1.14,0,0,0-.09-.26,2,2,0,0,0-.13-.25,1.19,1.19,0,0,0-.16-.23l0,0,0,0,0,0,0,0-.11-.08-.19-.08A.66.66,0,0,0,48.09,3.64Z" transform="translate(-1.13 -1.01)"/><path class="cls-2" d="M49,4.79h0V5a.74.74,0,0,1,0,.19,1.27,1.27,0,0,1-.08.23,1.17,1.17,0,0,1-.16.25,1,1,0,0,1-.26.19.79.79,0,0,1-.34.06.67.67,0,0,1-.34-.09.41.41,0,0,1-.14-.12.41.41,0,0,1-.07-.15.56.56,0,0,1,0-.34A.42.42,0,0,1,47.7,5,.25.25,0,0,1,47.82,5a.3.3,0,0,1,.13,0l.13,0a.33.33,0,0,1,.15.16.26.26,0,0,1,0,.17.23.23,0,0,1,0,.1v0h0s0,0,0,0h0l0,0a.27.27,0,0,0,.06-.12.3.3,0,0,0,0-.1.52.52,0,0,0,0-.11A.28.28,0,0,0,48.22,5l-.11-.08a.42.42,0,0,0-.15,0,.33.33,0,0,0-.17,0,.36.36,0,0,0-.14.11.71.71,0,0,0-.08.15,1.16,1.16,0,0,0,0,.18,1.09,1.09,0,0,0,0,.18.46.46,0,0,0,.09.17.86.86,0,0,0,.14.13.74.74,0,0,0,.36.09.84.84,0,0,0,.35-.07.77.77,0,0,0,.27-.19,1.23,1.23,0,0,0,.17-.25A1.86,1.86,0,0,0,49,5.15.74.74,0,0,0,49,5a.28.28,0,0,0,0-.13v0h0s0,0,0,0,0,0,0,0Z" transform="translate(-1.13 -1.01)"/><path class="cls-2" d="M47.22,3h-.17l-.18,0a.79.79,0,0,0-.23.08,1,1,0,0,0-.25.16.7.7,0,0,0-.19.26.77.77,0,0,0-.07.34.79.79,0,0,0,.1.34.76.76,0,0,0,.11.14.46.46,0,0,0,.16.07.57.57,0,0,0,.34,0A.29.29,0,0,0,47,4.31a.27.27,0,0,0,.09-.12.29.29,0,0,0,0-.13.28.28,0,0,0,0-.13.41.41,0,0,0-.16-.16.33.33,0,0,0-.17,0l-.1,0,0,0h0s0,0,0,0,0,0,0,0h0l0,0a.31.31,0,0,1,.12-.07h.09a.25.25,0,0,1,.12,0l.11.07a.5.5,0,0,1,.08.12.37.37,0,0,1,0,.15.3.3,0,0,1,0,.16.24.24,0,0,1-.1.14.51.51,0,0,1-.16.09l-.17,0a.62.62,0,0,1-.19,0,.38.38,0,0,1-.17-.08.81.81,0,0,1-.12-.14.77.77,0,0,1-.09-.36.83.83,0,0,1,.06-.35.79.79,0,0,1,.2-.27,1.23,1.23,0,0,1,.25-.17L46.86,3l.19,0h.18s0,0,0,0l0,0Z" transform="translate(-1.13 -1.01)"/><path class="cls-2" d="M49.41,2.6l0,0a2,2,0,0,1,.1.35c0,.06,0,.12,0,.18v.09a.28.28,0,0,0,0,.09,1.35,1.35,0,0,1-.07.36,1,1,0,0,1-.18.31.49.49,0,0,1-.13.12l-.07,0,0,0h0l-.06,0,0,0,.06.06,0,.07.11.15a.8.8,0,0,1,.08.16s.05.11.08.17,0,.11,0,.17a.29.29,0,0,1,0,.09v.09c0,.06,0,.12,0,.18v.09s0,.06,0,.09,0,.06,0,.09V5.8a.34.34,0,0,0,0,.1V6s0,.06,0,.09l0,.09s0,.06,0,.09,0,.06,0,.09,0,.06,0,.09l0,.09,0,.08,0,.09a.87.87,0,0,1-.07.17.51.51,0,0,1-.09.16h0s0,0,0,0h0a.65.65,0,0,0,.09-.16,1.42,1.42,0,0,0,.08-.18l0-.08,0-.09,0-.09s0-.06,0-.09a.29.29,0,0,0,0-.09l0-.09V6.09s0-.06,0-.09V5.9a.28.28,0,0,1,0-.09.28.28,0,0,1,0-.09V5.44c0-.07,0-.13,0-.19V5.16a.44.44,0,0,0,0-.1c0-.06,0-.12-.05-.18a1.3,1.3,0,0,0-.08-.17,1.3,1.3,0,0,0-.08-.17l-.11-.15-.06-.08-.06-.07,0,.06h0l0,0,.09,0a.86.86,0,0,0,.14-.13,1.11,1.11,0,0,0,.18-.34,1.61,1.61,0,0,0,.07-.37V3.23a.43.43,0,0,0,0,0,1.11,1.11,0,0,0,0-.19,2.12,2.12,0,0,0-.1-.36l0-.07-.07,0a2.42,2.42,0,0,0-.36-.1,1.25,1.25,0,0,0-.19,0h-.19a1.51,1.51,0,0,0-.37.07,1.11,1.11,0,0,0-.34.18.86.86,0,0,0-.13.14l-.06.08s0,0,0,.05,0,0,0,0h0l.07,0L47.7,2.9l-.08-.06a.91.91,0,0,0-.16-.11l-.16-.09-.18-.07-.18,0-.09,0h-.09l-.19,0h-.65l-.09,0-.09,0-.09,0-.09,0-.09,0-.09,0-.09,0-.17.07-.16.1s0,0,0,0a0,0,0,0,0,0,0h0a.8.8,0,0,1,.16-.08l.17-.08.08,0,.09,0,.09,0,.09,0,.09,0,.09,0,.09,0H46l.09,0h.46l.18,0h.09l.09,0,.17,0,.17.07.16.09.15.1.07.06.06.06,0,.05,0-.06h0s0,0,0,0a.08.08,0,0,1,0,0s0,0,0-.08L48,2.71a1,1,0,0,1,.31-.17,1.36,1.36,0,0,1,.35-.07h.19l.18,0a2,2,0,0,1,.35.1Z" transform="translate(-1.13 -1.01)"/><path class="cls-2" d="M49.09,2.92a.37.37,0,0,1,0,.09V3h0a0,0,0,0,0,0,0,0,0,0,0,0,0,0h0V3a.3.3,0,0,0,0-.12l-.11,0h-.06s0,0,0,0h0Z" transform="translate(-1.13 -1.01)"/><path class="cls-2" d="M48.74,3.27a.53.53,0,0,1-.05.15.33.33,0,0,1-.11.12s0,0,0,0l0,0a.31.31,0,0,0,.12-.13.75.75,0,0,0,.07-.18.54.54,0,0,0-.19.07.33.33,0,0,0-.12.11l0,.06,0,0a.36.36,0,0,1,.13-.11A.53.53,0,0,1,48.74,3.27Z" transform="translate(-1.13 -1.01)"/><path class="cls-2" d="M48.58,6.59l0,0a.39.39,0,0,1,0-.06l0-.09s0-.08.05-.13,0-.1,0-.16,0-.11,0-.17,0-.06,0-.09a.38.38,0,0,0,0-.1s0-.07,0-.1v-.3a.68.68,0,0,0,0-.19.19.19,0,0,0,0-.08.29.29,0,0,0,0-.09l-.06-.15a.67.67,0,0,0-.06-.12l0-.09,0-.07a.46.46,0,0,0,0,.08.63.63,0,0,0,0,.09l0,.06a.14.14,0,0,1,0,.07.14.14,0,0,1,0,.07l0,.08,0,.17a1.1,1.1,0,0,1,0,.18v.29a.28.28,0,0,0,0,.09c0,.07,0,.13,0,.19a1.11,1.11,0,0,0,0,.17l0,.16a1.58,1.58,0,0,0-.06.23l0,.06Z" transform="translate(-1.13 -1.01)"/><path class="cls-2" d="M45.41,3.42h0l.06,0,.09,0,.13,0,.15,0,.18,0h.58l.19,0,.09,0,.09,0,.15,0a.67.67,0,0,0,.12.06l.09.06.07.05-.08,0-.09,0-.06,0-.07,0-.07,0-.08,0-.17,0-.18,0h-.39l-.18,0-.18,0-.15,0-.23.06-.06,0Z" transform="translate(-1.13 -1.01)"/><path class="cls-2" d="M48.15,5.21a.14.14,0,0,0-.15.12.12.12,0,0,0,.12.15.13.13,0,0,0,.15-.12A.14.14,0,0,0,48.15,5.21Z" transform="translate(-1.13 -1.01)"/><path class="cls-2" d="M46.79,3.86a.13.13,0,0,1-.12.15.14.14,0,0,1-.15-.12.14.14,0,0,1,.12-.15A.12.12,0,0,1,46.79,3.86Z" transform="translate(-1.13 -1.01)"/><path class="cls-2" d="M48.87,7.76a.22.22,0,0,0,.28.35.23.23,0,0,0,0-.32A.23.23,0,0,0,48.87,7.76Z" transform="translate(-1.13 -1.01)"/><path class="cls-2" d="M44.25,3.14a.23.23,0,0,1-.32,0,.22.22,0,0,1,0-.32.22.22,0,0,1,.31,0A.22.22,0,0,1,44.25,3.14Z" transform="translate(-1.13 -1.01)"/><path class="cls-2" d="M49.34,4.49a.09.09,0,0,0,.14,0,.12.12,0,0,0,0-.15.11.11,0,0,0-.15,0A.1.1,0,0,0,49.34,4.49Z" transform="translate(-1.13 -1.01)"/><path class="cls-2" d="M47.51,2.67a.1.1,0,0,1,0-.14.09.09,0,0,1,.14,0,.11.11,0,0,1,0,.15A.11.11,0,0,1,47.51,2.67Z" transform="translate(-1.13 -1.01)"/><path class="cls-2" d="M49.48,4.75a.09.09,0,0,0,.13,0,.09.09,0,0,0,0-.13.09.09,0,1,0-.11.15Z" transform="translate(-1.13 -1.01)"/><path class="cls-2" d="M47.26,2.53a.09.09,0,0,1,0-.13.09.09,0,1,1,0,.13Z" transform="translate(-1.13 -1.01)"/><path class="cls-2" d="M49.59,5a.08.08,0,0,0,.12,0,.07.07,0,0,0,0-.11.08.08,0,0,0-.12,0A.07.07,0,0,0,49.59,5Z" transform="translate(-1.13 -1.01)"/><path class="cls-2" d="M47,2.42a.11.11,0,0,1,0-.12.09.09,0,0,1,.1.14A.11.11,0,0,1,47,2.42Z" transform="translate(-1.13 -1.01)"/><path class="cls-2" d="M49.64,5.27a.07.07,0,0,0,.1,0,.08.08,0,0,0,0-.1.07.07,0,0,0-.08.12Z" transform="translate(-1.13 -1.01)"/><path class="cls-2" d="M46.74,2.37a.07.07,0,0,1,0-.1s.08,0,.1,0a.07.07,0,0,1,0,.1A.08.08,0,0,1,46.74,2.37Z" transform="translate(-1.13 -1.01)"/><path class="cls-2" d="M49.64,5.52s.08,0,.1,0a.07.07,0,0,0-.11-.07A.06.06,0,0,0,49.64,5.52Z" transform="translate(-1.13 -1.01)"/><path class="cls-2" d="M46.49,2.36a.06.06,0,0,1,0-.09.07.07,0,1,1,.08.11A.07.07,0,0,1,46.49,2.36Z" transform="translate(-1.13 -1.01)"/><path class="cls-2" d="M49.64,5.75a.05.05,0,0,0,.08,0,.06.06,0,0,0,0-.08.06.06,0,1,0-.07.1Z" transform="translate(-1.13 -1.01)"/><path class="cls-2" d="M46.26,2.37a.06.06,0,0,1,0-.08.07.07,0,0,1,.09,0,.06.06,0,0,1,0,.08A.06.06,0,0,1,46.26,2.37Z" transform="translate(-1.13 -1.01)"/><path class="cls-2" d="M49.62,6a.06.06,0,0,0,.07,0,0,0,0,1,0-.08-.06A0,0,0,0,0,49.62,6Z" transform="translate(-1.13 -1.01)"/><path class="cls-2" d="M46.06,2.39a0,0,0,0,1,0-.07,0,0,0,0,1,.06.08A0,0,0,0,1,46.06,2.39Z" transform="translate(-1.13 -1.01)"/><path class="cls-2" d="M49.58,6.13s0,0,.06,0a0,0,0,0,0,0-.06s-.05,0-.06,0A0,0,0,0,0,49.58,6.13Z" transform="translate(-1.13 -1.01)"/><path class="cls-2" d="M45.87,2.43s0-.05,0-.06a0,0,0,0,1,.07,0s0,.05,0,.06A0,0,0,0,1,45.87,2.43Z" transform="translate(-1.13 -1.01)"/><path class="cls-2" d="M49.54,6.31a0,0,0,0,0,.05,0,0,0,0,0,0,0,0s0,0,0,0A0,0,0,0,0,49.54,6.31Z" transform="translate(-1.13 -1.01)"/><path class="cls-2" d="M45.7,2.47s0,0,0-.05a0,0,0,0,1,0,0s0,0,0,0S45.71,2.49,45.7,2.47Z" transform="translate(-1.13 -1.01)"/><path class="cls-2" d="M49.5,6.47a0,0,0,0,0,0,0s0,0,0,0,0,0,0,0A0,0,0,0,0,49.5,6.47Z" transform="translate(-1.13 -1.01)"/><path class="cls-2" d="M45.53,2.51s0,0,0,0,0,0,.05,0a.06.06,0,0,1,0,0S45.54,2.53,45.53,2.51Z" transform="translate(-1.13 -1.01)"/><path class="cls-2" d="M49.46,6.6h0a0,0,0,0,0,0,0h0S49.45,6.59,49.46,6.6Z" transform="translate(-1.13 -1.01)"/><path class="cls-2" d="M45.41,2.55s0,0,0,0h0s0,0,0,0A0,0,0,0,1,45.41,2.55Z" transform="translate(-1.13 -1.01)"/><path class="cls-2" d="M49.41,6.7h0a0,0,0,0,0,0,0h0A0,0,0,0,0,49.41,6.7Z" transform="translate(-1.13 -1.01)"/><path class="cls-2" d="M45.31,2.6a0,0,0,0,1,0,0h0a0,0,0,0,1,0,0Z" transform="translate(-1.13 -1.01)"/><path class="cls-2" d="M49.36,6.8h0s0,0,0,0,0,0,0,0Z" transform="translate(-1.13 -1.01)"/><path class="cls-2" d="M45.21,2.65v0s0,0,0,0,0,0,0,0S45.21,2.66,45.21,2.65Z" transform="translate(-1.13 -1.01)"/></svg>