<?xml version="1.0" encoding="utf-8"?>
<!-- Generator: Adobe Illustrator 23.0.0, SVG Export Plug-In . SVG Version: 6.00 Build 0)  -->
<svg version="1.1" id="Capa_1" xmlns="http://www.w3.org/2000/svg" xmlns:xlink="http://www.w3.org/1999/xlink" x="0px" y="0px"
	 viewBox="0 0 255.12 255.12" style="enable-background:new 0 0 255.12 255.12;" xml:space="preserve">
<style type="text/css">
	.st0{fill:#4E4D4D;}
	.st1{fill-rule:evenodd;clip-rule:evenodd;fill:#FDF1EC;}
	.st2{fill:none;}
	.st3{fill:#FDF1EC;}
	.st4{fill-rule:evenodd;clip-rule:evenodd;fill:#FFFFFF;}
</style>
<rect x="-0.13" y="-0.7" class="st0" width="255.69" height="255.78"/>
<g>
	<path class="st1" d="M189.54,128.46c-0.75,0.05-1.52,0.09-2.28,0.12c-0.77,0.03-1.53,0.07-2.32,0.12
		c-3.62,0.16-7.24,0.39-10.84,0.7c-0.17,0.03-0.33,0.04-0.5,0.04c-0.15,0-0.32,0.01-0.49,0.04c-6.08,0.52-12.13,1.13-18.12,1.85
		c-6,0.7-12.02,1.51-18.09,2.43c-6.28,0.9-12.51,1.94-18.72,3.11c-6.19,1.17-12.34,2.64-18.42,4.43c-0.25,0.08-0.5,0.16-0.74,0.24
		c-0.25,0.08-0.5,0.15-0.78,0.23c-0.83,0.24-1.68,0.5-2.53,0.8c-0.84,0.31-1.68,0.64-2.52,1c-1.71,0.76-2.39,1.38-2.05,1.87
		c0.39,0.52,1.21,0.97,2.49,1.35c0.06,0.03,0.1,0.04,0.14,0.04c0.04,0,0.1,0.01,0.15,0.04c1.06,0.32,2.12,0.66,3.17,1.05
		c0.54,0.21,0.84,0.57,0.86,1.09c0.03,0.08,0.03,0.17,0,0.29c-0.03,0.12-0.08,0.21-0.17,0.29c-0.22,0.16-0.42,0.24-0.61,0.24
		c-2.14-0.32-4.1-0.92-5.87-1.79c-1.42-0.7-2.18-1.86-2.32-3.46c-0.06-0.68,0.18-1.25,0.7-1.75c0.6-0.61,1.27-1.14,1.99-1.55
		c2.05-1.06,4.08-1.91,6.11-2.56c2.02-0.65,4.13-1.27,6.33-1.87h0.08c5.19-1.34,10.44-2.5,15.72-3.45
		c5.29-0.97,10.58-1.83,15.88-2.61c4.93-0.72,9.82-1.35,14.72-1.87c4.9-0.53,9.82-0.98,14.81-1.33c1.17-0.08,2.32-0.16,3.48-0.25
		c1.15-0.09,2.32-0.19,3.49-0.29c1.95-0.15,3.94-0.23,5.94-0.23c0.56-0.04,1.1-0.07,1.64-0.08c0.54-0.01,1.09-0.04,1.63-0.08
		c1.96-0.07,3.9-0.15,5.83-0.21c1.93-0.08,3.87-0.13,5.83-0.19c0.54,0,1.09,0,1.63,0.01c0.54,0.01,1.09,0,1.63,0.07
		c1.04,0.12,1.39,0.63,1.43,1.3c0.01,0.2,0,0.35-0.12,0.48c-0.16,0.17-0.4,0.29-0.69,0.29c-0.51,0-1.04-0.01-1.76-0.01
		c-0.33,0-0.71-0.01-1.04,0c-0.32,0.01-0.78-0.01-1.11,0.01c-1.09,0.07-1.2,0.05-2.24,0.08c-0.22,0.01-0.45,0-0.67,0
		C189.99,128.46,189.77,128.46,189.54,128.46z"/>
	<path class="st1" d="M91.64,203.7c0.28,0,0.46-0.12,0.53-0.36c0.22-0.2,0.42-0.42,0.6-0.66c0.18-0.23,0.36-0.45,0.54-0.65
		c0.54-0.73,1.1-1.46,1.64-2.18c0.54-0.73,1.09-1.46,1.63-2.18c5.59-7.58,11.35-15.01,17.28-22.33
		c5.93-7.31,11.91-14.59,17.98-21.82c1.36-1.63,2.7-3.27,4.04-4.9c1.34-1.63,2.67-3.28,4.04-4.94c0.22-0.28,0.43-0.56,0.63-0.84
		c0.21-0.27,0.4-0.54,0.6-0.84c0.4-0.76,0.47-1.46,0.21-2.14c-0.19-0.39-0.5-0.58-0.9-0.58c-0.35,0-0.67,0.17-0.93,0.5
		c-0.25,0.27-0.49,0.52-0.72,0.78c-0.22,0.25-0.45,0.53-0.67,0.81c-1.31,1.53-2.6,3.05-3.9,4.57c-1.28,1.53-2.59,3.05-3.88,4.62
		c-0.28,0.33-0.54,0.66-0.82,1.01c-0.28,0.33-0.56,0.68-0.86,1.01c-1.95,2.36-3.88,4.71-5.79,7.04c-1.89,2.34-3.8,4.69-5.71,7.05
		c-4.45,5.61-8.79,11.28-13,16.99c-4.22,5.71-8.4,11.46-12.57,17.27c0,0.03-0.01,0.05-0.04,0.08c-0.21,0.28-0.39,0.53-0.53,0.77
		c-0.21,0.32-0.29,0.65-0.22,1.01c0.07,0.37,0.25,0.66,0.56,0.9h0.19H91.64L91.64,203.7z"/>
	<path class="st1" d="M133.38,187.71c-0.64,0-1.21-0.13-1.7-0.4c-0.5-0.25-0.89-0.6-1.21-1.01c-0.31-0.42-0.53-0.89-0.65-1.39
		c-0.11-0.5-0.15-1.01-0.1-1.5c0.17-0.88,0.58-1.85,1.28-2.89c0.7-1.05,1.49-2.08,2.37-3.12c0.88-1.02,1.8-1.99,2.73-2.89
		c0.93-0.9,1.73-1.65,2.38-2.22l0.86-0.58c0.21-0.2,0.46-0.31,0.72-0.31c0.28,0,0.51,0.08,0.7,0.23c0.88,0.65,0.96,1.35,0.25,2.11
		c-2.02,1.91-3.91,3.92-5.71,6.03c-0.03,0.05-0.1,0.12-0.21,0.23c-0.6,0.68-1.15,1.38-1.67,2.1c-0.51,0.73-0.93,1.54-1.25,2.42
		c-0.03,0.13,0.01,0.27,0.11,0.38c0.11,0.13,0.25,0.2,0.42,0.2c0.21,0,0.43,0,0.65,0c0.21,0,0.43-0.03,0.64-0.08
		c1.6-0.36,3.13-0.76,4.59-1.21c1.45-0.44,2.87-0.92,4.26-1.43c1.38-0.52,2.77-1.09,4.17-1.69c1.39-0.61,2.84-1.27,4.33-1.96
		c0.71-0.35,1.36-0.65,1.98-0.92c0.61-0.28,1.16-0.52,1.61-0.72c0.07-0.03-0.41,0.58-0.88,1.36c-0.41,0.69-1.1,1.7-1.14,1.75
		c-0.38,0.46-1.09,0.6-1.69,0.91c-1.49,0.76-3.13,1.53-4.93,2.31c-1.78,0.78-3.53,1.49-5.23,2.12c-1.7,0.64-3.23,1.17-4.61,1.57
		C135.1,187.52,134.07,187.71,133.38,187.71L133.38,187.71z"/>
	<path class="st1" d="M146.31,166.86c-0.06-0.03-0.11-0.04-0.15-0.05c-0.06-0.01-0.11-0.04-0.17-0.07c-0.17-0.04-0.31-0.09-0.4-0.15
		c-0.31-0.29-0.49-0.62-0.53-1c-0.06-0.37,0.03-0.69,0.28-0.96c0.79-0.82,1.77-1.46,2.94-1.9c0.08-0.05,0.17-0.08,0.26-0.08
		c0.1,0,0.18,0,0.26,0c0.35,0,0.67,0.15,0.93,0.42c0.47,0.41,0.64,0.88,0.53,1.41c-0.01,0.09-0.06,0.2-0.11,0.31
		c-0.06,0.11-0.13,0.17-0.21,0.2c-0.46,0.25-0.92,0.5-1.36,0.73c-0.45,0.24-0.9,0.45-1.36,0.66c-0.14,0.08-0.29,0.16-0.45,0.24
		C146.6,166.7,146.45,166.78,146.31,166.86L146.31,166.86z"/>
	<path class="st2" d="M47.21,197.47c-0.03,0.01-0.09,0.04-0.17,0.1c-0.88,0.87-1.71,1.78-2.48,2.72c-0.76,0.94-1.49,1.93-2.16,2.97
		c-0.44,0.71-0.5,1.01-0.17,0.9c0.04-0.01,0.09-0.03,0.13-0.05c0.05-0.02,0.12-0.05,0.18-0.09c1.82-1.98,3.44-4.07,4.86-6.25
		C47.42,197.51,47.35,197.42,47.21,197.47z"/>
	<path class="st2" d="M78.85,177.18c-0.33-0.22-0.61-0.47-0.83-0.73c-0.26-0.29-0.37-0.63-0.31-1.01c0.02-0.09,0.04-0.17,0.06-0.25
		c0.02-0.08,0.05-0.16,0.06-0.24l0.09-0.39c-0.01-0.01-0.02-0.03-0.04-0.07c-0.02-0.03-0.04-0.05-0.06-0.06
		c-0.02,0-0.04,0-0.08-0.01c-0.04-0.01-0.07-0.02-0.09-0.03c-0.03,0.01-0.08,0.04-0.16,0.1c-0.28,0.33-0.55,0.68-0.79,1.07
		c-0.24,0.39-0.48,0.78-0.69,1.2c-0.22,0.42-0.41,0.84-0.57,1.27c-0.16,0.43-0.31,0.85-0.44,1.26c-0.21,0.73-0.25,1.44-0.12,2.12
		c0.03,0.14,0.13,0.26,0.3,0.34c0.16,0.09,0.31,0.1,0.44,0.06c0.02,0,0.05-0.02,0.11-0.04c0.07-0.05,0.13-0.08,0.2-0.11
		c0.07-0.03,0.13-0.07,0.2-0.11c0.65-0.41,1.21-0.89,1.71-1.42c0.49-0.54,0.94-1.11,1.35-1.72c0.21-0.29,0.3-0.5,0.25-0.65
		C79.4,177.64,79.2,177.43,78.85,177.18z"/>
	<path class="st2" d="M80.83,174.29c-0.03-0.02-0.05-0.03-0.09-0.03c-0.03,0-0.05,0-0.07,0.01c-0.57,0.39-0.98,0.9-1.2,1.53
		c-0.02,0.04-0.02,0.09,0.01,0.15c0.03,0.06,0.08,0.1,0.12,0.11c0.2,0.05,0.39,0.04,0.57-0.01c0.14-0.05,0.26-0.14,0.36-0.27
		c0.1-0.14,0.17-0.28,0.24-0.45c0.07-0.16,0.11-0.33,0.13-0.5c0.02-0.17,0.04-0.33,0.04-0.45c-0.02-0.01-0.03-0.02-0.04-0.04
		L80.83,174.29z"/>
	<path class="st2" d="M89.81,171.19c-0.17,0.05-0.47,0.27-0.91,0.65c-0.07,0.06-0.15,0.12-0.22,0.18c0.01,0.12,0.01,0.23,0.01,0.35
		c0.02,0.26,0.05,0.51,0.07,0.76c0.5-0.51,0.88-1.04,1.13-1.59C90,171.26,89.97,171.14,89.81,171.19z"/>
	<path class="st2" d="M88.7,179.49c-0.07-0.06-0.14-0.07-0.21-0.05c-0.03,0.01-0.07,0.04-0.12,0.09c-0.41,0.46-0.84,0.93-1.27,1.4
		c-0.43,0.47-0.85,0.94-1.29,1.41c-0.07,0.08-0.13,0.19-0.18,0.32c-0.01,0.02-0.01,0.04,0,0.07c0.01,0.03,0.02,0.04,0.02,0.06
		c0.04,0.02,0.09,0.03,0.14,0.03c0.07-0.01,0.12-0.01,0.16-0.01c0.04,0,0.07-0.01,0.1-0.02c0.22-0.07,0.44-0.18,0.64-0.33
		c0.21-0.14,0.39-0.3,0.57-0.47c0.74-0.6,1.25-1.33,1.5-2.19c0-0.05,0-0.1-0.01-0.16C88.75,179.58,88.73,179.53,88.7,179.49z"/>
	<path class="st3" d="M89.99,187.4c-0.28-0.32-0.64-0.54-1.1-0.66c-0.25-0.06-0.49-0.13-0.7-0.23c-0.54-0.17-1.09-0.33-1.64-0.5
		c-0.56-0.16-1.1-0.32-1.65-0.45c-3.92-1.01-7.79-1.44-11.62-1.31c-3.84,0.15-7.68,0.83-11.53,2.05c-0.32,0.12-0.65,0.23-1,0.36
		c-0.35,0.12-0.7,0.26-1.08,0.41c-0.21,0.08-0.41,0.16-0.61,0.24c-0.21,0.08-0.42,0.17-0.65,0.26c-0.06,0.03-0.11,0.06-0.17,0.08
		c-0.05,0.02-0.12,0.05-0.19,0.09c-0.24,0.11-0.5,0.23-0.78,0.37c-0.28,0.13-0.58,0.27-0.91,0.41c-0.38,0.06-0.48-0.09-0.32-0.46
		c0.08-0.17,0.15-0.33,0.24-0.51c0.09-0.16,0.19-0.33,0.29-0.49c0.02-0.04,0.05-0.09,0.08-0.15c0.03-0.06,0.06-0.11,0.1-0.15
		c3.32-5.8,6.12-11.79,8.38-17.98c0.48-1.3,0.91-2.59,1.29-3.88c0.38-1.3,0.72-2.62,1.02-3.97c0.22-0.97,0.33-1.98,0.34-3.04
		c-0.02-0.58-0.12-1.12-0.31-1.6c-0.18-0.45-0.42-0.84-0.76-1.18c-0.32-0.33-0.7-0.6-1.13-0.79c-0.42-0.19-0.87-0.29-1.34-0.32
		c-0.48-0.03-0.95,0.03-1.43,0.18c-0.22,0.07-0.46,0.16-0.7,0.27c-0.66,0.33-1.35,0.74-2.05,1.24c-0.71,0.5-1.41,1.07-2.09,1.7
		c-0.69,0.63-1.34,1.31-1.97,2.02c-0.62,0.72-1.18,1.44-1.69,2.18c-0.51,0.75-0.94,1.47-1.3,2.2c-0.35,0.74-0.6,1.44-0.74,2.11
		c-0.11,0.63,0.04,1.21,0.42,1.73c0.31,0.45,0.67,0.79,1.08,1c0.42,0.21,0.86,0.34,1.32,0.38c0.46,0.05,0.93,0.02,1.43-0.06
		c0.49-0.09,0.98-0.21,1.45-0.36c0.52-0.17,1.03-0.33,1.54-0.49c0.51-0.16,1.02-0.33,1.54-0.5c0.03-0.02,0.06-0.04,0.11-0.06
		c0.05-0.01,0.08-0.03,0.11-0.06c0.03-0.02,0.04-0.04,0.05-0.04c0.02,0,0.04-0.02,0.06-0.04c0.1-0.06,0.15-0.16,0.16-0.29
		c0.01-0.13-0.03-0.24-0.11-0.33c-0.35-0.35-0.76-0.47-1.21-0.36c-0.26,0.08-0.5,0.16-0.74,0.24c-0.24,0.08-0.49,0.16-0.74,0.24
		l-0.69,0.22l-0.53,0.17c-0.24,0.08-0.47,0.15-0.71,0.23c-0.24,0.08-0.47,0.15-0.71,0.23c-1.03,0.22-1.68,0.2-1.96-0.06
		c-0.26-0.23-0.36-0.6-0.27-1.13c0.07-0.45,0.2-0.88,0.4-1.3c0.19-0.42,0.4-0.82,0.64-1.22c0.92-1.52,1.97-2.91,3.16-4.17
		c1.18-1.25,2.52-2.4,4.01-3.42c0.64-0.46,1.26-0.78,1.86-0.98c0.12-0.04,0.23-0.07,0.33-0.11c0.11-0.03,0.21-0.05,0.33-0.06
		c0.78-0.1,1.22,0.16,1.33,0.75c0.09,0.7,0.11,1.45,0.02,2.26c-0.08,0.82-0.22,1.65-0.42,2.48c-0.19,0.84-0.41,1.65-0.66,2.44
		c-0.25,0.79-0.49,1.52-0.72,2.17c-1.43,4.31-3.16,8.53-5.17,12.63c-2.01,4.11-4.2,8.13-6.57,12.05c-0.38,0.64-0.93,1.21-1.63,1.7
		c-0.66,0.47-1.38,1.02-2.15,1.65c-0.77,0.62-1.55,1.31-2.33,2.05c-0.79,0.74-1.56,1.52-2.32,2.34c-0.75,0.82-1.44,1.65-2.07,2.51
		c-0.62,0.85-1.17,1.7-1.62,2.56c-0.46,0.85-0.79,1.68-0.96,2.48c-0.08,0.49,0.06,0.93,0.4,1.34c0.35,0.4,0.79,0.63,1.3,0.66
		c0.19,0.04,0.37,0.03,0.53-0.03c0.09-0.03,0.16-0.06,0.2-0.09c0.62-0.35,1.19-0.79,1.7-1.29c0.52-0.51,0.99-1.02,1.44-1.55
		c1.54-1.79,2.96-3.63,4.27-5.53c1.32-1.9,2.6-3.84,3.85-5.82c0.34-0.58,0.81-1.05,1.4-1.42c1.42-0.86,2.87-1.64,4.35-2.32
		c1.48-0.68,3.01-1.28,4.6-1.79c2.17-0.7,4.35-1.22,6.55-1.58c2.2-0.35,4.41-0.52,6.62-0.51c2.21,0.01,4.41,0.21,6.61,0.6
		c2.2,0.39,4.37,0.97,6.52,1.75c0.04,0.02,0.1,0.03,0.18,0.04c0.08,0.01,0.13,0.01,0.16,0c0.08-0.02,0.12-0.08,0.11-0.16
		c-0.01-0.06-0.01-0.13-0.02-0.19C90.07,187.48,90.04,187.43,89.99,187.4z M42.54,204.01c-0.06,0.04-0.13,0.07-0.18,0.09
		c-0.04,0.02-0.1,0.04-0.13,0.05c-0.33,0.11-0.27-0.2,0.17-0.9c0.67-1.04,1.4-2.03,2.16-2.97c0.77-0.94,1.6-1.85,2.48-2.72
		c0.08-0.05,0.14-0.09,0.17-0.1c0.14-0.05,0.21,0.05,0.2,0.29C45.99,199.95,44.36,202.04,42.54,204.01z"/>
	<path class="st3" d="M98.51,168.43c-0.13,0.04-0.35,0.19-0.64,0.41c-0.3,0.23-0.61,0.49-0.94,0.78c-0.32,0.28-0.62,0.56-0.91,0.83
		c-0.28,0.26-0.48,0.45-0.59,0.57c-0.4,0.38-0.8,0.74-1.19,1.09c-0.4,0.36-0.79,0.69-1.16,1.02c-0.28,0.23-0.6,0.48-0.96,0.73
		c-0.36,0.26-0.71,0.45-1.06,0.56c-0.45,0.14-0.69-0.06-0.74-0.6c0.01-0.03-0.01-0.09-0.03-0.15c-0.04-0.65-0.07-1.28-0.08-1.87
		c-0.01-0.6,0.06-1.17,0.19-1.7c0.13-0.54,0.35-1.06,0.68-1.56c0.32-0.5,0.77-0.98,1.37-1.44c0.16-0.13,0.32-0.23,0.49-0.3
		c0.05-0.02,0.11-0.06,0.15-0.09c0.04-0.03,0.1-0.06,0.15-0.1c0.09-0.06,0.13-0.16,0.13-0.29c-0.01-0.14-0.05-0.25-0.13-0.35
		c-0.2-0.18-0.41-0.28-0.66-0.3c-0.24-0.03-0.47,0-0.71,0.08c-0.08,0.02-0.14,0.05-0.21,0.07c-0.06,0.02-0.12,0.05-0.19,0.1
		c-1.42,0.84-2.3,2.04-2.65,3.6c-0.15,0.79-0.21,1.63-0.17,2.52c0.07-0.06,0.1,1.15,0.09,1.12c0.07,0.73,0.14,1.45,0.24,2.12
		c0.03,0.32,0.01,0.62-0.06,0.88c-0.08,0.27-0.24,0.52-0.5,0.77c-0.21,0.19-0.43,0.4-0.63,0.62c-0.2,0.22-0.4,0.44-0.61,0.66
		c-0.03,0.01-0.05,0.02-0.06,0.04c-0.45,0.49-0.9,0.99-1.36,1.5c-0.45,0.51-0.89,1.02-1.34,1.52c-0.4,0.51-0.75,1-1.04,1.49
		c-0.14,0.29-0.12,0.58,0.07,0.88c0.18,0.26,0.35,0.45,0.53,0.58c0.18,0.13,0.37,0.22,0.57,0.26c0.21,0.03,0.42,0.03,0.66,0
		c0.24-0.03,0.49-0.07,0.77-0.13l0.27-0.09c1.56-0.5,2.68-1.3,3.38-2.39c0.7-1.1,1.01-2.41,0.95-3.95c0-0.05,0-0.1,0-0.15
		c-0.01-0.05,0-0.1,0.01-0.16c-0.02-0.25,0.07-0.47,0.27-0.66c0.05-0.05,0.1-0.09,0.14-0.13c0.05-0.04,0.09-0.08,0.14-0.13
		c0.16-0.18,0.33-0.36,0.51-0.53c0.17-0.17,0.34-0.34,0.52-0.51c0.86-0.79,1.71-1.58,2.55-2.38c0.84-0.81,1.68-1.62,2.51-2.45
		c1.03-1.01,1.65-1.66,1.84-1.97C98.99,168.49,98.79,168.34,98.51,168.43z M87.26,181.99c-0.18,0.17-0.36,0.33-0.57,0.47
		c-0.2,0.15-0.42,0.26-0.64,0.33c-0.03,0.01-0.06,0.02-0.1,0.02c-0.04,0.01-0.09,0.01-0.16,0.01c-0.05,0-0.1-0.01-0.14-0.03
		c-0.01-0.01-0.01-0.03-0.02-0.06c-0.01-0.03-0.01-0.05,0-0.07c0.06-0.13,0.11-0.24,0.18-0.32c0.43-0.47,0.86-0.94,1.29-1.41
		c0.43-0.47,0.85-0.95,1.27-1.4c0.05-0.05,0.09-0.08,0.12-0.09c0.07-0.02,0.14-0.01,0.21,0.05c0.03,0.04,0.05,0.09,0.05,0.15
		c0.01,0.06,0.01,0.11,0.01,0.16C88.51,180.66,88,181.39,87.26,181.99z"/>
	<path class="st3" d="M88.68,172.02c-0.74,0.61-1.53,1.15-2.38,1.6c-0.94,0.51-1.84,0.9-2.7,1.18c-0.11,0.03-0.21,0.07-0.29,0.09
		c-0.09,0.02-0.19,0.04-0.27,0.07c-0.08,0.01-0.16-0.01-0.23-0.06c-0.07-0.06-0.11-0.13-0.13-0.22l-0.04-0.34
		c-0.04-0.32-0.1-0.62-0.17-0.91c-0.15-0.41-0.41-0.73-0.8-0.97c-0.4-0.24-0.83-0.28-1.3-0.13c-0.17,0.05-0.33,0.13-0.49,0.23
		c-0.05,0.05-0.1,0.09-0.15,0.12c-0.06,0.03-0.11,0.08-0.16,0.12c-0.04,0.05-0.09,0.08-0.13,0.11c-0.04,0.02-0.09,0.05-0.15,0.09
		c-0.03,0.02-0.06,0.04-0.12,0.06c-0.15,0.05-0.32-0.01-0.52-0.19c-0.02-0.01-0.04-0.03-0.05-0.07c-0.02-0.01-0.04-0.03-0.05-0.06
		c-0.16-0.17-0.32-0.28-0.49-0.33c-0.16-0.05-0.33-0.05-0.49,0c-0.08,0.02-0.14,0.05-0.2,0.09c-0.06,0.03-0.11,0.08-0.17,0.13
		c-0.51,0.37-1,0.85-1.46,1.45c-0.46,0.6-0.86,1.24-1.2,1.94c-0.34,0.69-0.62,1.39-0.83,2.1c-0.21,0.71-0.32,1.35-0.33,1.94
		c-0.01,1.18,0.52,2.09,1.58,2.71c0.62,0.35,1.24,0.43,1.84,0.23c0.17-0.05,0.33-0.13,0.49-0.23c0.48-0.28,0.93-0.62,1.36-1
		c0.42-0.39,0.82-0.81,1.19-1.26c0.37-0.45,0.71-0.92,1.02-1.4c0.31-0.49,0.57-0.96,0.81-1.43c0.16-0.35,0.42-0.6,0.78-0.73
		c0.61-0.25,1.29-0.57,2.04-0.93c0.76-0.37,1.5-0.77,2.21-1.23c0.72-0.47,1.36-0.96,1.94-1.51c0.05-0.05,0.09-0.09,0.13-0.14
		c-0.02-0.25,0.4-0.78,0.37-1.05C89.13,171.98,88.68,172.14,88.68,172.02z M79.19,178.42c-0.41,0.61-0.86,1.18-1.35,1.72
		c-0.5,0.53-1.06,1.01-1.71,1.42c-0.07,0.05-0.13,0.08-0.2,0.11c-0.07,0.03-0.13,0.07-0.2,0.11c-0.06,0.02-0.1,0.03-0.11,0.04
		c-0.13,0.04-0.28,0.03-0.44-0.06c-0.17-0.08-0.26-0.2-0.3-0.34c-0.12-0.69-0.09-1.39,0.12-2.12c0.14-0.41,0.28-0.83,0.44-1.26
		c0.16-0.43,0.35-0.86,0.57-1.27c0.22-0.42,0.45-0.82,0.69-1.2c0.24-0.39,0.51-0.75,0.79-1.07c0.08-0.06,0.13-0.09,0.16-0.1
		c0.02,0.01,0.05,0.02,0.09,0.03c0.04,0.01,0.07,0.02,0.08,0.01c0.02,0.01,0.04,0.03,0.06,0.06c0.02,0.03,0.04,0.05,0.04,0.07
		l-0.09,0.39c-0.01,0.08-0.03,0.16-0.06,0.24c-0.02,0.08-0.04,0.16-0.06,0.25c-0.06,0.38,0.04,0.72,0.31,1.01
		c0.23,0.26,0.5,0.5,0.83,0.73c0.35,0.25,0.55,0.45,0.59,0.59C79.49,177.92,79.4,178.14,79.19,178.42z M80.91,174.82
		c-0.01,0.17-0.06,0.34-0.13,0.5c-0.07,0.17-0.14,0.31-0.24,0.45c-0.1,0.13-0.22,0.22-0.36,0.27c-0.18,0.06-0.37,0.06-0.57,0.01
		c-0.05-0.02-0.09-0.05-0.12-0.11c-0.03-0.06-0.03-0.11-0.01-0.15c0.22-0.62,0.62-1.13,1.2-1.53c0.02-0.01,0.04-0.01,0.07-0.01
		c0.03,0,0.06,0,0.09,0.03l0.09,0.04c0.01,0.01,0.02,0.03,0.04,0.04C80.95,174.49,80.94,174.65,80.91,174.82z"/>
	<rect x="38.41" y="215.57" class="st1" width="177.47" height="0.63"/>
	<path class="st1" d="M75.78,123.41c4.44-3.68,9-7.54,13.58-11.32l1.44-7.26c-0.36-5.51-0.56-9.81-1.7-15.27
		c-0.03-0.14-0.06-0.27-0.08-0.4l0.05-0.13l0.2-1.34c1.12,2.74,2.02,6.41,2.54,8.66c1.71,7.39,1.83,7.66,1.47,12.55
		c2.42-1.95,4.85-3.86,7.26-5.68c3.44-2.6,1.36-0.72,5.44-4.91c3.07-3.15,6.12-6.18,9.24-9.29c0.51-0.7,1.17-1.64,1.88-2.65
		c0.26-1.72,1.65-7.34,1.79-7.96l1.14-9.55l-0.43-5.1c0.23-0.36,0.47-0.69,0.72-0.88l0.52-0.66l0.17,0.09
		c0.19,2.24,0.32,4.45,0.37,6.52c0,0.18-1.27,9.6-1.31,9.81l-1.34,5.45c0.93-1.27,1.83-2.44,2.51-3.17
		c1.95-2.12,3.48-3.96,5.14-6.29c-0.85,1.37-1.59,2.51-2.54,3.81c-2.12,2.9-2.39,3.07-3.87,5.34c6.37-5.51,11.25-8.26,20.26-11.57
		l4.8-1.92l0.84,0.26l-0.01,0.03l-5.35,2.23c-16.07,6.17-17.9,9.67-27.18,20.2l-2.84,3.22l0.01-0.01c-1.61,1.88-4.85,6-6.6,7.49
		c-2.3,1.96-4.59,3.99-6.86,6.06c3.37-1.32,6.91-2.65,8.11-2.9c4.35-0.88,8.33-1.69,12.64-2.78c1.25-0.31,4.06-0.04,5.74-0.21
		c0.15-0.02,0.29-0.03,0.43-0.05c0.05-0.04,0.12-0.07,0.19-0.09c3.99-1.23,6.04-3.81,8.07-7.15c0.11-0.18,0.22-0.42,0.34-0.71
		c-1.05-0.91-1.17-2.34-1.18-3.27c0.74-0.47,0.8-3.19,1.75-2.92c1.64,0.43,2.03,1.98,1.87,3.45c-0.14,1.33-0.69,2.59-2.11,2.9
		c-0.1,0.29-0.2,0.55-0.3,0.74c-1.19,2.3-2.46,4.27-4.27,5.78c0.97-0.25,1.95-0.4,3.27-0.5c2.35-0.17,5.98-2.92,8.83-5.7
		c-1.77-2.5,1.63-6.28,4.47-4.73c1.57,0.85-0.45,2.8-0.92,3.24c-0.68,0.64-1.79,1.55-3.16,1.53c-2.81,3.06-6.58,6.14-9.26,6.46
		c-1.05,0.13-1.9,0.3-2.72,0.54c5.53,0.26,11.3,0.46,16.84-0.49c3.34-0.57,4.37-0.66,5.76-1.27c1.05-0.54,1.06-1.5,0.99-1.99
		c0.33,0.37,0.65,0.65,0.93,0.79c0.03,0.16,0.13,0.56,0.32,1.08c-0.66-0.2-1.24-0.07-1.64,0.08l0.03-0.01
		c-0.19,0.1-0.37,0.19-0.54,0.27l0,0l0,0h0l0,0h0l-0.09-0.23l0.09,0.23c-1.38,0.66-2.45,0.8-5.76,1.5c-3.33,0.7-6.07,0.99-8.89,1.07
		c3.49,0.73,6.84,1.81,10.19,3.19l0,0l0.01,0l0,0c0.11,0.04,0.22,0.09,0.33,0.14l0,0l0,0c0.71,0.24,1.21,0.02,1.5-0.21
		c-0.18,0.48-0.28,0.82-0.3,0.91c-0.04,0.07-0.21,0.43-0.39,0.96c-0.36-1.09-1.27-1.57-1.32-1.59c-4.52-1.7-9.05-2.88-13.88-3.39
		c-0.42-0.01-0.84-0.02-1.27-0.03c0.63,0.3,1.24,0.66,1.83,1.13c2.6,2.06,5.12,3.2,8.09,4.87c1.4-0.59,2.88,0.04,3.79,0.51
		c0.04,0.5,0.91,1.16,1.48,1.77l0.03,0.01l-0.03-0.01c0.4,0.43,0.65,0.82,0.36,1.09c-2.21,2.19-6.42-0.32-5.76-3.11
		c-0.79-0.34-4.07-2.08-4.84-2.41c-4.7-2.01-3.29-3.2-9.31-3.96c-0.09-0.01-0.17-0.04-0.24-0.09c-1.08,0.11-2.36,0.43-3.51,0.58
		c-0.92,0.12-4.98,0.13-5.5,0.33c-2.89,1.09-9.31,2.39-12.64,3.16c-1.66,0.38-8.48,3.34-12.26,4.97c-4.72,4.4-9.49,9-14.22,13.47
		c-0.96,0.85-2.47,0.8-3.37-0.12C74.75,125.7,74.81,124.26,75.78,123.41L75.78,123.41z M162.3,91.55c0.28,0.07,0.44-0.06,0.53-0.15
		c-0.08-0.14,0.17-0.41-0.01-0.51c-0.03-0.02-0.06-0.03-0.09-0.05l0.06-0.11c0.34,0.06,0.68,0.11,1,0.13l-0.93-1.17
		c1.54-0.12,3.57,0.89,6.39,0.31c-0.04-0.03-0.49-0.25-0.51-0.27l-0.48-0.47c1.32-1.37,2.46,0.69,5.73-1.26
		c0.98-0.59,4.05-2.48,4.61-3.21c-0.19-0.22-0.45-0.12-0.29-0.42c0.46-0.87,3.95-1.64,4.35-2.93c0.11-0.36-0.09-0.3-0.24-0.62
		c1.01-0.59,3.93-2.66,4.69-3.77c-0.68-0.05-0.4,0.06-1.24-0.03c0.51-0.88,2.06-3.23,2.36-4.05c0.17-0.46,0.1-0.61,0.43-1.2
		c-1.23,0.08-1.69,0.07-0.01-2.07c0.62-0.79,1.87-1.61,2.07-2.33l-4.87-4.07c-0.99-0.9-0.86-1.48-2.67-1.74l-3.37-0.26
		c-0.93,0-2.37-0.04-3.33-0.16c-1.58-0.2-8.27-0.13-9.43,0.84c0.31,0.71,1.07,1.45,1.93,2.08c2.84,2.09,2.26,2.14,4.12,2.04
		c0.44-0.02,1.11,0.01,1.57-0.01c0.78-0.03,2.02-0.46,2.81-0.3c-1.18,0.57-2.85,0.91-4.74,0.85c0.93,1.05,6.75,2.81,8.72,3.09
		c0.73,0.1,1.56-0.03,2.22,0.28l0.23,0.17c0.04-0.03,0.08,0.06,0.11,0.1c-1.04,0.72-4.02-0.3-5.16-0.57c-4.62-1.07-6-2.06-9.64-4.61
		c-0.7-0.49-1.3-0.98-1.78-1.53c-0.5-0.56-0.72-1.09-1.23-1.53c-1.65,0.49-2.73,0.58-4.88,1.3c-0.4,0.14-0.44,0.11-0.89,0.25
		c-0.83,0.24-1.62,0.39-1.44,0.62c0.28,0.3,4.34,2.71,5.04,3.05c0.94,0.45,3.9,0.15,5.58,0.67c-0.56,0.18-1.39,0.15-2.03,0.09
		c-0.89-0.08-1.21,0.14-1.66,0.11c2.68,1.64,7.72,3.27,10.9,3.84c1.38,0.25,6.11,1.03,7.16,0.78c0.94-0.22,1.34-0.5,1.95,0.27
		c-0.68,0.09-0.81,0.3-1.67,0.33c-0.76,0.03-1.17,0.06-1.85-0.03c-0.87-0.13-2.34-0.2-3.62-0.4c-3.07-0.47-5.37-1.44-8.25-2.01
		c0.94,0.92,3.2,2.38,4.65,3.06c-1.51,0.26-3.44-1.06-4.71-1.88c-1.51-0.97-1.63-1.98-3.36-2.77c-2.94-1.35-8.5-4.6-8.89-4.76
		c-0.72-0.3-3.39,0.72-3.34,1.29c0.02,0.33,0.77,1.21,1.14,1.55c0.53,0.49,1.17,0.84,1.81,1.24c1.77,1.1,2.05,1.8,4.3,1.96l4.5,0.54
		c-1.37,0.22-2.89,0.06-4.35,0.11c1.13,1.23,6.59,3.54,8.74,4.15c1.57,0.45,0.52,0.4,2.38,0.63c3.98,0.49,1.39,0.44,6.03,0.39
		c0.91-0.01,0.32,0.07,0.96,0.19c0.37,0.07,0.62-0.01,1.12,0.04c-1.77,1.07-7.39,0.31-9.35-0.35c-0.65-0.22-2.24-0.37-2.92-0.7
		c0.09,0.08,0.52,0.43,0.54,0.45c0.52,0.56,0.24-0.01,0.35,0.62c-1.86-0.31-2.6-1.67-4.03-2.61c-3.24-2.13-8.44-3.97-11-6.65
		c-0.51-0.53-0.84-1.19-1.2-1.48c-1.21,0.66-2.4,1.5-3.67,2.27c-0.67,0.41-1.32,0.85-1.87,1.19c-0.64,0.4-1.41,0.58-1.18,1.35
		c0.3,1.03,1.16,2.52,1.78,3.43c0.39,0.57,0.72,1.16,1.14,1.7c2.16,2.8,5.01,5.36,8.89,7.15c2.44,1.13,5.56,2.52,8.32,2.83
		c0.75,0.09,2.04-0.32,2.07,0.44c0.04,0.99-3.54-0.15-4-0.28c-6.61-1.78-6.94-2.95-12.24-5.96c-0.17,0.95,0.51,1.99,0.97,2.63
		c0.91,1.26,0.57,1.24,2.54,2.06c-1.24,0.15-2.6-0.82-3.44-2.03c-0.88-1.27-1.61-1.7-0.66-3.27c-2.07-2.49-2.54-1.88-4.78-6.02
		l-1.03-1.94c-0.56,0.65-0.84,2.39-0.92,3.23l-0.03,3.08c-0.01,0.63,0.82,1.97,1.09,2.8c0.27,0.86,0.88,1.78,1.45,2.54
		c0.37-0.12,0.52-0.38,0.77-0.65c1.3,0.67,1.85,5.11,6.13,6.65c-0.22-0.8-0.53-0.46-0.48-1.2c0.83-0.17,1.56,0.38,2.4,0.75
		c1.62,0.71,3.72,1.62,5.59,1.96l-0.07,0.1c-0.53-0.22-0.86,0.24-0.47,0.67c-0.99,1.35-2.04,2.51-3.2,3.58
		c0.01-0.01,0.01-0.03,0.02-0.04c0.51-1.21,0.78-1.85,0.9-2.17c0.08,0.02,0.19,0.03,0.31-0.01c0.46-0.47,0.06-0.99-0.55-0.65
		c-0.18,0.1,0.07,0.36-0.01,0.51c0.04,0.04,0.09,0.08,0.16,0.11c-0.16,0.28-0.09,0.16,0,0c0.01,0,0.02,0.01,0.03,0.01
		c-0.14,0.29-0.08,0.16,0,0c0.01,0,0.01,0,0.02,0.01c-0.16,0.32-0.49,0.95-1.11,2.1c-0.28,0.52-0.76,0.98-1.35,1.39
		c-0.24,0.87-0.51,1.24-1.06,1.73c0.14-0.12,0.28-0.23,0.41-0.35c2.57-1.09,5.85-2.45,6.85-3.68c0.27-0.34,0.26-0.69,0.09-1.01
		c0.05-0.03,0.09-0.07,0.13-0.1c-0.08-0.14,0.17-0.41-0.01-0.51c-0.6-0.34-1.01,0.18-0.55,0.65c0.18,0.05,0.31,0.02,0.41-0.03
		c0.22,0.46,0.01,0.81-0.54,1.27c-0.87,0.71-2.99,1.51-5.05,2.24C159.72,95.08,161.09,93.47,162.3,91.55L162.3,91.55z
		 M165.66,101.93c0.29-0.08,0.46,0.05,0.56,0.14c-0.08,0.14,0.17,0.41-0.01,0.51c-0.47,0.27-0.82,0.01-0.73-0.35
		c-3.3-0.54,0.09-0.08-4.03-0.25c-1.05-0.04-2.21-0.2-3.36-0.4c0.07-0.02,0.15-0.04,0.23-0.06c0.3-0.08,0.55-0.18,0.77-0.3
		c0.82,0.19,1.62,0.34,2.37,0.43c4.14,0.48,0.72-0.24,4.03,0.56C165.52,102.11,165.57,102.02,165.66,101.93L165.66,101.93z
		 M162.13,97.14c-0.07-0.07-0.12-0.14-0.15-0.21l-1.43,0.71c-0.76,0.42-1.34,0.82-1.91,1.13c-0.23-0.1-0.49-0.18-0.78-0.25
		c0.81-0.24,1.55-0.69,2.56-1.1l1.53-0.55c-0.13-0.37,0.23-0.66,0.72-0.38c0.18,0.1-0.07,0.36,0.01,0.51
		C162.59,97.09,162.42,97.22,162.13,97.14L162.13,97.14z M165.74,96.66c-0.22,0.06-0.37,0.01-0.47-0.06
		c-0.72,0.86-0.86,1.19-2.05,1.66c-1.23,0.49-2.34,1.01-3.48,1.38c-0.05-0.1-0.12-0.19-0.21-0.28c-0.05-0.06-0.11-0.11-0.17-0.16
		c1.26-0.28,2.49-0.76,3.77-1.16c1.18-0.37,1.34-0.68,2.11-1.46c-0.03-0.02-0.05-0.04-0.07-0.06c0.08-0.14-0.17-0.41,0.01-0.51
		C165.8,95.67,166.2,96.19,165.74,96.66L165.74,96.66z M157.63,117.44c0.45-0.45,0.08-0.95-0.48-0.68
		c-1.83-2.11,0.24,0.14-2.71-2.48c-0.76-0.68-1.52-1.51-2.26-2.37c-0.28-0.08-0.51-0.15-0.69-0.23c0.19,0.31,0.36,0.61,0.5,0.88
		c0.74,0.73,1.49,1.41,2.24,1.98c3.11,2.36,0.93,0.33,2.87,2.24l-0.01,0.01c-0.18,0.1,0.07,0.36-0.01,0.51
		C157.16,117.39,157.33,117.52,157.63,117.44L157.63,117.44z M162.16,106.7c0.46-0.47,0.06-0.99-0.55-0.65
		c-0.14,0.07-0.04,0.24-0.01,0.38c-1.73,0.59-3.39,0.97-5.08,1.19c0.01-0.01,0.03-0.01,0.04-0.02c1.07-0.63,1.67-1,1.99-1.2
		c0.1,0.09,0.27,0.19,0.53,0.11c0.25-0.26,0.25-0.53,0.09-0.67c2.01,0.22,1.49-1.13,1.53-1.82c0.04-0.81-1.94-2.62-7.18-3.68
		c0,0,0.73,4.19,4.3,5.21c0.35,0.1,0.65,0.17,0.92,0.22c-0.06,0.02-0.13,0.05-0.2,0.09c-0.15,0.08-0.01,0.28,0,0.42
		c-0.24,0.11-0.15,0.07,0,0c0,0.01,0,0.03,0,0.04c-0.18,0.1-0.12,0.07,0,0c0,0.01-0.01,0.02-0.01,0.03
		c-0.35,0.18-0.99,0.49-2.11,1.03c-0.87,0.42-2.09,0.43-3.3,0.28c-0.38,0.2-0.79,0.38-1.22,0.54c0.31,0.07,0.62,0.18,0.92,0.33
		c0.09-0.01,0.18-0.02,0.28-0.03c2.75,0.56,6.24,1.31,7.81,0.86c0.44-0.12,0.64-0.42,0.7-0.79c0.17-0.01,0.28-0.1,0.35-0.17
		c-0.08-0.14,0.17-0.41-0.01-0.51c-0.6-0.34-1.01,0.18-0.55,0.65c0.06,0.02,0.12,0.03,0.17,0.03c-0.1,0.52-0.49,0.68-1.22,0.74
		c-1.14,0.09-3.35-0.45-5.47-1.03c2.28-0.33,4.46-0.88,6.73-1.83c0,0.03,0,0.06-0.02,0.08C161.69,106.65,161.86,106.78,162.16,106.7
		L162.16,106.7z M158.45,111.19c-0.29,0.08-0.46-0.05-0.56-0.14c0.04-0.07-0.01-0.18-0.04-0.28l-1.68-0.24
		c-0.54-0.06-1.02-0.08-1.46-0.1c-0.06-0.15-0.14-0.3-0.24-0.45c0.53,0.09,1.1,0.17,1.74,0.31l1.64,0.43
		c-0.01-0.07-0.01-0.14,0.06-0.18C158.51,110.2,158.91,110.72,158.45,111.19L158.45,111.19z M160.63,111.83
		c0.29-0.08,0.46,0.05,0.56,0.14c-0.08,0.14,0.17,0.41-0.01,0.51c-0.35,0.2-0.63,0.11-0.72-0.09c-0.98,0.26-1.33,0.42-2.51,0.15
		c-1.21-0.27-2.35-0.47-3.43-0.77c0.09-0.09,0.17-0.19,0.22-0.3c0.02-0.04,0.04-0.09,0.05-0.13c1.03,0.37,2.13,0.64,3.22,0.98
		c1.12,0.34,1.47,0.22,2.43,0.03C160.4,112.2,160.45,112.01,160.63,111.83L160.63,111.83z M153.56,100.35
		c1.83-0.67,1.38-7.04-1.96-7.04C148.27,93.32,151.95,99.73,153.56,100.35L153.56,100.35z M154.63,99.14l-0.09,0.27l0,0l0,0l0,0l0,0
		l0,0l0,0l0,0l0,0l0,0l0,0l0,0l0,0l0,0l0,0l0,0l0,0l0,0l0,0l0,0l0,0.01l0,0l0,0l0,0l0,0l0,0l0,0.01l0,0l-0.01,0.01l0,0l0,0
		c-0.13,0.33-0.3,0.6-0.51,0.78l0.04,0.01l0.02,0l0.02,0l0.08,0.02l0,0l0.09,0.02l0,0l0.02,0l0.08,0.02l0,0l0.08,0.02l0.02,0
		l0.06,0.01l0.04,0.01l0.01,0c0.06,0.01,0.11,0.03,0.17,0.04l0.01,0l0,0l0.08,0.02l0.02,0l0.06,0.01l0.04,0.01l0.01,0l0.06,0.02
		l0.02,0l0.02,0.01l0.07,0.02l0,0l0.07,0.02l0.02,0l0.06,0.02l0.01,0l0.05,0.01l0.02,0l0.05,0.01l0.02,0.01l0.07,0.02l0,0l0.07,0.02
		l0.01,0l0.06,0.02l0.03,0.01l0.01,0l0.05,0.01l0.04,0.01l0,0l0.06,0.02l0,0l0.07,0.02l0.01,0l0.05,0.02l0.01,0l0.05,0.02l0.02,0.01
		l0.05,0.02l0,0l0.06,0.02l0,0l0.07,0.02l0.01,0l0.02,0.01l0.05,0.02l0,0l0.04,0.01l0.02,0.01l0.04,0.01l0,0l0.06,0.02l0,0
		l0.06,0.02l0.01,0l0.05,0.02l0,0l0.12,0.04l0.06,0.02l0,0l0.06,0.02l0.01,0l0.05,0.02l0,0l0.11,0.04l0,0l0.05,0.02l0,0l0.06,0.02
		l0.01,0l0.05,0.02l0.02,0.01l0.03,0.01l0.01,0c0.11,0.04,0.22,0.08,0.32,0.13l0.05,0.02l0.01,0l0.05,0.02
		c0.05,0.02,0.1,0.04,0.16,0.07c0.13-0.03,0.27-0.07,0.41-0.1c2.17-0.59,1.83-2.24-0.69-2.73C156.39,98.4,155.37,98.73,154.63,99.14
		L154.63,99.14z M154.56,99.38l0.07-0.24C154.61,99.23,154.58,99.31,154.56,99.38L154.56,99.38z M154.36,95.35
		c1.79-2.09,3.57-1.83,3.08,0.41c-0.36,1.63-0.68,1.81-1.86,2.8l-0.02,0c-0.03,0.01-0.05,0.02-0.08,0.02l-0.01,0
		c-0.28,0.09-0.55,0.2-0.78,0.33l0,0l0,0l0,0l0,0l0,0l0,0l0,0l0,0l0,0l0,0l0,0l0,0l0,0l0,0l0,0l0,0l0,0l0,0l0,0l0-0.01l0,0l0,0l0,0
		l0,0l0,0l0,0l0,0l0,0l0,0l0,0l0,0l0,0l0,0l0,0l0,0l0,0l0,0l0,0l0,0l0,0l0,0l0,0l0,0l0,0l0,0l0,0l0,0l0,0l0,0l0,0l0,0l0,0l0,0l0,0
		l0,0l0,0l0,0l0,0l0,0l0,0l0,0c0.12-0.67,0.12-1.47-0.03-2.25l-0.01-0.04l0,0l0-0.02l0-0.02l0,0l0-0.02l0-0.02l0,0l0-0.02l0-0.01
		l0,0l0-0.02l0-0.01l0-0.01l0-0.02l0-0.01l0-0.01l0-0.02l0-0.01l0-0.01l0-0.02l0-0.01l0-0.01l0-0.02l0-0.01l0-0.01l0-0.02l0-0.01
		l0-0.01l0-0.02l0-0.01l0-0.01l0-0.02l0-0.01l0-0.01l0-0.02l0,0l-0.01-0.03l0,0l0,0l0-0.02l-0.01-0.02l0,0l0-0.02l-0.01-0.02l0,0
		l0-0.02l-0.01-0.02v0l-0.01-0.02l0-0.02l0,0l-0.01-0.02l0-0.02l0,0l-0.01-0.02l0-0.01l0,0l-0.01-0.02l0-0.01l0,0l-0.01-0.02l0-0.01
		l0-0.01l-0.01-0.03l0-0.01l-0.01-0.02l0-0.01l0-0.01l-0.01-0.02l0-0.01l0-0.01l-0.01-0.03l0-0.01l-0.01-0.02l0-0.01l0-0.01
		l-0.01-0.02l0-0.01l-0.01-0.02l0,0l0-0.01l-0.01-0.02l0,0l-0.01-0.01l-0.01-0.02l0,0l-0.01-0.01l-0.01-0.02l0,0L154.36,95.35
		L154.36,95.35z M154.55,99.39L154.55,99.39L154.55,99.39L154.55,99.39L154.55,99.39L154.55,99.39L154.55,99.39L154.55,99.39z
		 M148.78,108.53c0,0-1.99,3.8,0.27,6.62c2.26,2.83,2.74,1.01,3.27,0.38C152.85,114.9,152.36,112.32,148.78,108.53
		c0,0,1.55-5.86,5.22-4.56C157.67,105.28,152.27,108.86,148.78,108.53L148.78,108.53z M151.59,108.31c-0.61,0.2-1.25,0.33-1.86,0.38
		l-0.02,0c-0.16,0.01-0.32,0.02-0.48,0.02l0,0l-0.04,0l0,0l0,0l0.03,0.03c0.88,0.96,1.56,1.85,2.07,2.64
		c0.3,0.19,0.71,0.32,1.37,0.47c2.19,0.49,2.74-1.1,0.8-2.7C152.88,108.68,152.22,108.43,151.59,108.31L151.59,108.31z
		 M113.36,29.63c0.32-0.4,0.89-0.83,1.18-1.16c0.29-0.33,0.41-0.51,0.59-0.78l0.04-0.06c-0.3-0.4-0.29-1.27-0.43-1.87
		c-0.22-0.97-0.51-2.37-0.35-3.28c0.49,0.76,0.42,1.08,0.61,2.04c0.09,0.44,0.13,0.64,0.29,1.06c0.21,0.55,0.31,0.97,0.33,1.31
		c0.91-1.61,2.06-4.03,2.46-4.33c0.07,0.1,0.4-0.3,0.1,0.6l-1.71,3.11c-0.5,1.09-1.62,3.81-2.89,3.94c0.76,1.97,1.56,3.98,2.31,6
		c0.43-0.12,0.93-0.16,1.31-0.47c0.53-0.43,1.77-2.7,1.7-3.34c-0.01-0.09-1.61-2.3,0.08-5.27c0.54,0.62-0.89,3.16,0.35,4.5
		c0.91-1.42,1.89-4.4,2.65-5.48c0.28,0.56-0.09,0.89-0.4,1.43c-0.63,1.12-1.22,3.29-2.02,5.24c1.27-1.05,3.39-2.15,4.34-2.8
		c-0.51,1.08-1.15,1.18-1.97,1.94c-0.98,0.92-2.11,1.86-2.98,2.18c-0.73,1.39-1.64,2.46-2.87,2.57c0.95,2.62,1.75,5.19,2.11,7.53
		c0.93-0.18,1.74-0.68,2.27-1.18c0.27-0.25,1.18-1.31,1.08-1.87c-0.25-1.44-1.22-0.66-0.44-5.03l0.07,0.28
		c0.12,0.77-0.13,1.19,0.04,2.24c0.12,0.77,0.49,1.41,0.78,1.95c1.15-0.77,1.99-3.3,2.7-4.85c0.38-0.84,1.9-4.66,2.44-4.94
		c0.19,0.53-0.56,1.62-0.88,2.38c-0.36,0.86-0.69,1.55-0.96,2.52c1.42-0.37,2.09-1.35,2.87-2.19c-0.3,0.96-1.72,2.38-2.65,2.68
		c-0.87,0.27-0.77,0.18-1.17,1.41c-0.24,0.74-0.53,1.07-0.86,1.71c-0.61,1.2-1.15,2.32-1.88,3.24c0.53-0.03,1.19,0.04,1.81-0.27
		c0.75-0.38,0.75-0.72,1.39-1.01c-0.47,0.71-1.26,1.98-2.49,1.91c-0.61-0.03-0.94-0.05-1.18-0.11c-0.7,0.71-1.57,1.24-2.77,1.52
		c0.14,2.11,0.79,4.99,1.24,7.03c0.79-0.74,2.83-1.97,3.94-3.28c-0.05-0.44-0.99-3.92,1.14-4.84c-0.53,1.52-1.34,2.47-0.6,4.19
		c2.4-1.27,6.34-12.55,7.26-13c0.42,0.71-0.14,1.36-0.56,2.15l-3.03,6.51c0.91-0.53,2.17-1.83,2.86-2.62l2.45-2.94
		c-0.17,1.18-2.74,3.63-3.47,4.66c-0.29,0.4-0.38,0.71-0.71,1.01c-0.99,0.89-1.28,0.16-2.05,1.4c-0.94,1.5-3.01,4.61-4.51,5.67
		c-0.39,0.27-1.84,1.27-2.61,1.54c0.25,1.3,0.43,3.07,0.57,4.72c1.37-0.71,2.59-0.01,6.2-3.34l-0.08-0.16
		c-0.26-0.7,0.24-1.6,0.73-2.57c0.5-0.99,0.94-1.89,1.52-2.54c-0.34,1.42-1.43,3.01-1.76,4.77c0.93-0.47,2.56-2.79,3.21-3.63
		c0.44-0.56,0.72-0.7,1.17-1.25c1.21-1.52,2.36-3.35,2.8-5.23c0.23-1.01-0.15-0.54,0.51-0.73c0.49,0.82-1.32,3.76-1.8,4.53
		c-0.94,1.51-2.11,2.55-2.83,3.91c1.65-0.3,2.65-1.24,3.47-2.11c0.67-0.71,1.8-2.2,2.32-3.08c-0.2,1.33-2.76,4.56-4.15,5.38
		c-1.03,0.61-1.82,0.29-2.54,0.77c-0.93,0.62-5.02,6.06-8.71,5.67c0.13,1.52,0.24,2.9,0.37,3.62c1.02-0.14,3.48,0.62,6.12-1.27
		c1.16-0.97,2.38-2.33,3.36-3.21c0.56-0.5,1.14-0.81,1.76-1.35l3.48-3.1c1.07-0.91,1.16-1.34,1.87-1.56
		c-0.2,1.03-2.09,2.41-3.25,3.45l-3.69,3.06c-1.01,0.95-5.76,6.51-9.59,4.3l0.01,0.02c0.45,1.56,5.93,2.7,7.85,2.49
		c2.45-0.27,0.95-0.29,2.94-0.96c-0.04-0.02-0.1-0.04-0.13-0.06l-0.72-0.44l0.59-0.24c0.21-0.12,0.43-0.3,0.71-0.49
		c0.98-0.68,3.69-2.02,4.08-2.9c-1.7,0.28-1.19-0.52-0.56-1.15c0.7-0.71,1.01-0.66,1.65-1.48c0.85-1.08,1.86-2.42,2.48-3.85
		l-1.98,0.22c0.32-0.59,0.51-0.58,0.81-1.2c0.58-1.23,1.41-3.05,1.41-4.31c-0.77,0.28-0.94,0.68-1.77,0.72l0.98-5.89
		c-0.66-0.51-0.67-0.06-0.89-1.14l-0.99-5.11c-0.34,0.31-0.62,0.79-1.07,1.03c-0.21-0.4-0.28-1.27-0.48-1.75
		c-1.07-2.61-1.76-3.06-2.34-4.35c-0.47,0.32-0.25,0.27-0.72,0.7l-0.23-0.48c-0.01-0.03-0.12-0.35-0.14-0.38
		c-0.12-0.32-0.19-0.47-0.4-0.8c-0.34-0.52-0.69-0.92-1.08-1.32c-0.75-0.77-1.38-1.91-2.58-2.29l-0.15,0.19
		c-0.02,0.03-0.05,0.07-0.07,0.11l-0.32,0.67c-0.52-0.36-0.12-0.19-0.75-0.58c-1.65-1.03-3.25-3.06-4.73-3.22
		c-0.2,0.34-0.4,0.72-0.54,1.05c-2.41-2.04-2.47-1.53-4.76-2.95c-0.71,0.33,0.04,0.1-0.71,0.39c-0.58-0.86-0.1-0.48-1.25-0.87
		c-0.92-0.31-1.59-0.92-2.35-1.46c-0.51-0.36-0.67-0.46-0.98-0.94l-0.73,0.55c-0.49-0.52-0.36-0.47-0.89-0.84
		c-0.37-0.26-0.66-0.36-0.77-0.77c-0.22,1.78,0.74,1.87,1.31,3.81l0.12,0.4c0.1,0.3,0.2,0.58,0.31,0.89c0.21,0.61,0.35,1.1,0.51,1.7
		C111.89,25.62,112.63,27.7,113.36,29.63L113.36,29.63z M91.92,41.29c-0.17,0.92,0.53,2.5,0.16,3.05c-0.89-0.52-0.76-2-1.17-3.03
		l-0.28,0.67c-0.29,4.93,0.13,2.55,0.52,5.57c-1.04-0.42-0.33-1.23-1.54-1.49c-0.66,1.47,0.03,3.94,0.61,4.62
		c0.6,0.71,0.52-0.11,0.7,1.1l0.04,0.23c0.14,0.63,0.22-0.22,0.17,0.68c-0.53-0.54-1.57-1.75-1.84-2.32
		c-0.43,0.59-0.04,1.64,0.22,2.31c0.84,2.15,3.57,4.34,3.82,4.79c-1.13-0.11-1.79-1.21-2.85-1.48c-0.87,2.59,2.65,4.52,3.96,5.68
		l1.89,1.46c-1.12,0.27-1.52-0.14-2.53-0.41c1.96,3.55,7.2,2.98,8.9,4.18c-0.33,0.81-0.04,0.21-0.86,0.62
		c-0.45,0.23-0.38,0.11-0.52,0.62c1.42,1.2,7.59,0.19,9.51,0.11c-0.25,0.56-0.37,0.53-0.41,1.23c1.09,0,1.56-0.2,2.71-0.77
		l0.34-0.23c2.05-1.46,2.44-1.58,4.12-3.51c1.74-2,2.93-2.56,2.49-4.33c-0.03-0.11-0.05-0.23-0.08-0.34
		c-0.53,0.53-1.54,0.85-2.31,1.05c-2.29,0.59-3.89,1.8-8.29,1.77c-1.72-0.01-4.18-0.39-5.74-0.97c-1.81-0.67-4.64-1.13-4.4-2.17
		c0.38-0.02,2.3,0.91,3.15,1.16c1.34,0.39,2.43,0.82,3.93,1.09l-0.46-0.72c-0.01-0.01-0.4-0.39-0.42-0.42
		c-0.73-0.68-2.22-1.89-2.35-2.83c0.28,0.58,2.33,2.3,2.92,2.79c1.67,1.35,1.1,1.79,4.41,1.61c1.54-0.08,3.57-0.64,4.98-1.11
		l4.52-1.51c-0.2-1.18-0.18-2.43-0.31-3.64c-1.54,0.42-6.1,0.19-7.23,0.14c-6.25-0.26-6.47-0.57-12.12-1.33
		c-1.33-0.18-2.68-0.54-3.12-1.76l-0.05-1.07c0.01-0.07,0.04-0.09,0.07-0.12c0.46,0.23,0.13-0.06,0.41,0.48
		c0.32,0.62,0.11,0.99,1.11,1.47c0.7,0.33,1.97,0.53,2.76,0.74c1.77,0.49,4.31,0.87,6.23,0.94c-0.63-0.97-3.22-1.35-3.91-2.44
		c0.54-0.31,1.8,0.67,2.62,1.01c1.81,0.74,1.9,0.69,2.24,1.56l6.32-0.03c-0.74-3.21-3.38-1.12-3.53-2.54
		c1.2-0.56,1.92,0.19,2.5,0.45c-0.07-0.6-0.42-0.74-0.1-1.47c0.92,0.4,0.13,1.09,2.31,3.65c1.3,0.13,2.65-0.25,3.45-0.1
		c-0.31-2.45-0.62-4.03-1.1-6.16c-1,0.34-2.93,0.28-4.29,0.31c-1.28,0.03-2.65-0.01-3.92,0.02c-1.66,0.04-0.13,0.28-1.91,0.51
		l-4.42,0.75c0.04-0.58,0.11-0.58,0.75-0.78c1.94-0.6,3.06-0.07,4.09-0.48c-0.74-0.55-1.52-0.47-2.65-0.69
		c-0.82-0.16-1.85-0.54-2.71-0.8c-6.35-1.87-2.39-0.11-5.35-0.98c0.13-0.77-0.15-0.2,0.57-0.62c-2.28-0.47-2.54-0.96-3.84-1.48
		c-0.76-0.3-0.88-0.02-0.91-0.75c0.65-0.32,5.29,2.55,8.35,2.94c-0.59-1.57-3.21-3.64-3.55-4.04c1.1,0.02,3.06,2.18,3.77,3.16
		c0.67,0.93,0.52,1.2,1.89,1.56c0.96,0.25,1.97,0.53,2.96,0.66l-1.54-3.68c-0.45-0.65-0.52-0.13-0.55-0.84
		c1.7,0.91,2.03,3.21,3.06,4.7c0.92,0.62,7.67-0.19,10.07-0.06c-0.06-0.25-0.12-0.5-0.18-0.77c-0.3-1.29-0.38-2.61-0.65-3.94
		c-0.04-0.18-0.07-0.36-0.11-0.54c-1.53,0.28-5.49-0.55-6.93,1.55c-0.21,0.31-0.93,1.21-1.02,1.43c0.02-1.47,1.79-2.57,2.63-3.27
		c-2.34-0.38-6.59-0.93-8.73-1.51c-0.84-0.23-1.11-0.71-1.67-0.48c-1.75,0.74-1.56,0.08-4.79-0.95c-0.21-0.07-0.36-0.12-0.5-0.21
		c-0.29-0.18-0.11-0.04-0.3-0.27c1.25-0.11,3.13,0.91,4.73,1.08c-0.14-0.13-0.14-0.13-0.35-0.28c-0.1-0.08-0.23-0.15-0.34-0.22
		c-1.02-0.62-3.32-1.94-2.87-3.5c0.77,0.38,0.33,0.45,0.84,1.23c1.4,2.13,6.76,3.66,9.26,3.95c-1.4-2.11-2.01-2.57-3.22-4.09
		c1.06,0.16,2.62,2.68,3.74,3.45c0.42,0.29,0.51,0.24,0.81,0.42c0.67,0.41,0.02-0.06,0.52,0.6c1.12,0.14,3.91,0.59,4.87,0.35
		c0.3-1.05-0.94-2,0.26-2.42c0.32,0.58,0.16,1.82,0.54,2.48c0.54,0.3,0.56,0.1,1.24,0.13c0.46,0.02,0.85-0.04,1.15-0.01
		c-0.38-1.65-0.85-3.21-1.36-4.74c-1.35,0.11-3.41-0.58-4.2-0.53c-0.58,0.04-1.16,0.69-2.44,0.9c0.05-1,0.83-0.39,1.38-1.34
		c-0.83-0.31-2.29-0.82-3.28-1.08c-1.13-0.3-0.84-0.39-1.52-0.73c-1.2-0.6-2.06-0.51-4.17-2.27c-0.43-0.36-1.8-1.87-1.68-2.31
		c0.39-0.03,1.72,1.67,2.8,2.43c1.17,0.83,2.07,1.23,3.64,1.88c-0.29-0.96-0.8-1.55-1.42-2.31c-1.28-1.56-1.57-1.11-1.79-1.82
		c0.72-0.31,2.2,1.37,2.59,1.9c0.34,0.46,0.69,0.92,0.97,1.44c0.29,0.55,0.28,0.99,0.9,1.33c0.62,0.34,3.1,0.99,3.82,1
		c1.4,0.01,0.05,0.28,1.59,0.58c0.55,0.11,1.8,0.08,2.61,0.3c-0.66-1.92-1.39-3.78-2.09-5.67c-1.64,0.16-5.92-0.67-6.55-2.07
		c1.33,0.1,2.03,1.14,3.27,1.08c-0.87-0.09-2.67-1.43-3.23-1.92l-2.35-1.64c-0.6-0.45-0.42-0.16-0.52-0.71
		c0.79,0.13,3.13,1.96,3.93,2.52c1.53,1.07,3.97,1.45,5.17,1.98c-0.15-0.42-0.3-0.83-0.45-1.25c-0.35-0.99-0.68-1.99-1-3
		c-0.89-0.19-2.82-1.42-3.84-2.35l-1.89-1.87c1.03,0.24,0.94,0.47,1.53,0.87c0,0,0.44,0.23,0.45,0.24
		c-0.01-0.28-0.02-0.56-0.05-0.81c-0.03-0.19-0.1-0.46-0.14-0.73c-0.08-0.6-0.04-1.19-0.02-1.79c0.17,0.19,0.12,0.05,0.28,0.37
		c0.14,0.29,0.06,0.05,0.13,0.43c0.28,1.51-0.36,0.04,0.4,2.29c0.52,1.55,2.04,1.89,2.87,2.42c-0.33-1.08-0.66-2.15-0.97-3.2
		c-0.15-0.5-0.32-1.37-0.44-1.7c-0.08-0.22,0-0.06-0.2-0.39l-0.62-1.1c-0.53-1.15-0.85-2.21-1.28-3.37
		c-1.4,3.24-0.62,3.06-2.16,2.71c-0.33,0.61-0.79,0.94-0.97,1.47c-0.3,0.86,0.38,1.28-0.13,1.72c-0.91,0.43-0.42-0.07-1.27-0.65
		c-1.02,0.27-3.06,4.29-3.36,5.6l-0.36-1.26l-1.07,1.17c-0.26,0.44-0.55,0.91-0.78,1.45c-1.24,2.92-0.96,2.4-0.4,3.26
		c-1.01-0.06-1-0.45-1.57-0.92c-0.53,0.64-0.97,1.54-1.11,2.49c-0.11,0.79-0.13,2.7-0.32,3.12l-0.06-0.44
		c-0.05-1.04-0.66-1.17-1.06-1.84c-0.61-0.06-0.91,0.56-1.07,1c-0.21,0.59-0.13,1.25-0.22,1.93l-0.11,0.25l-0.03,2.13l-0.21,0.52
		L91.92,41.29L91.92,41.29z M191.17,66.73c-1.65-0.73-5.14-3.44-5.27-4.55c2.68,0.5,6.59,1.14,9.19,2.05
		C192.08,65.18,194.72,65.32,191.17,66.73L191.17,66.73z M191.46,58.94c-0.01,0.03-0.02,0.04-0.04,0.08l-0.42,0.32
		c-0.57,0.25-0.24,0.07-0.77,0.21l-1.59,0.56c-3.48,1.3-1.68,1.34-6.76,0.7c-1.64-0.21-3.05-0.12-3.78-0.27
		c0.59-0.36,0.99-0.46,1.46-0.75c1.05-0.65,2.22-1.82,4.37-2.2c1.12-0.2,0.57-0.18,1.5-0.46C186.81,56.72,190.26,58.32,191.46,58.94
		L191.46,58.94z M186.98,61.87c0.91-1.33,4.69-2.15,4.69-2.15s3.72,2.02,3.54,2.63c-0.18,0.62,0.73,1.47,0.73,1.47
		S188.78,62.12,186.98,61.87L186.98,61.87z M161.85,62.51c0.2-0.59-0.15-0.85-0.09-1.46c0.19-2.02,5.19-9.38,5.47-10.61
		c0.28-1.22,0.11-0.53,0.87-1.48c-1.34-0.18-4.88,0.27-6.22,0.55c-0.99,0.2-0.77,0.33-2.05,0.2l-0.13-0.94
		c-0.7,0.01-0.34,0.04-0.92,0.19c-3.65,0.96-2.75,1.84-5.01,3.43c-0.71-0.54-0.48-0.73-0.34-1.45c-0.28,0.1-0.45,0.21-0.81,0.34
		c-0.52,0.19-0.37,0.08-0.85,0.31c-2.35,1.1-2.75,3.34-3.74,4.16c-0.68-0.4-0.43-0.99-0.77-1.61c-0.75,0.74-1.5,1.64-2.01,2.62
		c-0.35,0.67-0.51,2.38-1.12,2.58c-0.68,0.15-0.72-0.42-1.27-0.94c-0.55,0.71-1.27,2.27-1.4,3.11c-0.05,0.33-0.2,1.08-0.2,1.37
		c0.02,0.99,0.44,0.33,0.39,1.2c-0.81,0.16-0.52-0.15-1.21,0.03c-0.14,1.2,0.63,2.43,1.4,3.48c0.77,1.06,3.32,2.15,4.49,2.56
		c3.14-1.86,2.47-2.03,2.76-2.24l1.15-0.58c0.41-0.24,1.02-0.57,1.39-0.8c-1.53-2.69,0.52-10.25,2.42-13.43
		c0.33,1.13-1.7,3.65-1.28,4.91c2.05-0.5,2.58-1.96,4.08-2.84l-1.9,2.38c-2.94,2.25-2.54-0.25-2.78,3.17
		c-0.04,0.6-0.27,1.21-0.3,1.86c-0.06,1.26,0.21,2.52,0.06,3.67l0.39-0.06c0.57-0.14,0.65-0.28,1.1-0.56
		c2.55-1.54,1.19-0.56,3.56-1.53L161.85,62.51L161.85,62.51z M174.36,51.49c1.17,0.6,3.33,0,6.29,1.56
		c-0.69,0.37-0.88,0.61-1.19,1.41c0.87-0.09,0.45-0.42,1.26-0.38c0.56,0.03,4.48,1.16,5.51,1.9c-0.39,0.34-1.44,0.59-2.08,0.86
		c-0.7,0.29-1.47,0.49-2.19,0.8l-1,0.62c-0.37,0.24-0.64,0.38-0.98,0.61c-0.7,0.47-1.34,0.98-2.1,1.31c-1.6,0.7-3.83-0.19-7.59,0.44
		l-1.6,0.2c-0.04,0.01-0.09,0.02-0.13,0.03c-0.89,0.16-0.08,0.17-1.03,0.13c2.76-5.29,2.92-2.14,7.64-6.19
		c-0.55,0.3-1.43,0.61-2.16,0.97c-0.46,0.23-0.62,0.34-1.04,0.55l-1.21,0.51c0.67-1.08,3.94-3.88,3.99-4.6
		c-1.03,0.46-7.24,7-7.96,8.31l0.33,0.67c-1.16-0.04-2.92,0.74-4.14,1.06c-0.83-0.96,0.67-5.03,1.75-5.96
		c0.26-0.22,1.87-0.74,4.01-2.37c0.55-0.42,1.02-0.7,0.92-1.29c-0.72,0.37-1.39,1.04-2.09,1.52c-0.61,0.42-1.6,0.88-2.02,1.21
		c0.35-0.88,0.86-1.7,1.27-2.55c0.93-1.9-0.43-2.94,4.21-3.13c1.31-0.05,2.66,0.09,3.92,0.81
		C174.81,51.13,174.66,50.73,174.36,51.49L174.36,51.49z M53.17,65.89c1.72-0.07,5.86-1.37,6.48-2.41
		c-2.47-0.55-6.03-1.45-8.62-1.58C53.11,64.01,50.84,63.11,53.17,65.89L53.17,65.89z M56.46,58.13c1.29-0.15,4.9-0.37,5.87,0.59
		c0.65,0.64,0.19,0.41,1.04,1.04c1.63,1.21,2.08,2.82,2.66,3.87c0.26,0.47,0.55,0.73,0.88,1.31c-0.68-0.14-1.81-0.78-3.28-1.21
		c-4.54-1.36-3.01-0.69-5.33-3.34l-1.08-1.18c-0.38-0.35-0.18-0.04-0.55-0.51l-0.2-0.48C56.46,58.18,56.46,58.16,56.46,58.13
		L56.46,58.13z M58.88,62.75c-1.61-0.46-8.38-1.58-8.38-1.58s1.15-0.49,1.28-1.16c0.13-0.68,4.16-1.2,4.16-1.2
		S58.72,61.09,58.88,62.75L58.88,62.75z M79.6,73.22l3.34,3.47c1.54,1.88,0.85,0.38,2.28,2.9c0.25,0.45,0.25,0.62,0.67,0.98
		l0.3,0.21c0.4-1.19,1.19-2.32,1.72-3.59c0.27-0.65,0.35-1.34,0.59-1.95c1.35-3.45,0.55-0.84-0.88-4.2l-0.5-3.08
		c0.86,1.45,0.64,3.1,2.12,4.39c0.93-1.07,0.37-4.35,1.16-5.32c0.14,3.87-1.58,12.11-4.08,14.15c0.2,0.38,0.56,0.94,0.79,1.33
		l0.69,1.02c0.15,0.32-0.49,0.22,1.29,3.28c1.17,0.06,3.8-0.02,4.92-0.76c1.12-0.73,2.32-1.64,2.75-2.87c-0.5-0.45-0.4-0.03-1-0.51
		c0.36-0.88,0.41-0.06,0.87-1.03c0.13-0.28,0.35-1.07,0.46-1.42c0.27-0.88,0.39-2.7,0.25-3.61c-0.7,0.29-1,0.84-1.49,0.43
		c-0.42-0.43,0.23-2.18,0.24-2.98c0.02-1.16-0.2-2.34-0.49-3.36c-0.57,0.48-0.63,1.15-1.38,1.28c-0.46-1.19,0.23-3.54-1.24-5.55
		c-0.3-0.41-0.23-0.25-0.57-0.64c-0.24-0.27-0.33-0.45-0.52-0.66c-0.21,0.77-0.1,1.03-0.94,1.29c-1.17-2.45-0.01-2.96-2.62-5.34
		c-0.41-0.37-0.1-0.26-0.68-0.54l-0.53,0.87c-1.14-0.37-0.89-0.41-1.63-1c-1-0.8-3.75-2.62-4.95-2.97c0.21,1.24,0.38,0.5,0.06,1.8
		c-0.32,1.32,0.51,10.51-0.25,12.57C80.11,72.44,79.71,72.56,79.6,73.22L79.6,73.22z M74.15,57.49c-1.25,0.13-2.78-1.3-5.97-0.93
		c0.41,0.64,0.46,0.94,0.36,1.85c-0.68-0.43-0.19-0.59-0.88-0.86c-0.48-0.19-4.28-0.62-5.47-0.29c0.17,0.49,0.93,1.14,1.35,1.66
		c0.45,0.56,1.01,1.05,1.46,1.64l0.56,1c0.2,0.38,0.36,0.63,0.54,0.99c0.37,0.74,0.68,1.48,1.16,2.11c1.02,1.32,3.29,1.31,6.15,3.4
		l1.24,0.83c0.03,0.02,0.07,0.05,0.1,0.08c0.67,0.5-0.01,0.2,0.81,0.53c0.1-6.28-1.47-3.25-3.57-9.07c0.33,0.51,0.92,1.16,1.36,1.8
		c0.28,0.4,0.36,0.58,0.62,0.94l0.78,0.98c-0.07-1.33-1.53-5.35-1.25-6.08c0.66,0.86,2.87,9.71,2.88,11.28l-0.58,0.52
		c0.99,0.41,2.1,1.87,2.98,2.66c1.13-0.61,1.73-5.21,1.25-6.55c-0.11-0.32-1.23-1.46-2.28-3.9c-0.27-0.63-0.53-1.08-0.18-1.63
		c0.43,0.65,0.69,1.57,1.06,2.31c0.32,0.65,0.93,1.49,1.14,1.98c0.11-1,0.06-2,0.09-3c0.09-2.23,1.7-2.72-2.1-4.72
		c-1.07-0.56-2.27-0.95-3.65-0.73C73.95,56.96,74.25,56.63,74.15,57.49L74.15,57.49z M53.24,66.71c-0.16,0.79,0.52,2.08,0.67,3.1
		c0.43,2.77,0.05,2.59-0.95,2.03c0.01,0.7-0.12,0.82-0.19,1.34c-0.13,0.92,0.1,3.84,0.13,4.9c-0.74-0.24-0.46-0.24-1.05-0.46
		c0.14,1.38,1.64,4.56,2.21,5.54c-0.27,0.25-0.41,0.12-0.48,0.52c-0.26,1.43,2.31,3.55,2.3,4.58c0,0.36-0.17,0.16-0.43,0.3
		c0.14,0.94,1.84,4,2.4,4.96c1.85,3.19,3.74,1.62,4.22,3.48l-0.62,0.27c-0.03,0.01-0.51,0.05-0.55,0.06
		c2.1,1.67,4.25,1.47,5.49,2.19l-1.31,0.79c1.81,0.69,4.48,0.6,6.47,0.53c0.87-0.03,1.73-0.28,2.35,0.21c-0.29,0.75-0.4,0.29-0.95,1
		c4.28,0.16,6.76-3.99,8.15-4.14c0.09,0.36,0.1,0.67,0.35,0.94c0.83-0.53,1.76-1.2,2.37-1.93c0.6-0.72,1.9-1.7,2.18-2.33l1.38-3.04
		c0.32-0.86,0.87-2.68,0.7-3.54l-1.75,1.5c-3.76,3.19-3.87,2.41-6.73,4.05c0.08,1.91-0.72,2.05-2.04,2.95
		c-1.25,0.86-2.83,1.28-3.8,0.65c2.02-0.03,1.73-0.16,3.06-1.03c0.68-0.45,1.72-1.2,2.01-2.2c-5.8,0.88-6.61,1.9-12.95,1.07
		c-0.45-0.06-3.96-0.34-3.47-1.29c0.37-0.73,1.26,0.17,1.93,0.38c2.45,0.77,5.7,0.62,8.25,0.47c4.06-0.24,7.61-1.65,10.69-3.55
		c0.6-0.37,1.14-0.82,1.73-1.23c0.93-0.65,2.32-1.78,3.05-2.67c0.55-0.67-0.01-1.14-0.37-1.79c-0.3-0.56-0.65-1.24-1.02-1.9
		c-0.71-1.26-1.33-2.54-2.03-3.67c-0.44,0.14-1.01,0.66-1.68,0.98c-3.35,1.63-8.55,1.41-12.22,2.24c-1.62,0.36-2.86,1.41-4.55,0.99
		c0.38-0.58-0.11-0.13,0.58-0.48c0.02-0.01,0.54-0.18,0.65-0.23c-0.72,0.05-2.12-0.42-2.76-0.46c-1.94-0.12-6.98-1.57-7.97-3.31
		c0.44,0.15,0.61,0.32,0.95,0.4c0.59,0.14,0.14-0.17,0.89,0.19c3.86,1.87,1.67,0.9,5.22,1.98c1.66,0.5,0.76,0.14,2.28,0.32
		c2.08,0.24,7.7,0.1,9.2-0.66c-1.19-0.62-2.54-1.06-3.58-1.81l4.01,1.23c1.96,0.72,2.51,0.14,4.49-0.25
		c0.72-0.14,1.41-0.23,2.08-0.51c0.47-0.19,1.49-0.76,1.66-1.08c0.3-0.55-1.47-2.6-2.21-2.58c-0.4,0.01-6.53,1.03-9.6,1.21
		c-1.81,0.1-2.37,1.04-4.07,1.41c-1.44,0.31-3.66,0.85-4.8,0c1.52-0.11,4.07-0.65,5.28-1.19c-2.66-0.56-5.03-0.51-7.81-1.25
		c-1.16-0.31-2.42-0.81-3.21-1.03c-0.61-0.17-0.94-0.36-1.56-0.69c-0.7-0.37-0.72-0.62-1.25-0.98c0.86-0.52,1.07-0.09,1.75,0.5
		c0.77,0.66,5.08,1.74,6.35,2.03c2.92,0.67,7.88,1.05,10.86,0.48c-0.4-0.15-0.56-0.49-1.34-0.76c-0.56-0.19-1.26-0.49-1.65-0.88
		c1.64,0.14,3.97,1.61,4.97,1.53c0.74-0.06,5.23-0.83,5.6-1.02c0.27-0.16-0.33-0.61-0.92-1.18c-0.32-0.31-0.35-0.3-0.63-0.59
		c-1.47-1.55-2.33-2.06-3.49-3.19c-0.62,0.23-1.05,0.66-1.72,1.02c-0.66,0.35-1.38,0.6-2.19,0.81c-4.2,1.08-5.81,1.52-10.16,0.76
		c-1.07-0.19-4.03-0.35-4.57-1.46c0.04-0.02,0.11-0.09,0.14-0.05l0.27-0.07c0.7-0.04,1.33,0.41,1.99,0.59
		c1.77,0.5,7.44,1.04,8.7,0.37c-1.61-0.68-2.85-1.67-3.58-2.69c0.73,0.15,1.58,1.05,2.21,1.39c0.37,0.2,0.96,0.43,1.31,0.62
		c1.51,0.83,1.05,0.55,4.37-0.39c1-0.28,1.97-0.72,2.56-1.29c-0.53-1.4-6.09-4.09-7.5-4.51c-0.85-0.25-2.08-0.79-2.85-1.15
		l-2.94-1.06c-1.63-0.46-1.78,0.16-3.02,0.66L53.24,66.71L53.24,66.71z"/>
	<path class="st4" d="M84.72,226.77v7.13h-0.76v-5.71l-2.94,4.8h-0.37l-2.94-4.77v5.67h-0.76v-7.13h0.65l3.25,5.29l3.21-5.29H84.72
		L84.72,226.77z M90.42,233.96c-0.74,0-1.41-0.16-2.01-0.47c-0.6-0.32-1.07-0.75-1.41-1.3c-0.34-0.55-0.51-1.17-0.51-1.85
		c0-0.69,0.17-1.3,0.51-1.85c0.34-0.55,0.81-0.98,1.41-1.3c0.6-0.32,1.27-0.47,2.01-0.47c0.74,0,1.41,0.16,2,0.47
		c0.59,0.31,1.06,0.75,1.4,1.3c0.34,0.55,0.51,1.17,0.51,1.86c0,0.69-0.17,1.31-0.51,1.86c-0.34,0.55-0.81,0.99-1.4,1.3
		C91.83,233.8,91.16,233.96,90.42,233.96L90.42,233.96z M90.42,233.29c0.59,0,1.13-0.13,1.6-0.38c0.48-0.25,0.85-0.61,1.12-1.06
		c0.27-0.45,0.41-0.96,0.41-1.51c0-0.56-0.14-1.06-0.41-1.51c-0.27-0.45-0.64-0.8-1.12-1.06c-0.48-0.25-1.01-0.38-1.6-0.38
		c-0.59,0-1.13,0.13-1.61,0.38c-0.48,0.25-0.86,0.61-1.13,1.06c-0.27,0.45-0.41,0.96-0.41,1.51c0,0.56,0.14,1.06,0.41,1.51
		c0.27,0.45,0.65,0.8,1.13,1.06C89.29,233.16,89.83,233.29,90.42,233.29L90.42,233.29z M102.36,226.77v7.13h-0.65l-4.81-5.79v5.79
		h-0.79v-7.13h0.65l4.82,5.79v-5.79H102.36L102.36,226.77z M106.25,227.42h-2.63v-0.65h6.04v0.65h-2.63v6.48h-0.79V227.42
		L106.25,227.42z M116.21,233.25v0.65h-5.29v-7.13h5.13v0.65h-4.34v2.54h3.87v0.64h-3.87v2.65H116.21L116.21,233.25z M127.12,226.77
		v7.13h-0.78v-3.29h-4.68v3.29h-0.79v-7.13h0.79v3.18h4.68v-3.18H127.12L127.12,226.77z M134.84,233.25v0.65h-5.29v-7.13h5.13v0.65
		h-4.34v2.54h3.87v0.64h-3.87v2.65H134.84L134.84,233.25z M141.8,233.9l-1.71-2.29c-0.19,0.02-0.39,0.03-0.6,0.03h-2.01v2.26h-0.79
		v-7.13h2.8c0.95,0,1.7,0.22,2.24,0.65c0.54,0.43,0.81,1.03,0.81,1.79c0,0.56-0.15,1.03-0.44,1.41c-0.3,0.38-0.72,0.66-1.27,0.83
		l1.83,2.45H141.8L141.8,233.9z M139.47,230.99c0.74,0,1.31-0.16,1.7-0.47c0.39-0.31,0.59-0.75,0.59-1.31c0-0.58-0.2-1.02-0.59-1.33
		c-0.39-0.31-0.96-0.46-1.7-0.46h-1.99v3.58H139.47L139.47,230.99z M152.18,226.77v7.13h-0.76v-5.71l-2.94,4.8h-0.37l-2.94-4.77
		v5.67h-0.76v-7.13h0.65l3.25,5.29l3.21-5.29H152.18L152.18,226.77z M157.89,233.96c-0.74,0-1.41-0.16-2.01-0.47
		c-0.6-0.32-1.07-0.75-1.41-1.3c-0.34-0.55-0.51-1.17-0.51-1.85c0-0.69,0.17-1.3,0.51-1.85c0.34-0.55,0.81-0.98,1.41-1.3
		c0.6-0.32,1.27-0.47,2.01-0.47c0.74,0,1.41,0.16,2,0.47c0.59,0.31,1.06,0.75,1.4,1.3c0.34,0.55,0.51,1.17,0.51,1.86
		c0,0.69-0.17,1.31-0.51,1.86c-0.34,0.55-0.81,0.99-1.4,1.3C159.29,233.8,158.63,233.96,157.89,233.96L157.89,233.96z
		 M157.89,233.29c0.59,0,1.13-0.13,1.6-0.38c0.48-0.25,0.85-0.61,1.12-1.06c0.27-0.45,0.41-0.96,0.41-1.51
		c0-0.56-0.14-1.06-0.41-1.51c-0.27-0.45-0.64-0.8-1.12-1.06c-0.48-0.25-1.01-0.38-1.6-0.38c-0.59,0-1.13,0.13-1.61,0.38
		c-0.48,0.25-0.86,0.61-1.13,1.06c-0.27,0.45-0.41,0.96-0.41,1.51c0,0.56,0.14,1.06,0.41,1.51c0.27,0.45,0.65,0.8,1.13,1.06
		C156.76,233.16,157.29,233.29,157.89,233.29L157.89,233.29z M165.64,233.96c-0.56,0-1.09-0.09-1.6-0.25
		c-0.51-0.17-0.9-0.39-1.18-0.67l0.31-0.58c0.27,0.26,0.63,0.47,1.08,0.63c0.45,0.16,0.91,0.24,1.39,0.24
		c0.67,0,1.17-0.12,1.51-0.35c0.33-0.23,0.5-0.54,0.5-0.91c0-0.29-0.09-0.51-0.27-0.68c-0.18-0.17-0.4-0.3-0.67-0.39
		c-0.26-0.09-0.63-0.19-1.1-0.3c-0.56-0.14-1.01-0.27-1.35-0.39c-0.33-0.13-0.62-0.32-0.86-0.58c-0.24-0.26-0.36-0.61-0.36-1.05
		c0-0.36,0.1-0.69,0.3-0.98c0.2-0.3,0.51-0.53,0.92-0.71c0.41-0.18,0.93-0.26,1.54-0.26c0.43,0,0.85,0.06,1.25,0.17
		c0.41,0.11,0.76,0.27,1.06,0.46l-0.27,0.6c-0.31-0.2-0.65-0.34-1-0.44c-0.36-0.1-0.7-0.15-1.05-0.15c-0.65,0-1.15,0.12-1.48,0.36
		c-0.33,0.24-0.5,0.55-0.5,0.93c0,0.29,0.09,0.51,0.27,0.69c0.18,0.17,0.41,0.31,0.68,0.4c0.27,0.09,0.64,0.19,1.11,0.3
		c0.55,0.13,0.99,0.26,1.33,0.38c0.34,0.13,0.62,0.32,0.86,0.57c0.23,0.25,0.35,0.6,0.35,1.03c0,0.36-0.1,0.69-0.3,0.98
		c-0.2,0.3-0.51,0.53-0.93,0.7C166.77,233.87,166.25,233.96,165.64,233.96L165.64,233.96z M173.41,233.96
		c-0.74,0-1.41-0.16-2.01-0.47c-0.6-0.32-1.07-0.75-1.41-1.3c-0.34-0.55-0.51-1.17-0.51-1.85c0-0.69,0.17-1.3,0.51-1.85
		c0.34-0.55,0.81-0.98,1.41-1.3c0.6-0.32,1.27-0.47,2.01-0.47c0.74,0,1.41,0.16,2,0.47c0.59,0.31,1.06,0.75,1.4,1.3
		c0.34,0.55,0.51,1.17,0.51,1.86c0,0.69-0.17,1.31-0.51,1.86c-0.34,0.55-0.81,0.99-1.4,1.3
		C174.82,233.8,174.15,233.96,173.41,233.96L173.41,233.96z M173.41,233.29c0.59,0,1.13-0.13,1.6-0.38
		c0.48-0.25,0.85-0.61,1.12-1.06c0.27-0.45,0.41-0.96,0.41-1.51c0-0.56-0.14-1.06-0.41-1.51c-0.27-0.45-0.64-0.8-1.12-1.06
		c-0.48-0.25-1.01-0.38-1.6-0.38c-0.59,0-1.13,0.13-1.61,0.38c-0.48,0.25-0.86,0.61-1.13,1.06c-0.27,0.45-0.41,0.96-0.41,1.51
		c0,0.56,0.14,1.06,0.41,1.51c0.27,0.45,0.65,0.8,1.13,1.06C172.29,233.16,172.82,233.29,173.41,233.29z"/>
	<path class="st1" d="M196.61,178.62c-1.84,0.35-3.55,0.5-5.12,0.5c-0.19,0-0.38,0-0.53-0.01c-0.17-0.01-0.33-0.03-0.49-0.03
		c-0.14-0.03-0.25-0.11-0.33-0.23c-0.08-0.13-0.11-0.28-0.08-0.42l0.13-0.58c0.11-0.54,0.19-1.08,0.25-1.59
		c0-0.76-0.25-1.42-0.75-2.02c-0.51-0.6-1.2-0.9-2.06-0.9c-0.31,0-0.61,0.04-0.95,0.12c-0.11,0.05-0.21,0.09-0.32,0.12
		c-0.11,0.03-0.22,0.07-0.33,0.12c-0.1,0.05-0.19,0.09-0.28,0.12c-0.08,0.01-0.18,0.04-0.29,0.07c-0.06,0.03-0.13,0.04-0.24,0.04
		c-0.28,0-0.51-0.19-0.74-0.58c-0.03-0.03-0.04-0.07-0.04-0.15c-0.03-0.03-0.04-0.07-0.04-0.12c-0.17-0.36-0.36-0.62-0.61-0.8
		c-0.24-0.17-0.51-0.25-0.81-0.25c-0.14,0-0.26,0.01-0.38,0.04c-0.11,0.03-0.22,0.07-0.36,0.12c-1.06,0.33-2.14,0.86-3.24,1.61
		c-1.1,0.74-2.13,1.58-3.1,2.55c-0.82,0.82-1.58,1.67-2.26,2.56c-0.91,0.66-1.81,1.31-2.71,1.95c-1.35,0.96-2.73,1.87-4.12,2.73
		c-1.38,0.88-2.81,1.71-4.27,2.51c-1.48,0.81-3.02,1.58-4.65,2.34c-0.63,0.28-1.27,0.56-1.92,0.84c-0.65,0.27-1.32,0.52-1.99,0.72
		c-0.31,0.08-0.6,0.12-0.9,0.12c-0.08,0-0.17,0-0.26,0c-0.1,0-0.18,0-0.26,0h-0.21c-0.08-0.03-0.4-0.32-0.4-0.42
		c-0.03-0.21-0.03-0.41-0.01-0.61c0.01-0.19,0.04-0.38,0.1-0.6c0.26-0.9,0.6-1.79,0.97-2.67c0.39-0.86,0.82-1.71,1.31-2.55
		c0.35-0.57,0.84-1.31,1.42-2.26c0.6-0.93,1.24-1.87,1.92-2.81c0.68-0.94,1.38-1.83,2.09-2.67c0.7-0.82,1.34-1.42,1.91-1.78
		c1.88-1.22,3.73-2.44,5.57-3.66c1.84-1.22,3.66-2.44,5.48-3.69c2.73-1.85,5.32-3.77,7.79-5.8c2.48-2.02,4.86-4.15,7.17-6.41
		c1.39-1.27,2.67-2.71,3.84-4.31c0.81-1.22,0.7-2.36-0.38-3.42c-0.35-0.41-0.82-0.62-1.42-0.62c-0.28,0-0.61,0.07-1,0.17
		c-0.39,0.12-0.78,0.27-1.18,0.44c-0.39,0.16-0.77,0.35-1.14,0.54c-0.36,0.19-0.67,0.35-0.92,0.48c-2.52,1.46-4.95,3.09-7.29,4.92
		c-2.34,1.82-4.58,3.76-6.73,5.79c-2.14,2.04-4.2,4.14-6.19,6.32c-1.99,2.18-3.88,4.37-5.71,6.54c-0.51,0.72-0.94,1.11-1.73,2.12
		c-0.79,1.01-1.19,1.44-1.86,2.5c-0.54,0.78-1.07,1.55-1.59,2.34c-0.51,0.78-1.03,1.57-1.56,2.38c-0.35,0.54-0.71,1.15-1.07,1.82
		c-0.36,0.68-0.68,1.38-0.96,2.11c-0.28,0.72-0.51,1.45-0.71,2.18c-0.18,0.72-0.28,1.41-0.28,2.06c0,0.52,0.08,1.02,0.26,1.51
		c0.17,0.49,0.42,0.93,0.74,1.31c0.32,0.38,0.71,0.7,1.17,0.94c0.46,0.25,0.97,0.37,1.54,0.37c0.47,0,0.92-0.03,1.36-0.08
		c0.46-0.05,0.9-0.17,1.38-0.36c0.18-0.07,0.36-0.15,0.54-0.23c0.18-0.08,0.36-0.15,0.56-0.2c1.25-0.41,2.59-1.01,4.01-1.78
		c1.43-0.77,2.85-1.59,4.26-2.5c1.42-0.89,2.77-1.82,4.06-2.77c0.6-0.45,1.17-0.88,1.7-1.3c-0.25,1.52,0.19,2.92,1.31,4.19
		c0.82,0.9,1.78,1.35,2.89,1.35c0.31,0,0.61-0.04,0.95-0.12c0.95-0.2,1.89-0.52,2.81-0.93c0.92-0.41,1.82-0.89,2.69-1.43
		c0.88-0.54,1.7-1.14,2.49-1.77c0.79-0.64,1.5-1.27,2.16-1.92c0.46-0.49,1.04-0.76,1.71-0.78c1.14-0.09,2.45-0.25,3.9-0.44
		c1.46-0.2,2.91-0.48,4.34-0.85c1.45-0.38,2.8-0.86,4.06-1.46c0.1-0.05,0.19-0.09,0.28-0.14c0.01-0.01,0.63-1.92,0.61-1.91
		C200.64,177.6,198.25,178.33,196.61,178.62z M169.4,164.65c0.03-0.03,0.04-0.05,0.04-0.08c0-0.03,0.01-0.07,0.04-0.11
		c0.03-0.05,0.06-0.11,0.08-0.16c0.03-0.05,0.07-0.11,0.11-0.16c4.36-4.59,9.13-8.69,14.32-12.33c0.57-0.36,1.11-0.66,1.63-0.93
		c0.11-0.05,0.21-0.11,0.31-0.16c0.1-0.04,0.19-0.09,0.31-0.15c0.08,0,0.17,0.04,0.25,0.11c0.1,0.03,0.15,0.09,0.15,0.2
		c-0.08,0.19-0.18,0.36-0.32,0.54c-4.98,5.06-10.42,9.5-16.35,13.34c-0.08,0.05-0.19,0.08-0.33,0.08c-0.1,0.08-0.19,0.12-0.28,0.12
		C169.24,164.96,169.26,164.86,169.4,164.65z M182.16,182.74c-1.03,0.78-2.1,1.49-3.21,2.11c-1.13,0.61-2.32,1.1-3.63,1.43
		c-0.14,0.04-0.26,0.07-0.39,0.08c-0.13,0.01-0.25,0.04-0.39,0.08c-0.11,0-0.18,0-0.21,0c-0.24,0-0.47-0.11-0.68-0.33
		c-0.22-0.23-0.32-0.46-0.29-0.72c0.19-1.19,0.67-2.34,1.43-3.42c0.46-0.6,0.95-1.21,1.46-1.83c0.51-0.62,1.07-1.22,1.67-1.79
		c0.6-0.57,1.21-1.1,1.84-1.61c0.63-0.5,1.27-0.96,1.92-1.34c0.17-0.05,0.26-0.08,0.32-0.08c0.03,0.03,0.07,0.05,0.13,0.09
		c0.06,0.04,0.1,0.07,0.13,0.07c0.03,0.03,0.04,0.07,0.06,0.13c0.01,0.07,0.03,0.11,0.03,0.13l-0.38,0.58
		c-0.07,0.13-0.15,0.25-0.24,0.37c-0.08,0.12-0.17,0.24-0.25,0.37c-0.32,0.6-0.35,1.21-0.08,1.82c0.22,0.54,0.53,1.09,0.95,1.63
		c0.43,0.6,0.64,1.04,0.63,1.29C182.93,182.07,182.67,182.38,182.16,182.74z M187.08,177.73c-0.13,0.28-0.29,0.53-0.5,0.76
		c-0.21,0.24-0.42,0.44-0.65,0.61c-0.24,0.16-0.49,0.25-0.75,0.25c-0.33,0-0.64-0.09-0.95-0.28c-0.07-0.05-0.13-0.13-0.14-0.25
		c-0.01-0.12,0.01-0.2,0.07-0.25c0.72-0.9,1.68-1.53,2.85-1.87c0.03,0,0.07,0.01,0.11,0.03c0.06,0.01,0.1,0.04,0.13,0.09l0.13,0.12
		c0,0.03,0.01,0.05,0.04,0.08C187.33,177.22,187.22,177.47,187.08,177.73z"/>
	<path class="st1" d="M219.7,176.55c-0.24,0-0.68,0.12-1.29,0.33c-0.63,0.23-1.29,0.48-1.99,0.78c-0.68,0.29-1.35,0.58-1.98,0.88
		c-0.61,0.28-1.06,0.49-1.29,0.62c-0.88,0.41-1.74,0.8-2.59,1.15c-0.86,0.37-1.7,0.72-2.5,1.06c-0.6,0.23-1.27,0.46-2,0.69
		c-0.74,0.24-1.42,0.36-2.07,0.36c-0.82,0-1.1-0.46-0.86-1.37c0.03-0.05,0.04-0.15,0.04-0.27c0.31-1.09,0.63-2.14,0.96-3.12
		c0.33-0.98,0.78-1.88,1.31-2.69c0.53-0.82,1.2-1.55,2.02-2.2c0.81-0.65,1.84-1.19,3.09-1.63c0.33-0.13,0.65-0.21,0.99-0.24
		c0.1-0.01,0.21-0.04,0.31-0.07c0.08-0.03,0.19-0.05,0.31-0.08c0.18-0.05,0.31-0.19,0.38-0.41c0.07-0.23,0.07-0.44-0.01-0.64
		c-0.22-0.4-0.51-0.68-0.9-0.84c-0.38-0.17-0.78-0.25-1.21-0.25c-0.14,0-0.26,0-0.38,0c-0.11,0-0.22,0.03-0.36,0.07
		c-2.82,0.62-4.97,2.14-6.44,4.51c-0.81,1.38-1.45,2.92-1.92,4.63c-0.46,1.71-0.85,3.35-1.17,4.9c-0.14,0.54-0.35,1.02-0.61,1.42
		c-0.28,0.4-0.7,0.73-1.27,1c-0.46,0.2-0.93,0.42-1.39,0.68c-0.46,0.25-0.92,0.5-1.38,0.76c-0.06,0-0.1,0.01-0.13,0.04
		c-1.03,0.57-2.06,1.15-3.1,1.75c-1.03,0.6-2.06,1.19-3.09,1.79c-0.96,0.62-1.81,1.25-2.57,1.9c-0.4,0.4-0.54,0.89-0.4,1.49
		c0.14,0.52,0.31,0.93,0.53,1.23c0.22,0.32,0.49,0.56,0.79,0.73c0.32,0.16,0.67,0.28,1.09,0.36c0.4,0.08,0.85,0.15,1.34,0.2h0.5
		c2.85,0,5.16-0.72,6.94-2.14c1.78-1.43,3.06-3.42,3.85-5.99c0.03-0.08,0.06-0.16,0.08-0.24c0.01-0.08,0.06-0.17,0.11-0.27
		c0.11-0.42,0.39-0.73,0.82-0.94c0.11-0.05,0.21-0.09,0.31-0.13c0.1-0.04,0.19-0.08,0.31-0.13c0.38-0.21,0.75-0.41,1.14-0.61
		c0.38-0.19,0.75-0.37,1.14-0.56c1.88-0.84,3.73-1.69,5.58-2.56c1.85-0.89,3.7-1.78,5.54-2.69c2.28-1.12,3.67-1.86,4.16-2.26
		C220.45,176.9,220.21,176.55,219.7,176.55z M197.16,189.8c-0.03,0.11-0.06,0.19-0.08,0.27c-0.92,1.27-2.17,2.2-3.74,2.8
		c-0.39,0.19-0.78,0.35-1.21,0.46c-0.42,0.13-0.83,0.2-1.24,0.2c-0.06,0-0.11,0-0.18-0.01c-0.07-0.01-0.15-0.04-0.26-0.07
		c-0.08-0.03-0.15-0.07-0.21-0.12c0-0.03,0-0.05,0-0.11c0-0.05,0.01-0.09,0.04-0.12c0.17-0.19,0.32-0.33,0.49-0.42
		c0.99-0.54,1.96-1.09,2.94-1.63c0.97-0.54,1.95-1.1,2.89-1.63c0.11-0.05,0.19-0.08,0.25-0.08c0.13,0,0.24,0.05,0.32,0.19
		C197.18,189.6,197.18,189.69,197.16,189.8z"/>
</g>
</svg>
