<?xml version="1.0" encoding="utf-8"?>
<!-- Generator: Adobe Illustrator 24.0.2, SVG Export Plug-In . SVG Version: 6.00 Build 0)  -->
<svg version="1.1" id="Layer_1" xmlns="http://www.w3.org/2000/svg" xmlns:xlink="http://www.w3.org/1999/xlink" x="0px" y="0px"
	 viewBox="0 0 512 512" style="enable-background:new 0 0 512 512;" xml:space="preserve">
<style type="text/css">
	.st0{fill:#C5E9F9;}
	.st1{fill:#5E889E;}
</style>
<circle class="st0" cx="256.3281" cy="255.9678" r="248.873"/>
<g>
	<g>
		<path class="st1" d="M397.5655,276.1469H114.612c-18.0307,0-32.7836,14.7529-32.7836,32.7819v59.0098
			c0,18.0324,14.7529,32.7836,32.7836,32.7836h282.9535c18.029,0,32.7836-14.7511,32.7836-32.7836v-59.0098
			C430.3491,290.8998,415.5927,276.1469,397.5655,276.1469z M419.7245,367.9403c0,12.2174-9.9398,22.159-22.1607,22.159H114.612
			c-12.2209,0-22.1589-9.9416-22.1589-22.159v-59.0115c0-12.2226,9.9398-22.159,22.1589-22.159h282.9535
			c12.2209,0,22.1607,9.9363,22.1607,22.159v59.0115H419.7245z"/>
		<path class="st1" d="M397.5655,291.0235H114.612c-9.8753,0-17.9105,8.0247-17.9105,17.9052v59.0098
			c0,9.8736,8.0351,17.907,17.9105,17.907h282.9535c9.8754,0,17.907-8.0334,17.907-17.907v-59.0098
			C415.4725,299.05,407.4409,291.0235,397.5655,291.0235z M125.5399,349.3641c-6.0312,0-10.9244-4.8985-10.9244-10.9279
			c0-6.0381,4.8932-10.9279,10.9244-10.9279c6.0346,0,10.9279,4.8897,10.9279,10.9279
			C136.4677,344.4657,131.5745,349.3641,125.5399,349.3641z M164.8844,349.3641c-6.0399,0-10.9366-4.8985-10.9366-10.9279
			c0-6.0381,4.8967-10.9279,10.9366-10.9279c6.0277,0,10.9226,4.8897,10.9226,10.9279
			C175.807,344.4657,170.9138,349.3641,164.8844,349.3641z M204.2132,349.3641c-6.0311,0-10.9261-4.8985-10.9261-10.9279
			c0-6.0381,4.895-10.9279,10.9261-10.9279c6.0399,0,10.9314,4.8897,10.9314,10.9279
			C215.1445,344.4657,210.2548,349.3641,204.2132,349.3641z M386.6411,349.3641c-6.0416,0-10.9279-4.8985-10.9279-10.9279
			c0-6.0381,4.888-10.9279,10.9279-10.9279c6.0346,0,10.9243,4.8897,10.9243,10.9279
			C397.5655,344.4657,392.6758,349.3641,386.6411,349.3641z"/>
	</g>
	<g>
		<path class="st1" d="M344.3238,193.6747c-2.4013-2.3978-5.5485-3.6002-8.6956-3.6002c-3.1471,0-6.2978,1.2024-8.6991,3.6002
			c-2.3996,2.4048-3.6072,5.5484-3.6072,8.7026v65.5498c0,0.6326,0.2457,1.2651,0.7249,1.7426
			c0.4827,0.4757,1.11,0.718,1.7426,0.718h19.6792c0.6291,0,1.2617-0.2422,1.7391-0.718c0.4792-0.4775,0.7214-1.11,0.7214-1.7426
			v-65.5498C347.9274,199.2214,346.7285,196.0795,344.3238,193.6747z"/>
		<path class="st1" d="M347.9274,169.3706c0,6.7874-5.5101,12.2975-12.301,12.2975c-6.7961,0-12.308-5.5101-12.308-12.2975
			c0-6.7996,5.5101-12.3045,12.308-12.3045C342.4173,157.0661,347.9274,162.571,347.9274,169.3706z"/>
		<path class="st1" d="M283.4476,227.7043c-1.5771,0-3.1489-0.6012-4.353-1.7984c-15.1101-15.1119-23.4276-35.1884-23.4276-56.5301
			c0-21.373,8.3175-41.4548,23.431-56.5353c2.41-2.3978,6.303-2.3926,8.7008,0.0122c2.3961,2.3996,2.3926,6.2978-0.0087,8.6973
			c-12.782,12.7559-19.8221,29.7393-19.8221,47.8275c0,18.0621,7.0401,35.0455,19.8221,47.8327
			c2.4048,2.3996,2.4048,6.2925,0,8.6973C286.5913,227.1031,285.0142,227.7043,283.4476,227.7043z M309.5257,201.6279
			c-1.5805,0-3.1594-0.6012-4.3583-1.8106c-8.1223-8.1502-12.5973-18.9613-12.5973-30.4398c0-11.4855,4.475-22.2949,12.5973-30.4468
			c2.3926-2.4048,6.2856-2.41,8.6938-0.0192c2.4048,2.3996,2.4153,6.2978,0.0192,8.7026
			c-5.8116,5.8273-9.0092,13.5557-9.0092,21.7634c0,8.2007,3.1977,15.9309,9.0092,21.7634
			c2.3961,2.4048,2.3856,6.2978-0.0192,8.6956C312.6659,201.032,311.0923,201.6279,309.5257,201.6279z"/>
		<path class="st1" d="M387.8069,227.7043c-1.5683,0-3.1402-0.6012-4.3461-1.7984c-2.4048-2.4048-2.4048-6.2978,0-8.6973
			c12.782-12.7872,19.8204-29.7706,19.8204-47.8327c0-18.0865-7.0384-35.0699-19.8204-47.8275
			c-2.4048-2.3978-2.4083-6.2978-0.0087-8.6973c2.3979-2.4048,6.2943-2.41,8.7026-0.0122
			c15.1084,15.0805,23.4293,35.164,23.4293,56.5353c0,21.3417-8.3209,41.4182-23.4293,56.5301
			C390.9593,227.1031,389.384,227.7043,387.8069,227.7043z M361.7289,201.6279c-1.5701,0-3.1402-0.596-4.3408-1.7914
			c-2.4065-2.3978-2.4118-6.2908-0.0174-8.6956c5.8081-5.8325,9.011-13.5627,9.011-21.7634c0-8.2059-3.2029-15.9361-9.011-21.7634
			c-2.3943-2.4048-2.3891-6.303,0.0174-8.7026c2.4083-2.3926,6.303-2.3856,8.7008,0.0192
			c8.1205,8.1519,12.5903,18.9613,12.5903,30.4468c0,11.4785-4.468,22.2896-12.5903,30.4398
			C364.8812,201.0267,363.3094,201.6279,361.7289,201.6279z"/>
	</g>
</g>
</svg>
